<svg width="24" height="24" viewBox="0 0 24 24" fill="none" xmlns="http://www.w3.org/2000/svg">
<path d="M12 0C5.3832 0 0 5.38327 0 12.0001C0 18.6169 5.3832 24 12 24C18.6168 24 24 18.6169 24 12.0001C24 5.38327 18.6168 0 12 0ZM12 21.8182C6.58618 21.8182 2.18182 17.4138 2.18182 12.0001C2.18182 6.58633 6.58618 2.18182 12 2.18182C17.4138 2.18182 21.8182 6.58633 21.8182 12.0001C21.8182 17.4138 17.4137 21.8182 12 21.8182Z" fill="#333333"></path>
<path d="M12.0002 5.09089C11.1983 5.09089 10.546 5.74369 10.546 6.54609C10.546 7.34776 11.1983 7.99998 12.0002 7.99998C12.8021 7.99998 13.4545 7.34776 13.4545 6.54609C13.4545 5.74369 12.8021 5.09089 12.0002 5.09089Z" fill="#333333"></path>
<path d="M12 10.1818C11.3975 10.1818 10.9091 10.6702 10.9091 11.2727V17.8182C10.9091 18.4206 11.3975 18.9091 12 18.9091C12.6024 18.9091 13.0909 18.4206 13.0909 17.8182V11.2727C13.0909 10.6702 12.6024 10.1818 12 10.1818Z" fill="#333333"></path>
</svg>
