<svg id="Layer_1" data-name="Layer 1" xmlns="http://www.w3.org/2000/svg" xmlns:xlink="http://www.w3.org/1999/xlink" viewBox="0 0 312 312"><defs><style>.cls-1 {
  fill: #fc3;
}

.cls-2 {
  fill: #fcd73e;
  stroke: #ffa600;
  stroke-miterlimit: 10;
  stroke-width: 10px;
}

.cls-3, .cls-4, .cls-7 {
  isolation: isolate;
  opacity: .9;
}

.cls-3 {
  fill: url("#radial-gradient");
}

.cls-4 {
  fill: url("#radial-gradient-2");
}

.cls-5 {
  fill: url("#radial-gradient-3");
}

.cls-6 {
  fill: url("#radial-gradient-4");
}

.cls-7 {
  fill: url("#radial-gradient-5");
}

</style><radialGradient id="radial-gradient" cx="24437.8" cy="-15043.92" r="42.57" gradientTransform="matrix(-0.16, 0.07, 0.08, 0.3, 5292.95, 2572.13)" gradientUnits="userSpaceOnUse"><stop offset="0.08" stop-color="#de7f14"></stop><stop offset="0.34" stop-color="#da7d12"></stop><stop offset="0.6" stop-color="#ce760d"></stop><stop offset="0.86" stop-color="#ba6c05"></stop><stop offset="0.99" stop-color="#ad6500"></stop></radialGradient><radialGradient id="radial-gradient-2" cx="24287.12" cy="-14862.75" r="97.14" gradientTransform="matrix(-0.16, 0.06, 0.06, 0.21, 5071.72, 1602.02)" xlink:href="#radial-gradient"></radialGradient><radialGradient id="radial-gradient-3" cx="9999.66" cy="-31201.08" r="44.02" gradientTransform="matrix(-0.06, 0.25, 0.14, 0.13, 5042.76, 1528.87)" gradientUnits="userSpaceOnUse"><stop offset="0.09" stop-color="#d99914"></stop><stop offset="0.41" stop-color="#d59612"></stop><stop offset="0.73" stop-color="#c98d0d"></stop><stop offset="0.99" stop-color="#ba8207"></stop></radialGradient><radialGradient id="radial-gradient-4" cx="24192.39" cy="-15051.86" r="67.64" gradientTransform="matrix(-0.16, 0.07, 0.08, 0.3, 5292.95, 2572.13)" xlink:href="#radial-gradient-3"></radialGradient><radialGradient id="radial-gradient-5" cx="24018.21" cy="-15030.98" r="27.27" xlink:href="#radial-gradient"></radialGradient></defs><path class="cls-1" d="M180,331a155.51,155.51,0,1,1,58.7-11.42A155.45,155.45,0,0,1,180,331Zm0-300.17A144.18,144.18,0,0,0,78.05,277,144.18,144.18,0,0,0,282,73.05,143.23,143.23,0,0,0,180,30.83Z" transform="translate(-24 -19)"></path><path class="cls-2" d="M236.47,169.8l-85.09-47.31a10,10,0,0,0-14.9,8.76v94.63a10,10,0,0,0,14.9,8.76l85.09-47.31A10,10,0,0,0,236.47,169.8Z" transform="translate(-24 -19)"></path><g id="Layer_1-25" data-name="Layer 1-25"><path class="cls-3" d="M162.1,204.09c1.69,6.54.42,13-3.06,14.19l-.56.13c-3.66,1.2-8.14-2.88-10.47-9.65-1.69-6.55-.41-13,3.06-14.2l.57-.13C155.22,192.89,159.77,197.32,162.1,204.09Z" transform="translate(-24 -19)"></path><path class="cls-4" d="M188.38,171.22c2.28,8.27-1.4,16.3-8.15,18.64s-14.43-2.84-16.71-11.1,1.4-16.3,8.15-18.64S186,163.25,188.38,171.22Z" transform="translate(-24 -19)"></path><path class="cls-5" d="M159.94,144.65c.71,3.12-.26,6.63-3.25,7.31-2.62.6-5.26-.62-6.51-4.35-.71-3.13.18-7,3.18-7.66C156.06,139.7,158.62,140.57,159.94,144.65Z" transform="translate(-24 -19)"></path><path class="cls-6" d="M211.06,184.47c1.48,4.77-.8,8.57-4.73,9.47a7.46,7.46,0,0,1-9-5.62c-1.32-4.08,1.17-8.66,4.73-9.47C205.76,177.65,209.73,180.39,211.06,184.47Z" transform="translate(-24 -19)"></path></g><path class="cls-7" d="M226.29,174.25c.71,3.12,0,5.85-1.55,6.19l-.18,0c-1.87.43-3.92-1.65-4.82-4.73-.72-3.12,0-5.85,1.54-6.19l.19,0C223.34,169.09,225.39,171.17,226.29,174.25Z" transform="translate(-24 -19)"></path></svg>