<svg width="31" height="30" viewBox="0 0 31 30" fill="none" xmlns="http://www.w3.org/2000/svg">
<path d="M30.3709 22.4075L19.4079 2.22486C18.5804 0.831915 17.1191 0 15.4988 0C13.8786 0 12.4172 0.831915 11.5898 2.22486C11.5836 2.23552 11.5783 2.24617 11.5721 2.25683L0.645517 22.3756C-0.199658 23.7979 -0.215643 25.506 0.601984 26.9443C1.42149 28.3834 2.89787 29.2419 4.55364 29.2419H26.3835C28.0393 29.2419 29.5763 28.3834 30.3958 26.9443C31.2134 25.506 31.1975 23.7978 30.3709 22.4075ZM13.6806 9.24123C13.6806 8.23699 14.4947 7.423 15.4988 7.423C16.5031 7.423 17.3171 8.23705 17.3171 9.24123V16.5142C17.3171 17.5183 16.503 18.3324 15.4988 18.3324C14.4947 18.3324 13.6806 17.5182 13.6806 16.5142V9.24123ZM15.4988 25.6054C13.9949 25.6054 12.7714 24.382 12.7714 22.878C12.7714 21.3741 13.9949 20.1507 15.4988 20.1507C17.0028 20.1507 18.2262 21.3741 18.2262 22.878C18.2262 24.382 17.0028 25.6054 15.4988 25.6054Z" fill="#F7BD43"></path>
</svg>
