<svg id="Layer_1" data-name="Layer 1" xmlns="http://www.w3.org/2000/svg" viewBox="0 0 312 312"><defs><style>.cls-10,.cls-18,.cls-20,.cls-22,.cls-3,.cls-4,.cls-5,.cls-6,.cls-9{fill-rule:evenodd}.cls-3{fill:#f9f9f9}.cls-4{fill:#97b2bd}.cls-5{fill:#b8c6cd}.cls-6{fill:#3b81c0}.cls-9{fill:#6acaff}.cls-10{fill:#fefefe}.cls-18{fill:#747b84}.cls-20{fill:#fd8703}.cls-22{fill:#a51f4c}</style></defs><path style="fill-rule:evenodd;fill:#c2c8d4" d="m15.71 276.19 23.83-10.88 1.55-5.64 3.78-1.81 1.08-17.61-14.04 2.17-6.65 10.19-9.55 23.58z"/><path style="fill:#b3b8c3;fill-rule:evenodd" d="M117.56 312h37.18L312 219.43v-14.67l-49.77-28.09L117.56 312z"/><path class="cls-3" d="m143.88 326.38-109.3-65.33S28 245.51 30 231.91s6.94-11.6 6.94-11.6l107.62 65.19 1.62 35Z" transform="translate(-27 -19)"/><path class="cls-4" d="m40.51 261.73-15.25-9.12 6.65-10.19 14.04-2.17-1.08 17.61-3.78 1.81-.58 2.06z"/><path class="cls-5" d="M31.62 225.15c2.27-6.05 5.32-4.84 5.32-4.84l106 64.21-1.59 8.34-108.83-65.45Z" transform="translate(-27 -19)"/><path class="cls-6" d="M46.27 268 36 261.87c-2.26-7.47-4.11-20.27-3.58-28.54a31.25 31.25 0 0 1 1.52-8.33 11.06 11.06 0 0 1 3-4.64l9.35 5.28-.48.66c-2.1-1.62-.07 2.08-.93 2.42-.66.28-4.64-2.3-5.64-.18-2.69 7.24-.9 24.47 2.35 30.85.93 1.8 0 3.38.57 3.88l1.68 1.28c1.28 1 2.76 2 3.18 2.33Z" transform="translate(-27 -19)"/><path class="cls-5" d="M142.66 274.85s-7.73 9.78-5.79 26.24 8.55 19.85 8.55 19.85l159.28-90.28s-6.63-11.25-6.13-22.78 4.51-18.45 4.51-18.45Z" transform="translate(-27 -19)"/><path d="M196.72 121.68 32 220.15l6.76-.9 105.83 63 165-98.69-99.22-59.08c-5.2-3.4-9.68-4.11-13.6-2.76Z" transform="translate(-27 -19)" style="fill:#4db4eb;fill-rule:evenodd"/><path style="fill:#3870a3;fill-rule:evenodd" d="m149.74 243.97 132.8-79.46-30.44-18.12-121.7 91.23-4.57 6.35h23.91z"/><path class="cls-6" d="m282.54 164.51-164.98 98.7v6.58l164.98-98.72v-6.56z"/><path class="cls-9" d="m12.99 200.64 104.57 62.57v6.58L12.99 207.22v-6.58z"/><path class="cls-9" d="M39.93 226.27c-2.12-1.62-3.52-2.08-4.38-1.74a4.15 4.15 0 0 0-1.74 2.47 25.17 25.17 0 0 0-1.2 6.72c-.66 10 1.55 23.86 3.78 25.85.13.11.84.66 1.68 1.27l3.16 2.36-3.09 3.68c-.51-.34-2.06-.48-3.32-1.42-.88-.66-1.7-1.3-2-1.6-3.12-2.79-6.43-19.13-5.68-30.53a30.48 30.48 0 0 1 1.54-8.33c1-2.77 2.63-4.82 4.88-5.74 2.63-1.07 5.84-.48 9.66 2.47Z" transform="translate(-27 -19)"/><path class="cls-6" d="m282.54 206.72-164.98 98.72V312l164.98-98.72v-6.56z"/><path class="cls-10" d="M108.27 281.94s24.11 17.27 26.7 19.79 2.17 1.41 2.17 1.41c15.4-9.8 25.37-16.63 39.47-25.61l-40.56 23Z" transform="translate(-27 -19)"/><path class="cls-4" d="m76.87 260.31 32.78 19.56 62-35.37-61.58 37.86-33.2-22.05z"/><path class="cls-4" d="M185.25 286.71s50.07-29.09 63.84-37.52 49.2-26.19 49.2-26.19l-49.87 29.66Z" transform="translate(-27 -19)"/><path class="cls-6" d="m12 238.17 106.42 63.77-1.54 5.44L8.64 241.8l3.36-3.63z"/><path class="cls-9" d="m6.85 239.19 110.71 66.25V312L6.85 245.78v-6.59z"/><path style="fill:#4095c6;fill-rule:evenodd" d="m26.39 250.9 14.7 8.77-1.55 5.64-15.63-9.34 1.35-3.36 1.13-1.71z"/><path class="cls-6" d="m116.97 302.42 158.83-94.53-1.44-3.5 8.18 2.33-164.98 98.72-.59-3.02z"/><path class="cls-4" d="m271.57 187.87-53.11 28.95 53.47-32.19-.36 3.24z"/><path class="cls-4" d="M48.92 245.53S74.41 259 82.67 264.2s10.41 7.54 10.41 7.54-33.28-18.41-37.26-19.88-6.9-6.33-6.9-6.33Z" transform="translate(-27 -19)"/><path d="M58.18 251 73 259.25s-5.53 2.62-6.61 6.17c-6.37 21.06-4.8 18.82-23.63 29.77l2.57-12-14 .67s14-8.62 16.11-12.43 2.81-12.55 4.53-16 6.21-4.43 6.21-4.43Z" transform="translate(-27 -19)" style="fill:#ffc442;fill-rule:evenodd"/><path class="cls-4" d="M150 297.52s50.09-29.07 63.83-37.52 49.2-26.23 49.2-26.23l-49.84 29.66Z" transform="translate(-27 -19)"/><path style="fill:#f65291;fill-rule:evenodd" d="M175.47 35.38 15.12 131.17l105.21 62.96 5.5 3.29.66.39 164.34-98.19-1-1.49-100.79-60.01-8.86-5.37-4.71 2.63z"/><path style="fill:#d71d5c;fill-rule:evenodd" d="m155.78 180.33 135.05-80.71-1-1.49-50.02-29.77-119.86 111.83 35.83.14z"/><path d="M316.83 117.13 151.75 217l6.94 21.39-1.64 23.56 165.42-100.12a9.18 9.18 0 0 0 2.27-2.93 24.06 24.06 0 0 0 2.13-7.77c1-7.83-.07-18-1.22-21.57-2.34-7.15-6.43-10.83-8.82-12.43Z" transform="translate(-27 -19)" style="fill:#c21d54;fill-rule:evenodd"/><path class="cls-3" d="M47.49 195.54a34.52 34.52 0 0 0 4-17.92A89.93 89.93 0 0 0 48 157.19l104.83 61.61s10.54 17 8.11 26.94-4.89 13.48-4.89 13.48h-3.22l-5.09-3.11Z" transform="translate(-27 -19)"/><path class="cls-5" d="m15.12 171.16 8.88-5-1.04 4.46 107.64 64.19-3.16 5.41-109.83-65.67-2.49-3.39z"/><path d="m42.12 190.17 108.56 65c.76.44 2.48 1.72 3.41 1.69.51 0 1-.52 1.39-1.34a17.75 17.75 0 0 0 1.53-5.81c.88-7 0-16-1-19-1.52-4.64-3.31-7.23-6.16-9.37a60.27 60.27 0 0 0-5.15-3.13L42.12 156.76v-6.59L147.19 213a74.13 74.13 0 0 1 6.41 4c3.52 2.7 5.7 5.88 7.65 11.84 1.15 3.57 2.21 13.73 1.21 21.57a23 23 0 0 1-2.12 7.77c-1.37 2.63-3.62 5-6.38 5-1.73 0-4.54-2.26-6.28-3.31L42.12 196.75Z" transform="translate(-27 -19)" style="fill:#ff80ab;fill-rule:evenodd"/><path style="fill:#bacdd4;fill-rule:evenodd" d="m23.63 149.98 86.09 51.26-45.27-23.7-39.54-24.29-1.28-3.27z"/><path class="cls-3" d="m146.35 195.24-93.8-56.08s-5.66-13.34-3.94-25 6-10 6-10L147 160.14Z" transform="translate(-27 -19)"/><path class="cls-5" d="M50 108.36c2-5.21 4.6-4.16 4.6-4.16l91 55.12-1.37 7.15-93.45-56.17Z" transform="translate(-27 -19)"/><path class="cls-18" d="m62.58 145.15-8.86-5.28c-1.92-6.42-3.54-17.39-3.07-24.5A25.7 25.7 0 0 1 52 108.2a9.35 9.35 0 0 1 2.61-4l8 4.53-.42.57c-1.82-1.4-.07 1.78-.8 2.08-.57.22-4-2-4.84-.16-2.32 6.21-.79 21 2 26.46.79 1.58 0 2.92.51 3.33.13.12.73.58 1.43 1.1 1.11.82 2.37 1.76 2.75 2Z" transform="translate(-27 -19)"/><path class="cls-5" d="M145.31 151s-6.63 8.39-5 22.49 6.69 22.89 6.69 22.89l137.43-83.32s-5.7-9.64-5.26-19.53S283 77.69 283 77.69Z" transform="translate(-27 -19)"/><path d="M191.71 19.56 50.29 104l5.82-.76L147 157.33l141.54-84.71-85.16-50.71c-4.47-2.9-8.31-3.52-11.67-2.35Z" transform="translate(-27 -19)" style="fill:#ffc501;fill-rule:evenodd"/><path class="cls-20" d="m261.54 53.62-141.59 84.71v5.64l141.59-84.73v-5.62zM261.54 89.84l-141.59 84.73v5.62l141.59-84.71v-5.64z"/><path class="cls-10" d="M118.3 167.75s20.71 14.83 22.92 17 1.86 1.23 1.86 1.23c13.22-8.41 21.77-14.28 33.89-22l-34.82 19.72Z" transform="translate(-27 -19)"/><path class="cls-4" d="m87.53 146.49 28.13 16.79 53.2-30.35-52.85 32.5-28.48-18.94z"/><path class="cls-4" d="M181.87 161.19s43-24.95 54.77-32.2 42.24-22.53 42.24-22.53l-42.79 25.48Z" transform="translate(-27 -19)"/><path class="cls-18" d="m29.33 116.82 91.35 54.76-1.33 4.66-92.9-56.31 2.88-3.11z"/><path d="M54.78 138.43 147 193.57v5.62l-92.93-55.55a4.92 4.92 0 0 1-1.32-.69c-.22-.18-.45-.34-.64-.5l-.18-.09v-.05c-.42-.32-.75-.57-.93-.73-2.67-2.4-5.5-16.41-4.86-26.21a25.2 25.2 0 0 1 1.35-7.17c.88-2.38 2.23-4.14 4.17-4.94a6.75 6.75 0 0 1 5.53.41l.31.18a13 13 0 0 1 1.63 1L147 157.33V163l-89.76-53.7-.07.1c-1.79-1.4-3-1.81-3.73-1.49s-1.09 1-1.5 2.1a21.37 21.37 0 0 0-1 5.76c-.56 8.62 1.34 20.5 3.25 22.19.06.07.33.27.68.55Z" transform="translate(-27 -19)" style="fill:#ffdd69;fill-rule:evenodd"/><path class="cls-18" d="m119.44 171.99 136.31-81.15-1.22-2.99 7.01 1.99-141.59 84.73-.51-2.58z"/><path class="cls-4" d="m252.12 73.66-45.57 24.86 45.88-27.65-.31 2.79z"/><path class="cls-4" d="M151.64 170.47s43-25 54.77-32.2 42.23-22.53 42.23-22.53l-42.79 25.48Z" transform="translate(-27 -19)"/><path class="cls-22" d="M171.81 205.09a27.93 27.93 0 0 1 9.35 16.82c1.46 10.58.67 18.57-.57 21.84a18.46 18.46 0 0 1-3.78 6.22l26.5-16a17.9 17.9 0 0 0 4.22-6.67c1.26-3.27 2.06-11.27.6-21.87a28.11 28.11 0 0 0-9.35-16.82L172 204.74ZM225.24 172.75a28 28 0 0 1 9.35 16.82c1.45 10.6.66 18.6-.58 21.87a18.71 18.71 0 0 1-3.78 6.22l26.5-16A18.1 18.1 0 0 0 261 195c1.23-3.29 2-11.28.57-21.87a28 28 0 0 0-9.35-16.81l-26.72 16.16Z" transform="translate(-27 -19)"/><path style="fill:#eab605;fill-rule:evenodd" d="m165.39 19.27-25.28 15.22 58.17 34.62 25.29-15.22-58.18-34.62z"/><path class="cls-10" d="M122.24 160.12s15.45 11.1 17.11 12.7 1.39.91 1.39.91c9.88-6.28 16.27-10.67 25.31-16.43l-26 14.74Z" transform="translate(-27 -19)"/><path class="cls-4" d="m92.41 139.45 21.02 12.54 39.74-22.67-39.48 24.27-21.28-14.14z"/></svg>