<svg version="1.1" id="Layer_1" xmlns="http://www.w3.org/2000/svg" x="0" y="0" viewBox="0 0 64 64" style="enable-background:new 0 0 64 64" xml:space="preserve"><style>.st1{fill:#ffe959}.st2{opacity:.2}.st3{fill:#424242}</style><g id="Layer_1_1_"><linearGradient id="XMLID_16_" gradientUnits="userSpaceOnUse" x1="31.856" y1="95.368" x2="31.856" y2="78.808" gradientTransform="rotate(180 31.862 67)"><stop offset=".02" style="stop-color:#f7bc00"/><stop offset="1" style="stop-color:#fcd73e"/></linearGradient><path id="XMLID_68_" d="M55.7 42v15.7L11 50.9c-1.7-.3-2.9-1.4-2.9-2.6.1-4.2-.1-8.3 0-12.4 0-.8.1-1.7 1.3-1.9.8-.1 1.8.2 2.6.3l5.4.9v.4c0 1.8 1.9 3.3 4.4 3.5 2.2.1 4-.9 4.3-2.4l16.6 2.9c-.1.2-.2.4-.2.6 0 .8 1 1.5 2.1 1.6 1.2.1 2.1-.5 2.1-1.3v-.2c-.1-.1 9 1.7 9 1.7z" style="fill:url(#XMLID_16_)"/><path class="st1" d="M8.1 36c.3-1.3-.4-2.9 3.9-1.7l5.4.9c.4-1.1 2.2-1.8 4.2-1.6 2.4.1 4.4 1.4 4.4 2.8v.3l16.6 2.9c.3-.3 1.1-.5 1.9-.5 1.1.1 2.1.6 2.1 1.2l9.1 1.8-23.9-14.2c-2.2-1.3-5-1.9-7.5-1.5-2.5.3-5.6.9-7.9 1.8-2.8 1-5.3 2.7-6.9 4-.1.1-.7.6-1 1.2-.4.6-.4 1.5-.4 2.6z"/><g class="st2"><path class="st3" d="M25.8 27.3c1.8 0 3.7.5 5.2 1.4l23.4 13.9v14L11.2 50c-1-.2-1.9-.9-1.8-1.6V35.6c0-.6.1-1.3.3-1.8.2-.4.6-.8.7-.9 1.6-1.2 4-2.8 6.5-3.8 1.8-.7 4.4-1.2 7.6-1.7.4-.1.8-.1 1.3-.1m0-1c-.5 0-1 0-1.5.1-2.5.3-5.6.9-7.9 1.8-2.8 1-5.3 2.7-6.9 4-.1.1-.7.6-1 1.2-.3.6-.3 1.3-.4 2.1v.4c0 4.1.1 8.3.1 12.4 0 1.2 1.2 2.3 2.9 2.6l44.7 6.8V42l-24-14.1c-1.8-1-3.9-1.6-6-1.6z"/></g><radialGradient id="XMLID_17_" cx="60.235" cy="91.047" r="7.644" gradientTransform="matrix(-.4258 0 0 -.3225 41.735 74.603)" gradientUnits="userSpaceOnUse"><stop offset=".081" style="stop-color:#de7f14"/><stop offset=".339" style="stop-color:#da7d12"/><stop offset=".599" style="stop-color:#ce760d"/><stop offset=".86" style="stop-color:#ba6c05"/><stop offset=".987" style="stop-color:#ad6500"/></radialGradient><path id="XMLID_35_" d="M18 46c0 1.3-1.5 2.3-3.3 2.2s-3.3-1.3-3.3-2.6 1.5-2.3 3.3-2.2c1.8.1 3.3 1.3 3.3 2.6z" style="opacity:.9;fill:url(#XMLID_17_);enable-background:new"/><radialGradient id="SVGID_1_" cx="38.836" cy="126.092" r="15.728" gradientTransform="matrix(-.4258 0 0 -.3225 41.735 74.603)" gradientUnits="userSpaceOnUse"><stop offset=".081" style="stop-color:#de7f14"/><stop offset=".339" style="stop-color:#da7d12"/><stop offset=".599" style="stop-color:#ce760d"/><stop offset=".86" style="stop-color:#ba6c05"/><stop offset=".987" style="stop-color:#ad6500"/></radialGradient><path d="M17.3 35.6c0 1.8 1.9 3.3 4.4 3.5 2.2.1 4-.9 4.3-2.4h-.1l-.3-.1.5.1v-.3c0-1.4-2-2.7-4.4-2.8-2-.1-3.8.6-4.2 1.6-.2.1-.2.3-.2.4z" style="fill:url(#SVGID_1_)"/><radialGradient id="XMLID_18_" cx="86.506" cy="314.146" r="7.904" gradientTransform="matrix(-.3078 .2228 -.2409 -.1909 128.841 69.052)" gradientUnits="userSpaceOnUse"><stop offset=".087" style="stop-color:#d99914"/><stop offset=".41" style="stop-color:#d59612"/><stop offset=".735" style="stop-color:#c98d0d"/><stop offset=".987" style="stop-color:#ba8207"/></radialGradient><path id="XMLID_32_" d="M27.4 30c0 .6-1 1.1-2.2 1-1.2-.1-2.2-.7-2.2-1.3 0-.6 1-1.1 2.2-1 1.3 0 2.2.6 2.2 1.3z" style="fill:url(#XMLID_18_)"/><radialGradient id="XMLID_19_" cx="22.002" cy="94.425" r="17.442" gradientTransform="matrix(-.4258 0 0 -.3225 41.735 74.603)" gradientUnits="userSpaceOnUse"><stop offset=".081" style="stop-color:#de7f14"/><stop offset=".339" style="stop-color:#da7d12"/><stop offset=".599" style="stop-color:#ce760d"/><stop offset=".86" style="stop-color:#ba6c05"/><stop offset=".987" style="stop-color:#ad6500"/></radialGradient><path id="XMLID_30_" d="M36.6 45.6c0 2.3-2.5 3.9-5.6 3.7-3.1-.2-5.6-2.2-5.6-4.5s2.5-3.9 5.6-3.7c3 .2 5.6 2.2 5.6 4.5z" style="opacity:.9;fill:url(#XMLID_19_);enable-background:new"/><radialGradient id="XMLID_20_" cx="25.554" cy="131.425" r="12.144" gradientTransform="matrix(-.4258 0 0 -.3225 41.735 74.603)" gradientUnits="userSpaceOnUse"><stop offset=".087" style="stop-color:#d99914"/><stop offset=".41" style="stop-color:#d59612"/><stop offset=".735" style="stop-color:#c98d0d"/><stop offset=".987" style="stop-color:#ba8207"/></radialGradient><path id="XMLID_29_" d="M37.4 34.1c0 .9-1.4 1.5-3.2 1.3s-3.2-.9-3.2-1.8 1.4-1.5 3.2-1.3 3.2.9 3.2 1.8z" style="fill:url(#XMLID_20_)"/><radialGradient id="XMLID_21_" cx="-3.317" cy="77.336" r="6.598" gradientTransform="matrix(-.4258 0 0 -.3225 41.735 74.603)" gradientUnits="userSpaceOnUse"><stop offset=".081" style="stop-color:#de7f14"/><stop offset=".339" style="stop-color:#da7d12"/><stop offset=".599" style="stop-color:#ce760d"/><stop offset=".86" style="stop-color:#ba6c05"/><stop offset=".987" style="stop-color:#ad6500"/></radialGradient><path id="XMLID_28_" d="M44.6 50.4c0 1.1-1.3 2-2.9 1.9-1.6-.1-2.9-1.1-2.9-2.3s1.3-2 2.9-1.9c1.6.2 2.9 1.2 2.9 2.3z" style="opacity:.9;fill:url(#XMLID_21_);enable-background:new"/><radialGradient id="SVGID_2_" cx="-8.331" cy="110.425" r="9.839" gradientTransform="matrix(-.4258 0 0 -.3225 41.735 74.603)" gradientUnits="userSpaceOnUse"><stop offset=".086" style="stop-color:#c77315"/><stop offset=".377" style="stop-color:#c37113"/><stop offset=".672" style="stop-color:#b76c0f"/><stop offset=".967" style="stop-color:#a36407"/><stop offset=".987" style="stop-color:#a16306"/></radialGradient><path d="M42.3 40.1c0 .8 1 1.5 2.1 1.6 1.2.1 2.1-.5 2.1-1.3v-.2c0-.6-1-1.1-2.1-1.2-.8-.1-1.6.1-1.9.5-.1.2-.2.4-.2.6z" style="fill:url(#SVGID_2_)"/><radialGradient id="XMLID_22_" cx="-22.144" cy="89.43" r="4.895" gradientTransform="matrix(-.4258 0 0 -.3225 41.735 74.603)" gradientUnits="userSpaceOnUse"><stop offset=".081" style="stop-color:#de7f14"/><stop offset=".339" style="stop-color:#da7d12"/><stop offset=".599" style="stop-color:#ce760d"/><stop offset=".86" style="stop-color:#ba6c05"/><stop offset=".987" style="stop-color:#ad6500"/></radialGradient><path id="XMLID_25_" d="M51.7 46.2c0 .6-.7 1.1-1.5 1-.8-.1-1.5-.6-1.5-1.2s.7-1.1 1.5-1c.8.1 1.5.6 1.5 1.2z" style="opacity:.9;fill:url(#XMLID_22_);enable-background:new"/></g><g id="Layer_1_2_"><linearGradient id="XMLID_23_" gradientUnits="userSpaceOnUse" x1="24.354" y1="112.363" x2="24.354" y2="97.715" gradientTransform="matrix(-.7652 -.01674 .0188 -.8593 49.353 121.49)"><stop offset=".02" style="stop-color:#f7bc00"/><stop offset="1" style="stop-color:#fcd73e"/></linearGradient><path id="XMLID_7_" d="m49.8 27.3-.4 12.1-31.7-5.7c-1.2-.2-2-1.1-2-2 .2-3.2.1-6.4.3-9.6 0-.6.1-1.3 1-1.5.6-.1 1.3.2 1.9.3l3.8.8v.3c0 1.3 1.3 2.6 3 2.7 1.6.1 2.9-.7 3.1-1.8l11.7 2.4c-.1.1-.2.3-.2.5 0 .6.6 1.2 1.5 1.3.8.1 1.5-.4 1.5-1v-.2c0-.1 6.5 1.4 6.5 1.4z" style="fill:url(#XMLID_23_)"/><path class="st1" d="M15.9 22.2c.2-1-.2-2.2 2.8-1.3l3.8.8c.3-.8 1.6-1.3 3.1-1.2 1.7.1 3.1 1.2 3.1 2.2v.2l11.7 2.4c.2-.3.8-.4 1.4-.4.8.1 1.5.5 1.5.9l6.4 1.5-16.6-11.1c-1.5-1-3.5-1.5-5.3-1.2-1.8.2-4 .6-5.7 1.3-2 .7-3.8 2-5 3-.1.1-.5.4-.7.9-.4.5-.4 1.2-.5 2z"/><g class="st2"><path class="st3" d="M28.8 15.6c1.3 0 2.6.4 3.7 1.1l16.4 10.9-.3 10.8L17.9 33c-.7-.1-1.3-.7-1.3-1.3.1-1.8.1-3.7.2-5.5 0-1.3.1-2.7.1-4v-.3c0-.5.1-1 .2-1.4.1-.3.4-.6.5-.7 1.1-.9 2.9-2.1 4.8-2.8 1.3-.5 3.2-.9 5.5-1.2.2-.2.6-.2.9-.2m0-.7c-.4 0-.7 0-1.1.1-1.8.2-4 .6-5.7 1.3-2 .7-3.8 2-5 3-.1.1-.5.4-.7.9-.2.4-.3 1-.3 1.6v.3c-.1 3.2-.1 6.4-.3 9.6 0 .9.8 1.8 2 2l31.7 5.7.4-12.1L33 16.2c-1.2-.8-2.7-1.3-4.2-1.3z"/></g><radialGradient id="XMLID_24_" cx="37.099" cy="155.727" r="7.644" gradientTransform="matrix(-.3037 -.00435 .00759 -.2484 31.527 68.233)" gradientUnits="userSpaceOnUse"><stop offset=".081" style="stop-color:#de7f14"/><stop offset=".339" style="stop-color:#da7d12"/><stop offset=".599" style="stop-color:#ce760d"/><stop offset=".86" style="stop-color:#ba6c05"/><stop offset=".987" style="stop-color:#ad6500"/></radialGradient><path id="XMLID_6_" d="M22.8 30c0 1-1.1 1.8-2.4 1.6s-2.3-1-2.3-2.1 1.1-1.8 2.4-1.6c1.3.2 2.3 1.1 2.3 2.1z" style="opacity:.9;fill:url(#XMLID_24_);enable-background:new"/><radialGradient id="SVGID_3_" cx="15.699" cy="190.773" r="15.728" gradientTransform="matrix(-.3037 -.00435 .00759 -.2484 31.527 68.233)" gradientUnits="userSpaceOnUse"><stop offset=".081" style="stop-color:#de7f14"/><stop offset=".339" style="stop-color:#da7d12"/><stop offset=".599" style="stop-color:#ce760d"/><stop offset=".86" style="stop-color:#ba6c05"/><stop offset=".987" style="stop-color:#ad6500"/></radialGradient><path d="M22.5 22c0 1.3 1.3 2.6 3 2.7 1.6.1 2.9-.7 3.1-1.8H28.3l.3.1v-.2c0-1.1-1.4-2.1-3.1-2.2-1.4-.1-2.7.4-3.1 1.2.2 0 .1.1.1.2z" style="fill:url(#SVGID_3_)"/><radialGradient id="XMLID_26_" cx="25.096" cy="351.734" r="7.904" gradientTransform="matrix(-.2248 .1685 -.1673 -.1495 93.787 64.846)" gradientUnits="userSpaceOnUse"><stop offset=".087" style="stop-color:#d99914"/><stop offset=".41" style="stop-color:#d59612"/><stop offset=".735" style="stop-color:#c98d0d"/><stop offset=".987" style="stop-color:#ba8207"/></radialGradient><path id="XMLID_5_" d="M29.9 17.7c0 .5-.7.8-1.6.8-.8-.1-1.5-.5-1.5-1s.7-.8 1.6-.8c.8.1 1.5.5 1.5 1z" style="fill:url(#XMLID_26_)"/><radialGradient id="XMLID_27_" cx="-1.134" cy="159.106" r="17.442" gradientTransform="matrix(-.3037 -.00435 .00759 -.2484 31.527 68.233)" gradientUnits="userSpaceOnUse"><stop offset=".081" style="stop-color:#de7f14"/><stop offset=".339" style="stop-color:#da7d12"/><stop offset=".599" style="stop-color:#ce760d"/><stop offset=".86" style="stop-color:#ba6c05"/><stop offset=".987" style="stop-color:#ad6500"/></radialGradient><path id="XMLID_4_" d="M36 29.9c-.1 1.7-1.9 3-4.1 2.8-2.2-.2-4-1.8-3.9-3.5.1-1.7 1.9-3 4.1-2.8 2.2.1 4 1.7 3.9 3.5z" style="opacity:.9;fill:url(#XMLID_27_);enable-background:new"/><radialGradient id="XMLID_31_" cx="2.418" cy="196.106" r="12.144" gradientTransform="matrix(-.3037 -.00435 .00759 -.2484 31.527 68.233)" gradientUnits="userSpaceOnUse"><stop offset=".087" style="stop-color:#d99914"/><stop offset=".41" style="stop-color:#d59612"/><stop offset=".735" style="stop-color:#c98d0d"/><stop offset=".987" style="stop-color:#ba8207"/></radialGradient><path id="XMLID_3_" d="M36.9 21c0 .7-1.1 1.1-2.3 1s-2.3-.7-2.3-1.4 1.1-1.1 2.3-1c1.3.1 2.3.7 2.3 1.4z" style="fill:url(#XMLID_31_)"/><radialGradient id="XMLID_33_" cx="-26.453" cy="142.017" r="6.598" gradientTransform="matrix(-.3037 -.00435 .00759 -.2484 31.527 68.233)" gradientUnits="userSpaceOnUse"><stop offset=".081" style="stop-color:#de7f14"/><stop offset=".339" style="stop-color:#da7d12"/><stop offset=".599" style="stop-color:#ce760d"/><stop offset=".86" style="stop-color:#ba6c05"/><stop offset=".987" style="stop-color:#ad6500"/></radialGradient><path id="XMLID_2_" d="M41.6 33.7c0 .9-1 1.5-2.1 1.4s-2-.9-2-1.8 1-1.5 2.1-1.4c1.2.1 2.1.9 2 1.8z" style="opacity:.9;fill:url(#XMLID_33_);enable-background:new"/><radialGradient id="SVGID_4_" cx="-31.467" cy="175.106" r="9.839" gradientTransform="matrix(-.3037 -.00435 .00759 -.2484 31.527 68.233)" gradientUnits="userSpaceOnUse"><stop offset=".086" style="stop-color:#c77315"/><stop offset=".377" style="stop-color:#c37113"/><stop offset=".672" style="stop-color:#b76c0f"/><stop offset=".967" style="stop-color:#a36407"/><stop offset=".987" style="stop-color:#a16306"/></radialGradient><path d="M40.3 25.7c0 .6.6 1.2 1.5 1.3.8.1 1.5-.4 1.5-1v-.2c0-.4-.7-.9-1.5-.9-.6-.1-1.1.1-1.4.4-.1.1-.1.3-.1.4z" style="fill:url(#SVGID_4_)"/><radialGradient id="XMLID_34_" cx="-45.28" cy="154.111" r="4.895" gradientTransform="matrix(-.3037 -.00435 .00759 -.2484 31.527 68.233)" gradientUnits="userSpaceOnUse"><stop offset=".081" style="stop-color:#de7f14"/><stop offset=".339" style="stop-color:#da7d12"/><stop offset=".599" style="stop-color:#ce760d"/><stop offset=".86" style="stop-color:#ba6c05"/><stop offset=".987" style="stop-color:#ad6500"/></radialGradient><path id="XMLID_1_" d="M46.8 30.5c0 .5-.5.8-1.1.8s-1.1-.5-1.1-1 .5-.8 1.1-.8c.6.1 1.1.5 1.1 1z" style="opacity:.9;fill:url(#XMLID_34_);enable-background:new"/></g><g id="Layer_1_3_"><linearGradient id="XMLID_36_" gradientUnits="userSpaceOnUse" x1="21.738" y1="122.485" x2="21.738" y2="112.347" gradientTransform="matrix(-.6287 -.03929 .05048 -.8077 40.198 114.183)"><stop offset=".02" style="stop-color:#f7bc00"/><stop offset="1" style="stop-color:#fcd73e"/></linearGradient><path id="XMLID_14_" d="m42.7 16.4-.7 8-18.6-4.2c-.7-.2-1.2-.8-1.1-1.4.2-2.1.3-4.3.5-6.4 0-.4.1-.9.6-1 .4-.1.8.1 1.1.2l2.2.6v.2c-.1.9.7 1.7 1.7 1.8.9.1 1.7-.4 1.9-1.2l6.9 1.7c-.1.1-.1.2-.1.3 0 .4.3.8.8.9.5.1.9-.2 1-.6v-.1c0 .1 3.8 1.2 3.8 1.2z" style="fill:url(#XMLID_36_)"/><path class="st1" d="M22.9 12.5c.2-.6 0-1.5 1.7-.8l2.2.6c.2-.5 1-.9 1.9-.8 1 .1 1.8.8 1.7 1.5v.2l6.9 1.7c.2-.2.5-.3.8-.2.5.1.8.3.8.6l3.8 1.1-9.5-7.7c-.9-.7-2-1-3.1-.9-1.1.2-2.4.4-3.4.8-1.2.5-2.3 1.3-3.1 1.9 0 0-.3.3-.5.6-.1.4-.2.9-.2 1.4z"/><g class="st2"><path class="st3" d="M30.7 8.3c.8 0 1.5.3 2.1.8l9.3 7.5-.6 7.2-17.9-4.1c-.4-.1-.7-.5-.7-.9.1-1.2.2-2.5.3-3.7.1-.9.1-1.8.2-2.7v-.2c0-.3.1-.7.2-.9.1-.2.3-.4.3-.4.7-.6 1.8-1.4 2.9-1.8.8-.3 1.9-.6 3.3-.7.2-.1.4-.1.6-.1m.1-.5h-.7c-1.1.2-2.4.4-3.4.8-1.2.5-2.3 1.3-3.1 1.9 0 0-.3.3-.5.6-.1.3-.2.6-.2 1.1v.2c-.2 2.1-.3 4.3-.5 6.4-.1.6.4 1.2 1.1 1.4L42 24.5l.7-8.1-9.5-7.7c-.7-.5-1.6-.8-2.4-.9z"/></g><radialGradient id="XMLID_37_" cx="6.329" cy="232.662" r="7.644" gradientTransform="matrix(-.1796 -.00682 .0139 -.1656 23.742 55.99)" gradientUnits="userSpaceOnUse"><stop offset=".081" style="stop-color:#de7f14"/><stop offset=".339" style="stop-color:#da7d12"/><stop offset=".599" style="stop-color:#ce760d"/><stop offset=".86" style="stop-color:#ba6c05"/><stop offset=".987" style="stop-color:#ad6500"/></radialGradient><path id="XMLID_13_" d="M26.6 17.8c-.1.7-.7 1.2-1.5 1.1-.8-.1-1.3-.7-1.3-1.4.1-.7.7-1.2 1.5-1.1.8.1 1.4.8 1.3 1.4z" style="opacity:.9;fill:url(#XMLID_37_);enable-background:new"/><radialGradient id="SVGID_5_" cx="-15.071" cy="267.707" r="15.728" gradientTransform="matrix(-.1796 -.00682 .0139 -.1656 23.742 55.99)" gradientUnits="userSpaceOnUse"><stop offset=".081" style="stop-color:#de7f14"/><stop offset=".339" style="stop-color:#da7d12"/><stop offset=".599" style="stop-color:#ce760d"/><stop offset=".86" style="stop-color:#ba6c05"/><stop offset=".987" style="stop-color:#ad6500"/></radialGradient><path d="M26.8 12.5c-.1.9.7 1.7 1.7 1.8.9.1 1.7-.4 1.9-1.2h-.2.2v-.2c.1-.7-.7-1.4-1.7-1.5-.9-.1-1.6.2-1.9.8v.3z" style="fill:url(#SVGID_5_)"/><radialGradient id="XMLID_38_" cx="-50.299" cy="393.7" r="7.904" gradientTransform="matrix(-.1395 .1095 -.09339 -.1019 60.733 54.534)" gradientUnits="userSpaceOnUse"><stop offset=".087" style="stop-color:#d99914"/><stop offset=".41" style="stop-color:#d59612"/><stop offset=".735" style="stop-color:#c98d0d"/><stop offset=".987" style="stop-color:#ba8207"/></radialGradient><path id="XMLID_12_" d="M31.3 9.7c0 .3-.5.5-1 .5s-.9-.4-.9-.7c0-.3.5-.5 1-.5.5.1.9.4.9.7z" style="fill:url(#XMLID_38_)"/><radialGradient id="XMLID_39_" cx="-31.904" cy="236.041" r="17.442" gradientTransform="matrix(-.1796 -.00682 .0139 -.1656 23.742 55.99)" gradientUnits="userSpaceOnUse"><stop offset=".081" style="stop-color:#de7f14"/><stop offset=".339" style="stop-color:#da7d12"/><stop offset=".599" style="stop-color:#ce760d"/><stop offset=".86" style="stop-color:#ba6c05"/><stop offset=".987" style="stop-color:#ad6500"/></radialGradient><path id="XMLID_11_" d="M34.5 17.9c-.1 1.2-1.2 2-2.5 1.8-1.3-.2-2.3-1.2-2.2-2.4.1-1.2 1.2-2 2.5-1.8 1.3.2 2.3 1.2 2.2 2.4z" style="opacity:.9;fill:url(#XMLID_39_);enable-background:new"/><radialGradient id="XMLID_40_" cx="-28.353" cy="273.041" r="12.144" gradientTransform="matrix(-.1796 -.00682 .0139 -.1656 23.742 55.99)" gradientUnits="userSpaceOnUse"><stop offset=".087" style="stop-color:#d99914"/><stop offset=".41" style="stop-color:#d59612"/><stop offset=".735" style="stop-color:#c98d0d"/><stop offset=".987" style="stop-color:#ba8207"/></radialGradient><path id="XMLID_10_" d="M35.3 12c0 .4-.7.7-1.4.6-.7-.1-1.3-.5-1.3-1 0-.4.7-.7 1.4-.6s1.3.6 1.3 1z" style="fill:url(#XMLID_40_)"/><radialGradient id="XMLID_41_" cx="-57.224" cy="218.951" r="6.598" gradientTransform="matrix(-.1796 -.00682 .0139 -.1656 23.742 55.99)" gradientUnits="userSpaceOnUse"><stop offset=".081" style="stop-color:#de7f14"/><stop offset=".339" style="stop-color:#da7d12"/><stop offset=".599" style="stop-color:#ce760d"/><stop offset=".86" style="stop-color:#ba6c05"/><stop offset=".987" style="stop-color:#ad6500"/></radialGradient><path id="XMLID_9_" d="M37.6 20.5c0 .6-.6 1-1.3.9-.7-.1-1.2-.6-1.1-1.2 0-.6.6-1 1.3-.9.7.1 1.2.6 1.1 1.2z" style="opacity:.9;fill:url(#XMLID_41_);enable-background:new"/><radialGradient id="SVGID_6_" cx="-62.238" cy="252.041" r="9.839" gradientTransform="matrix(-.1796 -.00682 .0139 -.1656 23.742 55.99)" gradientUnits="userSpaceOnUse"><stop offset=".086" style="stop-color:#c77315"/><stop offset=".377" style="stop-color:#c37113"/><stop offset=".672" style="stop-color:#b76c0f"/><stop offset=".967" style="stop-color:#a36407"/><stop offset=".987" style="stop-color:#a16306"/></radialGradient><path d="M37.1 15.2c0 .4.3.8.8.9.5.1.9-.2 1-.6v-.1c0-.3-.4-.6-.8-.6s-.7 0-.8.2c-.1 0-.2.1-.2.2z" style="fill:url(#SVGID_6_)"/><radialGradient id="XMLID_42_" cx="-76.051" cy="231.045" r="4.895" gradientTransform="matrix(-.1796 -.00682 .0139 -.1656 23.742 55.99)" gradientUnits="userSpaceOnUse"><stop offset=".081" style="stop-color:#de7f14"/><stop offset=".339" style="stop-color:#da7d12"/><stop offset=".599" style="stop-color:#ce760d"/><stop offset=".86" style="stop-color:#ba6c05"/><stop offset=".987" style="stop-color:#ad6500"/></radialGradient><path id="XMLID_8_" d="M40.8 18.5c0 .3-.3.5-.7.5-.4 0-.6-.3-.6-.7s.3-.5.7-.5c.4.1.6.4.6.7z" style="opacity:.9;fill:url(#XMLID_42_);enable-background:new"/></g></svg>