<svg xmlns="http://www.w3.org/2000/svg" viewBox="410 1410 328 328" xml:space="preserve" style="fill-rule:evenodd;clip-rule:evenodd;stroke-linejoin:round;stroke-miterlimit:2"><g id="Capa3"><circle cx="1774.81" cy="926.396" r="283.793" style="fill:#c27a20" transform="matrix(.53788 0 0 .54878 -380.036 1065.92)"/><path d="m2038.24 1074.06-81.76 76.03c1.17 2.61 2.21 5.35 3.09 8.2 16.9 54.6-83.82 108.51-103.74 115.55-19.93 7.03-92.41 43.23-200.03-15.4-67.6-36.82-93.47-90.81-103.36-125.87-11.06-31.12-31.51-32.31-44.98-57.01-13.48-24.74-2.61-61.88-2.61-61.88s15.29-51.678 11.98-20.747c-3.32 30.927 12.18 38.437 35.15 58.197 1.67 1.43 3.18 2.97 4.53 4.58 2.86-10.65 6.54-21.26 10.92-31.35 20.13-46.302 1.66-64.692 1.66-64.692s16.79 2.99 30.67 47.652c13.88 44.65-7.22 72.03-18.65 110.15-6.22 20.72-4.09 32.58-.86 39.09 37.97 46.4 84.7 52.08 132.57 42.44l-.22-.12s24.9-4.21 23.79-20.59c-1.12-16.39-8.23-17.81-56.73-32.29-48.49-14.47-47.76-27.19-47.76-27.19l45.11-7.14c45.11-7.14 64.7 27.64 89.57 50.98 7.04 6.61 13.36 10.07 18.79 11.64 3.75-14.95-3.15-19.11-43.26-47.84-41.07-29.41-36.2-41.19-36.2-41.19l44.99 7.88c43.63 7.66 51.59 44.79 66.46 74.51 21.36-7.23 48.96-19.74 80.51-44.48 14.71-11.54 34.55-5.49 48.44 10.74l93.85-72.06c-.55 4.1-1.19 8.18-1.92 12.21Z" transform="matrix(.54858 0 0 .54858 -393.384 1013.21)"/><path d="M1295.87 2551.32a284.25 284.25 0 0 1-22.04 26.58c-153.88 164.47-534.337-71.84-597.201-125.73-62.863-53.88-327.789-229-336.769-709.46-5.641-301.77 128.663-495.49 229.336-597.84 84.889-98.58 49.136-170.363 107.433-264.536 58.374-94.296 206.553-130.218 206.553-130.218s206.548-49.393 94.295 0C865.22 799.509 869.711 866.863 846.865 983.61a155.693 155.693 0 0 1-6.862 24.36c41.983-11.16 85.43-19.467 128.494-24.36 197.573-22.451 224.513-121.237 224.513-121.237s22.45 62.863-103.28 197.567c-125.724 134.71-260.432 116.75-413.101 152.67-82.975 19.53-119.395 50-135.356 73.76-84.813 219.93-13.235 389.77 112.905 533.42v-.99s62.864 76.33 116.747 40.41 44.903-62.86 0-255.94c-44.903-193.09 0-215.54 0-215.54l112.257 139.2c112.256 139.2 31.431 273.91 0 404.13-8.904 36.88-8.44 65.12-3.202 86.65 58.427-16.59 59.198-48.15 79.382-240.73 20.663-197.16 70.438-203.7 70.438-203.7l60.6 168.24c58.78 163.19-52.75 263.02-125.433 371.8 66.293 58.36 162.833 127.57 308.863 186.19 68.12 27.34 86.04 106.58 57.59 185.56l723.72 299.14-759.27-232.89Z" style="fill:#fffcfc" transform="matrix(-.07148 .11968 -.12055 -.07096 873.761 1533.55)"/><path d="m1488.87 983.804 91.51-82.614a71.45 71.45 0 0 1-2.98-8.246c-16.08-54.846 85.41-107.28 105.44-114.024 20.04-6.745 93.03-41.889 199.78 18.302 67.05 37.805 92.12 92.164 101.49 127.366 10.6 31.272 31.03 32.758 44.13 57.658 13.12 24.934 1.7 61.904 1.7 61.904s-16.06 51.45-12.28 20.57c3.77-30.88-11.61-38.61-34.29-58.7a39.677 39.677 0 0 1-4.46-4.64c-3.02 10.6-6.85 21.15-11.39 31.18-20.81 46.01-2.61 64.66-2.61 64.66s-16.74-3.23-29.96-48.08c-13.22-44.86 8.28-71.923 20.28-109.877 6.52-20.627 4.57-32.515 1.42-39.07-37.27-46.952-83.92-53.306-131.92-44.37l.22.129s-24.97 3.84-24.09 20.242c.87 16.402 7.96 17.928 56.24 33.108 48.28 15.18 47.36 27.88 47.36 27.88l-45.21 6.485c-45.22 6.484-64.29-28.574-88.81-52.276-6.94-6.714-13.21-10.265-18.62-11.907-3.97 14.892 2.87 19.143 42.56 48.458 40.63 30.011 35.58 41.716 35.58 41.716l-44.87-8.542c-43.52-8.285-50.92-45.531-65.35-75.459-21.47 6.912-49.25 19.021-81.16 43.298-14.88 11.324-34.63 4.983-48.28-11.44l-102.62 76.433c.34-3.393.74-6.768 1.19-10.144Z" style="fill:#fff" transform="matrix(.54858 0 0 .54858 -393.384 1013.21)"/></g></svg>