<svg id="Layer_1" data-name="Layer 1" xmlns="http://www.w3.org/2000/svg" xmlns:xlink="http://www.w3.org/1999/xlink" viewBox="0 0 312 312"><defs><radialGradient id="radial-gradient" cx="24437.8" cy="-15043.92" r="42.57" gradientTransform="matrix(-.16 .07 .08 .3 5292.95 2572.13)" gradientUnits="userSpaceOnUse"><stop offset=".08" stop-color="#de7f14"/><stop offset=".34" stop-color="#da7d12"/><stop offset=".6" stop-color="#ce760d"/><stop offset=".86" stop-color="#ba6c05"/><stop offset=".99" stop-color="#ad6500"/></radialGradient><radialGradient id="radial-gradient-2" cx="24287.12" cy="-14862.75" r="97.14" gradientTransform="matrix(-.16 .06 .06 .21 5071.72 1602.02)" xlink:href="#radial-gradient"/><radialGradient id="radial-gradient-3" cx="9999.66" cy="-31201.08" r="44.02" gradientTransform="matrix(-.06 .25 .14 .13 5042.76 1528.87)" gradientUnits="userSpaceOnUse"><stop offset=".09" stop-color="#d99914"/><stop offset=".41" stop-color="#d59612"/><stop offset=".73" stop-color="#c98d0d"/><stop offset=".99" stop-color="#ba8207"/></radialGradient><radialGradient id="radial-gradient-4" cx="24192.39" cy="-15051.86" r="67.64" gradientTransform="matrix(-.16 .07 .08 .3 5292.95 2572.13)" xlink:href="#radial-gradient-3"/><radialGradient id="radial-gradient-5" cx="24018.21" cy="-15030.98" r="27.27" xlink:href="#radial-gradient"/></defs><path d="M180 331a155.51 155.51 0 1 1 58.7-11.42A155.45 155.45 0 0 1 180 331Zm0-300.17A144.18 144.18 0 0 0 78.05 277 144.18 144.18 0 0 0 282 73.05a143.23 143.23 0 0 0-102-42.22Z" transform="translate(-24 -19)" style="fill:#fc3"/><path d="m236.47 169.8-85.09-47.31a10 10 0 0 0-14.9 8.76v94.63a10 10 0 0 0 14.9 8.76l85.09-47.31a10 10 0 0 0 0-17.53Z" transform="translate(-24 -19)" style="fill:#fcd73e;stroke:#ffa600;stroke-miterlimit:10;stroke-width:10px"/><g id="Layer_1-25" data-name="Layer 1-25"><path d="M162.1 204.09c1.69 6.54.42 13-3.06 14.19l-.56.13c-3.66 1.2-8.14-2.88-10.47-9.65-1.69-6.55-.41-13 3.06-14.2l.57-.13c3.58-1.54 8.13 2.89 10.46 9.66Z" transform="translate(-24 -19)" style="fill:url(#radial-gradient);isolation:isolate;opacity:.9"/><path d="M188.38 171.22c2.28 8.27-1.4 16.3-8.15 18.64s-14.43-2.84-16.71-11.1 1.4-16.3 8.15-18.64 14.33 3.13 16.71 11.1Z" transform="translate(-24 -19)" style="fill:url(#radial-gradient-2);isolation:isolate;opacity:.9"/><path d="M159.94 144.65c.71 3.12-.26 6.63-3.25 7.31-2.62.6-5.26-.62-6.51-4.35-.71-3.13.18-7 3.18-7.66 2.7-.25 5.26.62 6.58 4.7Z" transform="translate(-24 -19)" style="fill:url(#radial-gradient-3)"/><path d="M211.06 184.47c1.48 4.77-.8 8.57-4.73 9.47a7.46 7.46 0 0 1-9-5.62c-1.32-4.08 1.17-8.66 4.73-9.47 3.7-1.2 7.67 1.54 9 5.62Z" transform="translate(-24 -19)" style="fill:url(#radial-gradient-4)"/></g><path d="M226.29 174.25c.71 3.12 0 5.85-1.55 6.19h-.18c-1.87.43-3.92-1.65-4.82-4.73-.72-3.12 0-5.85 1.54-6.19h.19c1.87-.43 3.92 1.65 4.82 4.73Z" transform="translate(-24 -19)" style="fill:url(#radial-gradient-5);isolation:isolate;opacity:.9"/></svg>