<svg width="2em" height="2em" viewBox="0 0 160 150" fill="none" xmlns="http://www.w3.org/2000/svg"><path fill="#FF4141" d="M61.44 0c16.96 0 32.328 6.882 43.453 17.986 11.104 11.125 17.986 26.494 17.986 43.453 0 16.961-6.883 32.328-17.986 43.453-11.124 11.106-26.493 17.987-43.453 17.987-16.96 0-32.329-6.881-43.454-17.986C6.882 93.768 0 78.4 0 61.439 0 44.48 6.882 29.111 17.986 17.986 29.112 6.882 44.48 0 61.44 0zm12.012 39.152a7.011 7.011 0 0 1 9.986-.026c2.764 2.776 2.775 7.292.027 10.083L71.4 61.445l12.077 12.25c2.728 2.77 2.689 7.256-.081 10.021-2.772 2.766-7.229 2.758-9.954-.012L61.445 71.541 49.428 83.729a7.008 7.008 0 0 1-9.985.025c-2.763-2.775-2.776-7.291-.026-10.082L51.48 61.435l-12.078-12.25c-2.726-2.769-2.689-7.256.082-10.022 2.772-2.765 7.229-2.758 9.954.013L61.435 51.34l12.017-12.188zM96.899 25.98C87.826 16.907 75.29 11.296 61.44 11.296c-13.851 0-26.387 5.611-35.46 14.685-9.073 9.073-14.684 21.609-14.684 35.459s5.611 26.387 14.684 35.459c9.073 9.074 21.609 14.686 35.46 14.686 13.85 0 26.386-5.611 35.459-14.686 9.073-9.072 14.684-21.609 14.684-35.459s-5.61-26.386-14.684-35.46z"/></svg>