<svg width="31" height="30" fill="none" xmlns="http://www.w3.org/2000/svg"><path d="M30.37 22.407 19.409 2.226A4.508 4.508 0 0 0 15.498 0c-1.62 0-3.08.832-3.908 2.225l-.018.032L.646 22.376a4.496 4.496 0 0 0-.044 4.568 4.497 4.497 0 0 0 3.952 2.298h21.83c1.655 0 3.192-.859 4.012-2.298.817-1.438.802-3.146-.025-4.537ZM13.68 9.241a1.818 1.818 0 1 1 3.637 0v7.273a1.818 1.818 0 0 1-3.636 0V9.241ZM15.5 25.605a2.73 2.73 0 0 1-2.728-2.727 2.73 2.73 0 0 1 2.728-2.727 2.73 2.73 0 0 1 2.727 2.727 2.73 2.73 0 0 1-2.727 2.727Z" fill="#F7BD43"/></svg>