<svg width="1440" height="820" viewBox="0 0 1440 820" fill="none" xmlns="http://www.w3.org/2000/svg">
<g clip-path="url(#clip0)">
<rect width="1440" height="820" fill="#F8F9FA"/>
<path opacity="0.5" fill-rule="evenodd" clip-rule="evenodd" d="M1445.49 -4.40405L1445.49 374.591C1240.07 439.945 861.642 547.839 535.073 334.981C335.663 205.001 165.153 171.182 -4.17204 167.747L-4.17204 -4.40405L1445.49 -4.40405Z" fill="url(#paint0_linear)"/>
<g opacity="0.2">
<path fill-rule="evenodd" clip-rule="evenodd" d="M491.078 606.008C489.774 606.008 488.717 604.95 488.717 603.646C488.717 602.342 489.774 601.284 491.078 601.284C492.383 601.284 493.44 602.342 493.44 603.646C493.44 604.95 492.383 606.008 491.078 606.008Z" fill="#F9BA37"/>
<path fill-rule="evenodd" clip-rule="evenodd" d="M491.078 621.123C489.774 621.123 488.717 620.066 488.717 618.761C488.717 617.457 489.774 616.4 491.078 616.4C492.383 616.4 493.44 617.457 493.44 618.761C493.44 620.066 492.383 621.123 491.078 621.123Z" fill="#F9BA37"/>
<path fill-rule="evenodd" clip-rule="evenodd" d="M491.078 636.24C489.774 636.24 488.717 635.182 488.717 633.878C488.717 632.573 489.774 631.516 491.078 631.516C492.383 631.516 493.44 632.573 493.44 633.878C493.44 635.182 492.383 636.24 491.078 636.24Z" fill="#F9BA37"/>
<path fill-rule="evenodd" clip-rule="evenodd" d="M505.345 621.123C504.041 621.123 502.984 620.066 502.984 618.761C502.984 617.457 504.041 616.4 505.345 616.4C506.65 616.4 507.707 617.457 507.707 618.761C507.707 620.066 506.65 621.123 505.345 621.123Z" fill="#F9BA37"/>
<path fill-rule="evenodd" clip-rule="evenodd" d="M505.345 636.24C504.041 636.24 502.984 635.182 502.984 633.878C502.984 632.573 504.041 631.516 505.345 631.516C506.65 631.516 507.707 632.573 507.707 633.878C507.707 635.182 506.65 636.24 505.345 636.24Z" fill="#F9BA37"/>
<path fill-rule="evenodd" clip-rule="evenodd" d="M519.612 621.123C518.308 621.123 517.251 620.066 517.251 618.761C517.251 617.457 518.308 616.4 519.612 616.4C520.917 616.4 521.974 617.457 521.974 618.761C521.974 620.066 520.917 621.123 519.612 621.123Z" fill="#F9BA37"/>
<path fill-rule="evenodd" clip-rule="evenodd" d="M519.612 636.24C518.308 636.24 517.251 635.182 517.251 633.878C517.251 632.573 518.308 631.516 519.612 631.516C520.917 631.516 521.974 632.573 521.974 633.878C521.974 635.182 520.917 636.24 519.612 636.24Z" fill="#F9BA37"/>
<path fill-rule="evenodd" clip-rule="evenodd" d="M533.88 636.24C532.575 636.24 531.517 635.182 531.517 633.878C531.517 632.573 532.575 631.516 533.88 631.516C535.184 631.516 536.241 632.573 536.241 633.878C536.241 635.182 535.184 636.24 533.88 636.24Z" fill="#F9BA37"/>
</g>
<path fill-rule="evenodd" clip-rule="evenodd" d="M887.134 505.861H945.806L966.727 526.783H908.473L887.134 505.861ZM886.494 504.367H945.368V445.494H886.494V504.367ZM967.784 467.473V525.727L946.862 504.805V446.134L967.784 467.473ZM946.862 444H885V505.861L907.853 528.277H969.278V466.854L946.862 444Z" fill="#4BC7EF"/>
<path d="M935.416 217.324L940.043 213.606" stroke="#F9BA37" stroke-width="2" stroke-linecap="round"/>
<path d="M949.627 206.011L954.226 202.377" stroke="#F9BA37" stroke-width="2" stroke-linecap="round"/>
<path d="M932.893 208.508L938.753 209.144" stroke="#F9BA37" stroke-width="2" stroke-linecap="round"/>
<path d="M950.916 210.474L956.748 211.193" stroke="#F9BA37" stroke-width="2" stroke-linecap="round"/>
<path d="M952.36 219.211L948.641 214.593" stroke="#F9BA37" stroke-width="2" stroke-linecap="round"/>
<path d="M941.028 205.025L937.392 200.434" stroke="#F9BA37" stroke-width="2" stroke-linecap="round"/>
<path d="M943.529 221.73L944.17 215.88" stroke="#F9BA37" stroke-width="2" stroke-linecap="round"/>
<path d="M945.499 203.738L946.223 197.915" stroke="#F9BA37" stroke-width="2" stroke-linecap="round"/>
<path d="M494.619 347.603C484.116 353.124 476.823 360.956 477.075 373.132C477.754 394.334 495.855 411.454 517.273 410.923C530.777 410.537 539.979 400.367 544.044 388.411C547.768 377.974 549.404 361.649 543.58 351.524C536.542 339.214 515.484 340.038 503.947 343.521C501.071 344.473 497.755 345.965 494.619 347.603Z" stroke="#88D4EB" stroke-width="2"/>
<path d="M455.168 234.695L461.919 238.747" stroke="#8542EB" stroke-width="2" stroke-linecap="round"/>
<path d="M475.853 247.094L482.604 251.146" stroke="#8542EB" stroke-width="2" stroke-linecap="round"/>
<path d="M464.967 227.371L466.877 235.101" stroke="#8542EB" stroke-width="2" stroke-linecap="round"/>
<path d="M470.895 250.74L472.806 258.47" stroke="#8542EB" stroke-width="2" stroke-linecap="round"/>
<path d="M460.712 256.717L464.675 249.817" stroke="#8542EB" stroke-width="2" stroke-linecap="round"/>
<path d="M472.981 235.993L477.061 229.125" stroke="#8542EB" stroke-width="2" stroke-linecap="round"/>
<path d="M453.388 246.91L460.998 244.972" stroke="#8542EB" stroke-width="2" stroke-linecap="round"/>
<path d="M476.744 240.986L484.385 238.932" stroke="#8542EB" stroke-width="2" stroke-linecap="round"/>
<path fill-rule="evenodd" clip-rule="evenodd" d="M910.323 233.627C909.24 233.627 908.36 232.746 908.36 231.664C908.36 230.582 909.24 229.701 910.323 229.701C911.405 229.701 912.285 230.582 912.285 231.664C912.285 232.746 911.405 233.627 910.323 233.627Z" fill="#D7D8E6"/>
<path fill-rule="evenodd" clip-rule="evenodd" d="M923.736 233.627C922.653 233.627 921.773 232.746 921.773 231.664C921.773 230.582 922.653 229.701 923.736 229.701C924.818 229.701 925.698 230.582 925.698 231.664C925.698 232.746 924.818 233.627 923.736 233.627Z" fill="#D7D8E6"/>
<path fill-rule="evenodd" clip-rule="evenodd" d="M937.149 233.627C936.067 233.627 935.186 232.746 935.186 231.664C935.186 230.582 936.067 229.701 937.149 229.701C938.231 229.701 939.112 230.582 939.112 231.664C939.112 232.746 938.231 233.627 937.149 233.627Z" fill="#D7D8E6"/>
<path fill-rule="evenodd" clip-rule="evenodd" d="M950.562 233.627C949.481 233.627 948.6 232.746 948.6 231.664C948.6 230.582 949.481 229.701 950.562 229.701C951.645 229.701 952.525 230.582 952.525 231.664C952.525 232.746 951.645 233.627 950.562 233.627Z" fill="#D7D8E6"/>
<path fill-rule="evenodd" clip-rule="evenodd" d="M963.975 233.627C962.893 233.627 962.013 232.746 962.013 231.664C962.013 230.582 962.893 229.701 963.975 229.701C965.058 229.701 965.939 230.582 965.939 231.664C965.939 232.746 965.058 233.627 963.975 233.627Z" fill="#D7D8E6"/>
<path fill-rule="evenodd" clip-rule="evenodd" d="M910.323 247.045C909.24 247.045 908.36 246.164 908.36 245.081C908.36 243.999 909.24 243.119 910.323 243.119C911.405 243.119 912.285 243.999 912.285 245.081C912.285 246.164 911.405 247.045 910.323 247.045Z" fill="#D7D8E6"/>
<path fill-rule="evenodd" clip-rule="evenodd" d="M923.736 247.045C922.653 247.045 921.773 246.164 921.773 245.081C921.773 243.999 922.653 243.119 923.736 243.119C924.818 243.119 925.698 243.999 925.698 245.081C925.698 246.164 924.818 247.045 923.736 247.045Z" fill="#D7D8E6"/>
<path fill-rule="evenodd" clip-rule="evenodd" d="M937.149 247.045C936.067 247.045 935.186 246.164 935.186 245.081C935.186 243.999 936.067 243.119 937.149 243.119C938.231 243.119 939.112 243.999 939.112 245.081C939.112 246.164 938.231 247.045 937.149 247.045Z" fill="#D7D8E6"/>
<path fill-rule="evenodd" clip-rule="evenodd" d="M950.562 247.045C949.481 247.045 948.6 246.164 948.6 245.081C948.6 243.999 949.481 243.119 950.562 243.119C951.645 243.119 952.525 243.999 952.525 245.081C952.525 246.164 951.645 247.045 950.562 247.045Z" fill="#D7D8E6"/>
<path fill-rule="evenodd" clip-rule="evenodd" d="M963.975 247.045C962.893 247.045 962.013 246.164 962.013 245.081C962.013 243.999 962.893 243.119 963.975 243.119C965.058 243.119 965.939 243.999 965.939 245.081C965.939 246.164 965.058 247.045 963.975 247.045Z" fill="#D7D8E6"/>
<path fill-rule="evenodd" clip-rule="evenodd" d="M910.323 260.462C909.24 260.462 908.36 259.581 908.36 258.499C908.36 257.417 909.24 256.536 910.323 256.536C911.405 256.536 912.285 257.417 912.285 258.499C912.285 259.581 911.405 260.462 910.323 260.462Z" fill="#D7D8E6"/>
<path fill-rule="evenodd" clip-rule="evenodd" d="M923.736 260.462C922.653 260.462 921.773 259.581 921.773 258.499C921.773 257.417 922.653 256.536 923.736 256.536C924.818 256.536 925.698 257.417 925.698 258.499C925.698 259.581 924.818 260.462 923.736 260.462Z" fill="#D7D8E6"/>
<path fill-rule="evenodd" clip-rule="evenodd" d="M937.149 260.462C936.067 260.462 935.186 259.581 935.186 258.499C935.186 257.417 936.067 256.536 937.149 256.536C938.231 256.536 939.112 257.417 939.112 258.499C939.112 259.581 938.231 260.462 937.149 260.462Z" fill="#D7D8E6"/>
<path fill-rule="evenodd" clip-rule="evenodd" d="M950.562 260.462C949.481 260.462 948.6 259.581 948.6 258.499C948.6 257.417 949.481 256.536 950.562 256.536C951.645 256.536 952.525 257.417 952.525 258.499C952.525 259.581 951.645 260.462 950.562 260.462Z" fill="#D7D8E6"/>
<path fill-rule="evenodd" clip-rule="evenodd" d="M963.975 260.462C962.893 260.462 962.013 259.581 962.013 258.499C962.013 257.417 962.893 256.536 963.975 256.536C965.058 256.536 965.939 257.417 965.939 258.499C965.939 259.581 965.058 260.462 963.975 260.462Z" fill="#D7D8E6"/>
<path fill-rule="evenodd" clip-rule="evenodd" d="M910.323 273.879C909.24 273.879 908.36 272.999 908.36 271.917C908.36 270.834 909.24 269.954 910.323 269.954C911.405 269.954 912.285 270.834 912.285 271.917C912.285 272.999 911.405 273.879 910.323 273.879Z" fill="#D7D8E6"/>
<path fill-rule="evenodd" clip-rule="evenodd" d="M923.736 273.879C922.653 273.879 921.773 272.999 921.773 271.917C921.773 270.834 922.653 269.954 923.736 269.954C924.818 269.954 925.698 270.834 925.698 271.917C925.698 272.999 924.818 273.879 923.736 273.879Z" fill="#D7D8E6"/>
<path fill-rule="evenodd" clip-rule="evenodd" d="M937.149 273.879C936.067 273.879 935.186 272.999 935.186 271.917C935.186 270.834 936.067 269.954 937.149 269.954C938.231 269.954 939.112 270.834 939.112 271.917C939.112 272.999 938.231 273.879 937.149 273.879Z" fill="#D7D8E6"/>
<path fill-rule="evenodd" clip-rule="evenodd" d="M950.562 273.879C949.481 273.879 948.6 272.999 948.6 271.917C948.6 270.834 949.481 269.954 950.562 269.954C951.645 269.954 952.525 270.834 952.525 271.917C952.525 272.999 951.645 273.879 950.562 273.879Z" fill="#D7D8E6"/>
<path fill-rule="evenodd" clip-rule="evenodd" d="M963.975 273.879C962.893 273.879 962.013 272.999 962.013 271.917C962.013 270.834 962.893 269.954 963.975 269.954C965.058 269.954 965.939 270.834 965.939 271.917C965.939 272.999 965.058 273.879 963.975 273.879Z" fill="#D7D8E6"/>
<path fill-rule="evenodd" clip-rule="evenodd" d="M910.323 287.297C909.24 287.297 908.36 286.417 908.36 285.334C908.36 284.252 909.24 283.371 910.323 283.371C911.405 283.371 912.285 284.252 912.285 285.334C912.285 286.417 911.405 287.297 910.323 287.297Z" fill="#D7D8E6"/>
<path fill-rule="evenodd" clip-rule="evenodd" d="M923.736 287.297C922.653 287.297 921.773 286.417 921.773 285.334C921.773 284.252 922.653 283.371 923.736 283.371C924.818 283.371 925.698 284.252 925.698 285.334C925.698 286.417 924.818 287.297 923.736 287.297Z" fill="#D7D8E6"/>
<path fill-rule="evenodd" clip-rule="evenodd" d="M937.149 287.297C936.067 287.297 935.186 286.417 935.186 285.334C935.186 284.252 936.067 283.371 937.149 283.371C938.231 283.371 939.112 284.252 939.112 285.334C939.112 286.417 938.231 287.297 937.149 287.297Z" fill="#D7D8E6"/>
<path fill-rule="evenodd" clip-rule="evenodd" d="M950.562 287.297C949.481 287.297 948.6 286.417 948.6 285.334C948.6 284.252 949.481 283.371 950.562 283.371C951.645 283.371 952.525 284.252 952.525 285.334C952.525 286.417 951.645 287.297 950.562 287.297Z" fill="#D7D8E6"/>
<path fill-rule="evenodd" clip-rule="evenodd" d="M963.975 287.297C962.893 287.297 962.013 286.417 962.013 285.334C962.013 284.252 962.893 283.371 963.975 283.371C965.058 283.371 965.939 284.252 965.939 285.334C965.939 286.417 965.058 287.297 963.975 287.297Z" fill="#D7D8E6"/>
<path fill-rule="evenodd" clip-rule="evenodd" d="M910.323 300.748C909.24 300.748 908.36 299.868 908.36 298.785C908.36 297.703 909.24 296.823 910.323 296.823C911.405 296.823 912.285 297.703 912.285 298.785C912.285 299.868 911.405 300.748 910.323 300.748Z" fill="#D7D8E6"/>
<path fill-rule="evenodd" clip-rule="evenodd" d="M923.736 300.748C922.653 300.748 921.773 299.868 921.773 298.785C921.773 297.703 922.653 296.823 923.736 296.823C924.818 296.823 925.698 297.703 925.698 298.785C925.698 299.868 924.818 300.748 923.736 300.748Z" fill="#D7D8E6"/>
<path fill-rule="evenodd" clip-rule="evenodd" d="M937.149 300.748C936.067 300.748 935.186 299.868 935.186 298.785C935.186 297.703 936.067 296.823 937.149 296.823C938.231 296.823 939.112 297.703 939.112 298.785C939.112 299.868 938.231 300.748 937.149 300.748Z" fill="#D7D8E6"/>
<path fill-rule="evenodd" clip-rule="evenodd" d="M950.562 300.748C949.481 300.748 948.6 299.868 948.6 298.785C948.6 297.703 949.481 296.823 950.562 296.823C951.645 296.823 952.525 297.703 952.525 298.785C952.525 299.868 951.645 300.748 950.562 300.748Z" fill="#D7D8E6"/>
<path fill-rule="evenodd" clip-rule="evenodd" d="M963.975 300.748C962.893 300.748 962.013 299.868 962.013 298.785C962.013 297.703 962.893 296.823 963.975 296.823C965.058 296.823 965.939 297.703 965.939 298.785C965.939 299.868 965.058 300.748 963.975 300.748Z" fill="#D7D8E6"/>
<path fill-rule="evenodd" clip-rule="evenodd" d="M910.323 314.166C909.24 314.166 908.36 313.285 908.36 312.203C908.36 311.121 909.24 310.24 910.323 310.24C911.405 310.24 912.285 311.121 912.285 312.203C912.285 313.285 911.405 314.166 910.323 314.166Z" fill="#D7D8E6"/>
<path fill-rule="evenodd" clip-rule="evenodd" d="M923.736 314.166C922.653 314.166 921.773 313.285 921.773 312.203C921.773 311.121 922.653 310.24 923.736 310.24C924.818 310.24 925.698 311.121 925.698 312.203C925.698 313.285 924.818 314.166 923.736 314.166Z" fill="#D7D8E6"/>
<path fill-rule="evenodd" clip-rule="evenodd" d="M937.149 314.166C936.067 314.166 935.186 313.285 935.186 312.203C935.186 311.121 936.067 310.24 937.149 310.24C938.231 310.24 939.112 311.121 939.112 312.203C939.112 313.285 938.231 314.166 937.149 314.166Z" fill="#D7D8E6"/>
<path fill-rule="evenodd" clip-rule="evenodd" d="M950.562 314.166C949.481 314.166 948.6 313.285 948.6 312.203C948.6 311.121 949.481 310.24 950.562 310.24C951.645 310.24 952.525 311.121 952.525 312.203C952.525 313.285 951.645 314.166 950.562 314.166Z" fill="#D7D8E6"/>
<path fill-rule="evenodd" clip-rule="evenodd" d="M963.975 314.166C962.893 314.166 962.013 313.285 962.013 312.203C962.013 311.121 962.893 310.24 963.975 310.24C965.058 310.24 965.939 311.121 965.939 312.203C965.939 313.285 965.058 314.166 963.975 314.166Z" fill="#D7D8E6"/>
<path fill-rule="evenodd" clip-rule="evenodd" d="M910.323 327.583C909.24 327.583 908.36 326.703 908.36 325.62C908.36 324.538 909.24 323.657 910.323 323.657C911.405 323.657 912.285 324.538 912.285 325.62C912.285 326.703 911.405 327.583 910.323 327.583Z" fill="#D7D8E6"/>
<path fill-rule="evenodd" clip-rule="evenodd" d="M923.736 327.583C922.653 327.583 921.773 326.703 921.773 325.62C921.773 324.538 922.653 323.657 923.736 323.657C924.818 323.657 925.698 324.538 925.698 325.62C925.698 326.703 924.818 327.583 923.736 327.583Z" fill="#D7D8E6"/>
<path fill-rule="evenodd" clip-rule="evenodd" d="M937.149 327.583C936.067 327.583 935.186 326.703 935.186 325.62C935.186 324.538 936.067 323.657 937.149 323.657C938.231 323.657 939.112 324.538 939.112 325.62C939.112 326.703 938.231 327.583 937.149 327.583Z" fill="#D7D8E6"/>
<path fill-rule="evenodd" clip-rule="evenodd" d="M950.562 327.583C949.481 327.583 948.6 326.703 948.6 325.62C948.6 324.538 949.481 323.657 950.562 323.657C951.645 323.657 952.525 324.538 952.525 325.62C952.525 326.703 951.645 327.583 950.562 327.583Z" fill="#D7D8E6"/>
<path fill-rule="evenodd" clip-rule="evenodd" d="M963.975 327.583C962.893 327.583 962.013 326.703 962.013 325.62C962.013 324.538 962.893 323.657 963.975 323.657C965.058 323.657 965.939 324.538 965.939 325.62C965.939 326.703 965.058 327.583 963.975 327.583Z" fill="#D7D8E6"/>
<path fill-rule="evenodd" clip-rule="evenodd" d="M910.323 341C909.24 341 908.36 340.12 908.36 339.038C908.36 337.956 909.24 337.075 910.323 337.075C911.405 337.075 912.285 337.956 912.285 339.038C912.285 340.12 911.405 341 910.323 341Z" fill="#D7D8E6"/>
<path fill-rule="evenodd" clip-rule="evenodd" d="M923.736 341C922.653 341 921.773 340.12 921.773 339.038C921.773 337.956 922.653 337.075 923.736 337.075C924.818 337.075 925.698 337.956 925.698 339.038C925.698 340.12 924.818 341 923.736 341Z" fill="#D7D8E6"/>
<path fill-rule="evenodd" clip-rule="evenodd" d="M937.149 341C936.067 341 935.186 340.12 935.186 339.038C935.186 337.956 936.067 337.075 937.149 337.075C938.231 337.075 939.112 337.956 939.112 339.038C939.112 340.12 938.231 341 937.149 341Z" fill="#D7D8E6"/>
<path fill-rule="evenodd" clip-rule="evenodd" d="M950.562 341C949.481 341 948.6 340.12 948.6 339.038C948.6 337.956 949.481 337.075 950.562 337.075C951.645 337.075 952.525 337.956 952.525 339.038C952.525 340.12 951.645 341 950.562 341Z" fill="#D7D8E6"/>
<path fill-rule="evenodd" clip-rule="evenodd" d="M963.975 341C962.893 341 962.013 340.12 962.013 339.038C962.013 337.956 962.893 337.075 963.975 337.075C965.058 337.075 965.939 337.956 965.939 339.038C965.939 340.12 965.058 341 963.975 341Z" fill="#D7D8E6"/>
<path fill-rule="evenodd" clip-rule="evenodd" d="M856.661 233.627C855.579 233.627 854.698 232.746 854.698 231.664C854.698 230.582 855.579 229.701 856.661 229.701C857.743 229.701 858.624 230.582 858.624 231.664C858.624 232.746 857.743 233.627 856.661 233.627Z" fill="#D7D8E6"/>
<path fill-rule="evenodd" clip-rule="evenodd" d="M870.074 233.627C868.991 233.627 868.111 232.746 868.111 231.664C868.111 230.582 868.991 229.701 870.074 229.701C871.156 229.701 872.037 230.582 872.037 231.664C872.037 232.746 871.156 233.627 870.074 233.627Z" fill="#D7D8E6"/>
<path fill-rule="evenodd" clip-rule="evenodd" d="M883.487 233.627C882.405 233.627 881.525 232.746 881.525 231.664C881.525 230.582 882.405 229.701 883.487 229.701C884.57 229.701 885.451 230.582 885.451 231.664C885.451 232.746 884.57 233.627 883.487 233.627Z" fill="#D7D8E6"/>
<path fill-rule="evenodd" clip-rule="evenodd" d="M896.901 233.627C895.818 233.627 894.937 232.746 894.937 231.664C894.937 230.582 895.818 229.701 896.901 229.701C897.983 229.701 898.863 230.582 898.863 231.664C898.863 232.746 897.983 233.627 896.901 233.627Z" fill="#D7D8E6"/>
<path fill-rule="evenodd" clip-rule="evenodd" d="M856.661 247.045C855.579 247.045 854.698 246.164 854.698 245.081C854.698 243.999 855.579 243.119 856.661 243.119C857.743 243.119 858.624 243.999 858.624 245.081C858.624 246.164 857.743 247.045 856.661 247.045Z" fill="#D7D8E6"/>
<path fill-rule="evenodd" clip-rule="evenodd" d="M870.074 247.045C868.991 247.045 868.111 246.164 868.111 245.081C868.111 243.999 868.991 243.119 870.074 243.119C871.156 243.119 872.037 243.999 872.037 245.081C872.037 246.164 871.156 247.045 870.074 247.045Z" fill="#D7D8E6"/>
<path fill-rule="evenodd" clip-rule="evenodd" d="M883.487 247.045C882.405 247.045 881.525 246.164 881.525 245.081C881.525 243.999 882.405 243.119 883.487 243.119C884.57 243.119 885.451 243.999 885.451 245.081C885.451 246.164 884.57 247.045 883.487 247.045Z" fill="#D7D8E6"/>
<path fill-rule="evenodd" clip-rule="evenodd" d="M896.901 247.045C895.818 247.045 894.937 246.164 894.937 245.081C894.937 243.999 895.818 243.119 896.901 243.119C897.983 243.119 898.863 243.999 898.863 245.081C898.863 246.164 897.983 247.045 896.901 247.045Z" fill="#D7D8E6"/>
<path fill-rule="evenodd" clip-rule="evenodd" d="M856.661 260.462C855.579 260.462 854.698 259.581 854.698 258.499C854.698 257.417 855.579 256.536 856.661 256.536C857.743 256.536 858.624 257.417 858.624 258.499C858.624 259.581 857.743 260.462 856.661 260.462Z" fill="#D7D8E6"/>
<path fill-rule="evenodd" clip-rule="evenodd" d="M870.074 260.462C868.991 260.462 868.111 259.581 868.111 258.499C868.111 257.417 868.991 256.536 870.074 256.536C871.156 256.536 872.037 257.417 872.037 258.499C872.037 259.581 871.156 260.462 870.074 260.462Z" fill="#D7D8E6"/>
<path fill-rule="evenodd" clip-rule="evenodd" d="M883.487 260.462C882.405 260.462 881.525 259.581 881.525 258.499C881.525 257.417 882.405 256.536 883.487 256.536C884.57 256.536 885.451 257.417 885.451 258.499C885.451 259.581 884.57 260.462 883.487 260.462Z" fill="#D7D8E6"/>
<path fill-rule="evenodd" clip-rule="evenodd" d="M896.901 260.462C895.818 260.462 894.937 259.581 894.937 258.499C894.937 257.417 895.818 256.536 896.901 256.536C897.983 256.536 898.863 257.417 898.863 258.499C898.863 259.581 897.983 260.462 896.901 260.462Z" fill="#D7D8E6"/>
<path fill-rule="evenodd" clip-rule="evenodd" d="M856.661 273.879C855.579 273.879 854.698 272.999 854.698 271.917C854.698 270.834 855.579 269.954 856.661 269.954C857.743 269.954 858.624 270.834 858.624 271.917C858.624 272.999 857.743 273.879 856.661 273.879Z" fill="#D7D8E6"/>
<path fill-rule="evenodd" clip-rule="evenodd" d="M870.074 273.879C868.991 273.879 868.111 272.999 868.111 271.917C868.111 270.834 868.991 269.954 870.074 269.954C871.156 269.954 872.037 270.834 872.037 271.917C872.037 272.999 871.156 273.879 870.074 273.879Z" fill="#D7D8E6"/>
<path fill-rule="evenodd" clip-rule="evenodd" d="M883.487 273.879C882.405 273.879 881.525 272.999 881.525 271.917C881.525 270.834 882.405 269.954 883.487 269.954C884.57 269.954 885.451 270.834 885.451 271.917C885.451 272.999 884.57 273.879 883.487 273.879Z" fill="#D7D8E6"/>
<path fill-rule="evenodd" clip-rule="evenodd" d="M896.901 273.879C895.818 273.879 894.937 272.999 894.937 271.917C894.937 270.834 895.818 269.954 896.901 269.954C897.983 269.954 898.863 270.834 898.863 271.917C898.863 272.999 897.983 273.879 896.901 273.879Z" fill="#D7D8E6"/>
<path fill-rule="evenodd" clip-rule="evenodd" d="M856.661 287.297C855.579 287.297 854.698 286.417 854.698 285.334C854.698 284.252 855.579 283.371 856.661 283.371C857.743 283.371 858.624 284.252 858.624 285.334C858.624 286.417 857.743 287.297 856.661 287.297Z" fill="#D7D8E6"/>
<path fill-rule="evenodd" clip-rule="evenodd" d="M870.074 287.297C868.991 287.297 868.111 286.417 868.111 285.334C868.111 284.252 868.991 283.371 870.074 283.371C871.156 283.371 872.037 284.252 872.037 285.334C872.037 286.417 871.156 287.297 870.074 287.297Z" fill="#D7D8E6"/>
<path fill-rule="evenodd" clip-rule="evenodd" d="M883.487 287.297C882.405 287.297 881.525 286.417 881.525 285.334C881.525 284.252 882.405 283.371 883.487 283.371C884.57 283.371 885.451 284.252 885.451 285.334C885.451 286.417 884.57 287.297 883.487 287.297Z" fill="#D7D8E6"/>
<path fill-rule="evenodd" clip-rule="evenodd" d="M896.901 287.297C895.818 287.297 894.937 286.417 894.937 285.334C894.937 284.252 895.818 283.371 896.901 283.371C897.983 283.371 898.863 284.252 898.863 285.334C898.863 286.417 897.983 287.297 896.901 287.297Z" fill="#D7D8E6"/>
<path fill-rule="evenodd" clip-rule="evenodd" d="M856.661 300.748C855.579 300.748 854.698 299.868 854.698 298.785C854.698 297.703 855.579 296.823 856.661 296.823C857.743 296.823 858.624 297.703 858.624 298.785C858.624 299.868 857.743 300.748 856.661 300.748Z" fill="#D7D8E6"/>
<path fill-rule="evenodd" clip-rule="evenodd" d="M870.074 300.748C868.991 300.748 868.111 299.868 868.111 298.785C868.111 297.703 868.991 296.823 870.074 296.823C871.156 296.823 872.037 297.703 872.037 298.785C872.037 299.868 871.156 300.748 870.074 300.748Z" fill="#D7D8E6"/>
<path fill-rule="evenodd" clip-rule="evenodd" d="M883.487 300.748C882.405 300.748 881.525 299.868 881.525 298.785C881.525 297.703 882.405 296.823 883.487 296.823C884.57 296.823 885.451 297.703 885.451 298.785C885.451 299.868 884.57 300.748 883.487 300.748Z" fill="#D7D8E6"/>
<path fill-rule="evenodd" clip-rule="evenodd" d="M896.901 300.748C895.818 300.748 894.937 299.868 894.937 298.785C894.937 297.703 895.818 296.823 896.901 296.823C897.983 296.823 898.863 297.703 898.863 298.785C898.863 299.868 897.983 300.748 896.901 300.748Z" fill="#D7D8E6"/>
<path fill-rule="evenodd" clip-rule="evenodd" d="M856.661 314.166C855.579 314.166 854.698 313.285 854.698 312.203C854.698 311.121 855.579 310.24 856.661 310.24C857.743 310.24 858.624 311.121 858.624 312.203C858.624 313.285 857.743 314.166 856.661 314.166Z" fill="#D7D8E6"/>
<path fill-rule="evenodd" clip-rule="evenodd" d="M870.074 314.166C868.991 314.166 868.111 313.285 868.111 312.203C868.111 311.121 868.991 310.24 870.074 310.24C871.156 310.24 872.037 311.121 872.037 312.203C872.037 313.285 871.156 314.166 870.074 314.166Z" fill="#D7D8E6"/>
<path fill-rule="evenodd" clip-rule="evenodd" d="M883.487 314.166C882.405 314.166 881.525 313.285 881.525 312.203C881.525 311.121 882.405 310.24 883.487 310.24C884.57 310.24 885.451 311.121 885.451 312.203C885.451 313.285 884.57 314.166 883.487 314.166Z" fill="#D7D8E6"/>
<path fill-rule="evenodd" clip-rule="evenodd" d="M896.901 314.166C895.818 314.166 894.937 313.285 894.937 312.203C894.937 311.121 895.818 310.24 896.901 310.24C897.983 310.24 898.863 311.121 898.863 312.203C898.863 313.285 897.983 314.166 896.901 314.166Z" fill="#D7D8E6"/>
<path fill-rule="evenodd" clip-rule="evenodd" d="M856.661 327.583C855.579 327.583 854.698 326.703 854.698 325.62C854.698 324.538 855.579 323.657 856.661 323.657C857.743 323.657 858.624 324.538 858.624 325.62C858.624 326.703 857.743 327.583 856.661 327.583Z" fill="#D7D8E6"/>
<path fill-rule="evenodd" clip-rule="evenodd" d="M870.074 327.583C868.991 327.583 868.111 326.703 868.111 325.62C868.111 324.538 868.991 323.657 870.074 323.657C871.156 323.657 872.037 324.538 872.037 325.62C872.037 326.703 871.156 327.583 870.074 327.583Z" fill="#D7D8E6"/>
<path fill-rule="evenodd" clip-rule="evenodd" d="M883.487 327.583C882.405 327.583 881.525 326.703 881.525 325.62C881.525 324.538 882.405 323.657 883.487 323.657C884.57 323.657 885.451 324.538 885.451 325.62C885.451 326.703 884.57 327.583 883.487 327.583Z" fill="#D7D8E6"/>
<path fill-rule="evenodd" clip-rule="evenodd" d="M896.901 327.583C895.818 327.583 894.937 326.703 894.937 325.62C894.937 324.538 895.818 323.657 896.901 323.657C897.983 323.657 898.863 324.538 898.863 325.62C898.863 326.703 897.983 327.583 896.901 327.583Z" fill="#D7D8E6"/>
<path fill-rule="evenodd" clip-rule="evenodd" d="M856.661 341C855.579 341 854.698 340.12 854.698 339.038C854.698 337.956 855.579 337.075 856.661 337.075C857.743 337.075 858.624 337.956 858.624 339.038C858.624 340.12 857.743 341 856.661 341Z" fill="#D7D8E6"/>
<path fill-rule="evenodd" clip-rule="evenodd" d="M870.074 341C868.991 341 868.111 340.12 868.111 339.038C868.111 337.956 868.991 337.075 870.074 337.075C871.156 337.075 872.037 337.956 872.037 339.038C872.037 340.12 871.156 341 870.074 341Z" fill="#D7D8E6"/>
<path fill-rule="evenodd" clip-rule="evenodd" d="M883.487 341C882.405 341 881.525 340.12 881.525 339.038C881.525 337.956 882.405 337.075 883.487 337.075C884.57 337.075 885.451 337.956 885.451 339.038C885.451 340.12 884.57 341 883.487 341Z" fill="#D7D8E6"/>
<path fill-rule="evenodd" clip-rule="evenodd" d="M896.901 341C895.818 341 894.937 340.12 894.937 339.038C894.937 337.956 895.818 337.075 896.901 337.075C897.983 337.075 898.863 337.956 898.863 339.038C898.863 340.12 897.983 341 896.901 341Z" fill="#D7D8E6"/>
<path fill-rule="evenodd" clip-rule="evenodd" d="M1084.2 176.375C1078.58 176.375 1074.02 171.808 1074.02 166.197C1074.02 160.585 1078.58 156.019 1084.2 156.019C1089.81 156.019 1094.37 160.585 1094.37 166.197C1094.37 171.808 1089.81 176.375 1084.2 176.375ZM1084.2 154C1077.47 154 1072 159.47 1072 166.197C1072 172.923 1077.47 178.394 1084.2 178.394C1090.92 178.394 1096.39 172.923 1096.39 166.197C1096.39 159.47 1090.92 154 1084.2 154Z" fill="#8542EB"/>
<g opacity="0.5">
<path d="M258.071 193.127L259.214 197.995L264.082 196.852" stroke="#F9BA37" stroke-width="2" stroke-linecap="round"/>
<path d="M276.086 194.036L294.091 189.81" stroke="#F9BA37" stroke-width="2" stroke-linecap="round" stroke-dasharray="12.33 12.33"/>
<path d="M300.095 188.402L304.962 187.26L303.819 182.392" stroke="#F9BA37" stroke-width="2" stroke-linecap="round"/>
<path d="M301.509 172.551L298.045 157.789" stroke="#F9BA37" stroke-width="2" stroke-linecap="round" stroke-dasharray="10.11 10.11"/>
<path d="M296.891 152.867L295.748 148L290.881 149.142" stroke="#F9BA37" stroke-width="2" stroke-linecap="round"/>
<path d="M278.874 151.959L260.869 156.185" stroke="#F9BA37" stroke-width="2" stroke-linecap="round" stroke-dasharray="12.33 12.33"/>
<path d="M254.867 157.594L250 158.736L251.142 163.603" stroke="#F9BA37" stroke-width="2" stroke-linecap="round"/>
<path d="M253.452 173.445L256.916 188.207" stroke="#F9BA37" stroke-width="2" stroke-linecap="round" stroke-dasharray="10.11 10.11"/>
</g>
<path opacity="0.2" fill-rule="evenodd" clip-rule="evenodd" d="M1209.35 221.748L1234.1 196.991C1234.7 196.399 1235.66 196.399 1236.25 196.991L1261.01 221.748C1261.6 222.34 1261.6 223.302 1261.01 223.894L1236.25 248.651C1235.66 249.243 1234.7 249.243 1234.1 248.651L1209.35 223.894C1208.76 223.302 1208.76 222.34 1209.35 221.748Z" stroke="#4BC7EF"/>
<path opacity="0.3" fill-rule="evenodd" clip-rule="evenodd" d="M1227.09 230.262L1227.09 215.38C1227.09 215.024 1227.38 214.736 1227.74 214.736L1242.62 214.733C1242.97 214.734 1243.26 215.024 1243.26 215.379L1243.26 230.262C1243.26 230.618 1242.97 230.907 1242.62 230.907L1227.74 230.908C1227.38 230.908 1227.09 230.618 1227.09 230.262Z" fill="#8542EB"/>
<g opacity="0.2">
<path fill-rule="evenodd" clip-rule="evenodd" d="M45.667 78.334C44.194 78.334 43 77.14 43 75.667C43 74.194 44.194 73 45.667 73C47.14 73 48.334 74.194 48.334 75.667C48.334 77.14 47.14 78.334 45.667 78.334ZM45.667 95.403C44.194 95.403 43 94.209 43 92.736C43 91.263 44.194 90.069 45.667 90.069C47.14 90.069 48.334 91.263 48.334 92.736C48.334 94.209 47.14 95.403 45.667 95.403ZM45.667 112.473C44.194 112.473 43 111.279 43 109.806C43 108.333 44.194 107.139 45.667 107.139C47.14 107.139 48.334 108.333 48.334 109.806C48.334 111.279 47.14 112.473 45.667 112.473ZM45.667 129.542C44.194 129.542 43 128.348 43 126.875C43 125.402 44.194 124.208 45.667 124.208C47.14 124.208 48.334 125.402 48.334 126.875C48.334 128.348 47.14 129.542 45.667 129.542ZM45.667 146.611C44.194 146.611 43 145.417 43 143.944C43 142.471 44.194 141.277 45.667 141.277C47.14 141.277 48.334 142.471 48.334 143.944C48.334 145.417 47.14 146.611 45.667 146.611ZM45.667 163.681C44.194 163.681 43 162.486 43 161.014C43 159.541 44.194 158.346 45.667 158.346C47.14 158.346 48.334 159.541 48.334 161.014C48.334 162.486 47.14 163.681 45.667 163.681ZM45.667 180.749C44.194 180.749 43 179.556 43 178.082C43 176.61 44.194 175.415 45.667 175.415C47.14 175.415 48.334 176.61 48.334 178.082C48.334 179.556 47.14 180.749 45.667 180.749ZM61.777 78.334C60.305 78.334 59.11 77.14 59.11 75.667C59.11 74.194 60.305 73 61.777 73C63.25 73 64.444 74.194 64.444 75.667C64.444 77.14 63.25 78.334 61.777 78.334ZM61.777 95.403C60.305 95.403 59.11 94.209 59.11 92.736C59.11 91.263 60.305 90.069 61.777 90.069C63.25 90.069 64.444 91.263 64.444 92.736C64.444 94.209 63.25 95.403 61.777 95.403ZM61.777 112.473C60.305 112.473 59.11 111.279 59.11 109.806C59.11 108.333 60.305 107.139 61.777 107.139C63.25 107.139 64.444 108.333 64.444 109.806C64.444 111.279 63.25 112.473 61.777 112.473ZM61.777 129.542C60.305 129.542 59.11 128.348 59.11 126.875C59.11 125.402 60.305 124.208 61.777 124.208C63.25 124.208 64.444 125.402 64.444 126.875C64.444 128.348 63.25 129.542 61.777 129.542ZM61.777 146.611C60.305 146.611 59.11 145.417 59.11 143.944C59.11 142.471 60.305 141.277 61.777 141.277C63.25 141.277 64.444 142.471 64.444 143.944C64.444 145.417 63.25 146.611 61.777 146.611ZM61.777 163.681C60.305 163.681 59.11 162.486 59.11 161.014C59.11 159.541 60.305 158.346 61.777 158.346C63.25 158.346 64.444 159.541 64.444 161.014C64.444 162.486 63.25 163.681 61.777 163.681ZM77.888 78.334C76.415 78.334 75.221 77.14 75.221 75.667C75.221 74.194 76.415 73 77.888 73C79.36 73 80.555 74.194 80.555 75.667C80.555 77.14 79.36 78.334 77.888 78.334ZM77.888 95.403C76.415 95.403 75.221 94.209 75.221 92.736C75.221 91.263 76.415 90.069 77.888 90.069C79.36 90.069 80.555 91.263 80.555 92.736C80.555 94.209 79.36 95.403 77.888 95.403ZM77.888 112.473C76.415 112.473 75.221 111.279 75.221 109.806C75.221 108.333 76.415 107.139 77.888 107.139C79.36 107.139 80.555 108.333 80.555 109.806C80.555 111.279 79.36 112.473 77.888 112.473ZM77.888 129.542C76.415 129.542 75.221 128.348 75.221 126.875C75.221 125.402 76.415 124.208 77.888 124.208C79.36 124.208 80.555 125.402 80.555 126.875C80.555 128.348 79.36 129.542 77.888 129.542ZM77.888 146.611C76.415 146.611 75.221 145.417 75.221 143.944C75.221 142.471 76.415 141.277 77.888 141.277C79.36 141.277 80.555 142.471 80.555 143.944C80.555 145.417 79.36 146.611 77.888 146.611ZM93.998 78.334C92.525 78.334 91.331 77.14 91.331 75.667C91.331 74.194 92.525 73 93.998 73C95.471 73 96.665 74.194 96.665 75.667C96.665 77.14 95.471 78.334 93.998 78.334ZM93.998 95.403C92.525 95.403 91.331 94.209 91.331 92.736C91.331 91.263 92.525 90.069 93.998 90.069C95.471 90.069 96.665 91.263 96.665 92.736C96.665 94.209 95.471 95.403 93.998 95.403ZM93.998 112.473C92.525 112.473 91.331 111.279 91.331 109.806C91.331 108.333 92.525 107.139 93.998 107.139C95.471 107.139 96.665 108.333 96.665 109.806C96.665 111.279 95.471 112.473 93.998 112.473ZM93.998 129.542C92.525 129.542 91.331 128.348 91.331 126.875C91.331 125.402 92.525 124.208 93.998 124.208C95.471 124.208 96.665 125.402 96.665 126.875C96.665 128.348 95.471 129.542 93.998 129.542Z" fill="#8542EB"/>
<path fill-rule="evenodd" clip-rule="evenodd" d="M110.108 78.334C108.635 78.334 107.441 77.14 107.441 75.667C107.441 74.194 108.635 73 110.108 73C111.581 73 112.775 74.194 112.775 75.667C112.775 77.14 111.581 78.334 110.108 78.334ZM110.108 95.403C108.635 95.403 107.441 94.209 107.441 92.736C107.441 91.263 108.635 90.069 110.108 90.069C111.581 90.069 112.775 91.263 112.775 92.736C112.775 94.209 111.581 95.403 110.108 95.403ZM110.108 112.473C108.635 112.473 107.441 111.279 107.441 109.806C107.441 108.333 108.635 107.139 110.108 107.139C111.581 107.139 112.775 108.333 112.775 109.806C112.775 111.279 111.581 112.473 110.108 112.473ZM126.218 78.334C124.745 78.334 123.551 77.14 123.551 75.667C123.551 74.194 124.745 73 126.218 73C127.691 73 128.885 74.194 128.885 75.667C128.885 77.14 127.691 78.334 126.218 78.334ZM126.218 95.403C124.745 95.403 123.551 94.209 123.551 92.736C123.551 91.263 124.745 90.069 126.218 90.069C127.691 90.069 128.885 91.263 128.885 92.736C128.885 94.209 127.691 95.403 126.218 95.403ZM142.328 78.334C140.855 78.334 139.661 77.14 139.661 75.667C139.661 74.194 140.855 73 142.328 73C143.801 73 144.996 74.194 144.996 75.667C144.996 77.14 143.801 78.334 142.328 78.334Z" fill="#8542EB"/>
</g>
</g>
<defs>
<linearGradient id="paint0_linear" x1="1143.74" y1="-8.84733" x2="921.857" y2="894.627" gradientUnits="userSpaceOnUse">
<stop stop-color="white"/>
<stop offset="1" stop-color="#C3C1E5"/>
</linearGradient>
<clipPath id="clip0">
<rect width="1440" height="820" fill="white"/>
</clipPath>
</defs>
</svg>
