<svg id="Layer_1" data-name="Layer 1" xmlns="http://www.w3.org/2000/svg" viewBox="0 0 312 312"><defs><style>.cls-1{fill:#c2c8d4;}.cls-1,.cls-10,.cls-11,.cls-12,.cls-13,.cls-14,.cls-15,.cls-16,.cls-17,.cls-18,.cls-19,.cls-2,.cls-20,.cls-21,.cls-22,.cls-23,.cls-3,.cls-4,.cls-5,.cls-6,.cls-7,.cls-8,.cls-9{fill-rule:evenodd;}.cls-2{fill:#b3b8c3;}.cls-3{fill:#f9f9f9;}.cls-4{fill:#97b2bd;}.cls-5{fill:#b8c6cd;}.cls-6{fill:#3b81c0;}.cls-7{fill:#4db4eb;}.cls-8{fill:#3870a3;}.cls-9{fill:#6acaff;}.cls-10{fill:#fefefe;}.cls-11{fill:#4095c6;}.cls-12{fill:#ffc442;}.cls-13{fill:#f65291;}.cls-14{fill:#d71d5c;}.cls-15{fill:#c21d54;}.cls-16{fill:#ff80ab;}.cls-17{fill:#bacdd4;}.cls-18{fill:#747b84;}.cls-19{fill:#ffc501;}.cls-20{fill:#fd8703;}.cls-21{fill:#ffdd69;}.cls-22{fill:#a51f4c;}.cls-23{fill:#eab605;}</style></defs><polygon class="cls-1" points="15.71 276.19 39.54 265.31 41.09 259.67 44.87 257.86 45.95 240.25 31.91 242.42 25.26 252.61 15.71 276.19"/><polygon class="cls-2" points="117.56 312 154.74 312 312 219.43 312 204.76 262.23 176.67 117.56 312"/><path class="cls-3" d="M143.88,326.38,34.58,261.05S28,245.51,30,231.91s6.94-11.6,6.94-11.6L144.56,285.5l1.62,35Z" transform="translate(-27 -19)"/><polygon class="cls-4" points="40.51 261.73 25.26 252.61 31.91 242.42 45.95 240.25 44.87 257.86 41.09 259.67 40.51 261.73"/><path class="cls-5" d="M31.62,225.15c2.27-6.05,5.32-4.84,5.32-4.84l106,64.21-1.59,8.34L32.52,227.41Z" transform="translate(-27 -19)"/><path class="cls-6" d="M46.27,268,36,261.87c-2.26-7.47-4.11-20.27-3.58-28.54A31.25,31.25,0,0,1,33.94,225a11.06,11.06,0,0,1,3-4.64l9.35,5.28-.48.66c-2.1-1.62-.07,2.08-.93,2.42-.66.28-4.64-2.3-5.64-.18-2.69,7.24-.9,24.47,2.35,30.85.93,1.8,0,3.38.57,3.88l1.68,1.28c1.28,1,2.76,2,3.18,2.33Z" transform="translate(-27 -19)"/><path class="cls-5" d="M142.66,274.85s-7.73,9.78-5.79,26.24,8.55,19.85,8.55,19.85L304.7,230.66s-6.63-11.25-6.13-22.78,4.51-18.45,4.51-18.45Z" transform="translate(-27 -19)"/><path class="cls-7" d="M196.72,121.68,32,220.15l6.76-.9,105.83,63,165-98.69-99.22-59.08c-5.2-3.4-9.68-4.11-13.6-2.76Z" transform="translate(-27 -19)"/><polygon class="cls-8" points="149.74 243.97 282.54 164.51 252.1 146.39 130.4 237.62 125.83 243.97 149.74 243.97"/><polygon class="cls-6" points="282.54 164.51 117.56 263.21 117.56 269.79 282.54 171.07 282.54 164.51"/><polygon class="cls-9" points="12.99 200.64 117.56 263.21 117.56 269.79 12.99 207.22 12.99 200.64"/><path class="cls-9" d="M39.93,226.27c-2.12-1.62-3.52-2.08-4.38-1.74A4.15,4.15,0,0,0,33.81,227a25.17,25.17,0,0,0-1.2,6.72c-.66,10,1.55,23.86,3.78,25.85.13.11.84.66,1.68,1.27l3.16,2.36-3.09,3.68c-.51-.34-2.06-.48-3.32-1.42-.88-.66-1.7-1.3-2-1.6-3.12-2.79-6.43-19.13-5.68-30.53A30.48,30.48,0,0,1,28.68,225c1-2.77,2.63-4.82,4.88-5.74,2.63-1.07,5.84-.48,9.66,2.47Z" transform="translate(-27 -19)"/><polygon class="cls-6" points="282.54 206.72 117.56 305.44 117.56 312 282.54 213.28 282.54 206.72"/><path class="cls-10" d="M108.27,281.94s24.11,17.27,26.7,19.79,2.17,1.41,2.17,1.41c15.4-9.8,25.37-16.63,39.47-25.61l-40.56,23Z" transform="translate(-27 -19)"/><polygon class="cls-4" points="76.87 260.31 109.65 279.87 171.65 244.5 110.07 282.36 76.87 260.31"/><path class="cls-4" d="M185.25,286.71s50.07-29.09,63.84-37.52S298.29,223,298.29,223l-49.87,29.66Z" transform="translate(-27 -19)"/><polygon class="cls-6" points="12 238.17 118.42 301.94 116.88 307.38 8.64 241.8 12 238.17"/><polygon class="cls-9" points="6.85 239.19 117.56 305.44 117.56 312 6.85 245.78 6.85 239.19"/><polygon class="cls-11" points="26.39 250.9 41.09 259.67 39.54 265.31 23.91 255.97 25.26 252.61 26.39 250.9"/><polygon class="cls-6" points="116.97 302.42 275.8 207.89 274.36 204.39 282.54 206.72 117.56 305.44 116.97 302.42"/><polygon class="cls-4" points="271.57 187.87 218.46 216.82 271.93 184.63 271.57 187.87"/><path class="cls-4" d="M48.92,245.53S74.41,259,82.67,264.2s10.41,7.54,10.41,7.54S59.8,253.33,55.82,251.86s-6.9-6.33-6.9-6.33Z" transform="translate(-27 -19)"/><path class="cls-12" d="M58.18,251,73,259.25s-5.53,2.62-6.61,6.17c-6.37,21.06-4.8,18.82-23.63,29.77l2.57-12-14,.67s14-8.62,16.11-12.43,2.81-12.55,4.53-16S58.18,251,58.18,251Z" transform="translate(-27 -19)"/><path class="cls-4" d="M150,297.52s50.09-29.07,63.83-37.52,49.2-26.23,49.2-26.23l-49.84,29.66Z" transform="translate(-27 -19)"/><polygon class="cls-13" points="175.47 35.38 15.12 131.17 120.33 194.13 125.83 197.42 126.49 197.81 290.83 99.62 289.83 98.13 189.04 38.12 180.18 32.75 175.47 35.38"/><polygon class="cls-14" points="155.78 180.33 290.83 99.62 289.83 98.13 239.81 68.36 119.95 180.19 155.78 180.33"/><path class="cls-15" d="M316.83,117.13,151.75,217l6.94,21.39-1.64,23.56L322.47,161.83a9.18,9.18,0,0,0,2.27-2.93,24.06,24.06,0,0,0,2.13-7.77c1-7.83-.07-18-1.22-21.57-2.34-7.15-6.43-10.83-8.82-12.43Z" transform="translate(-27 -19)"/><path class="cls-3" d="M47.49,195.54a34.52,34.52,0,0,0,4-17.92A89.93,89.93,0,0,0,48,157.19L152.83,218.8s10.54,17,8.11,26.94-4.89,13.48-4.89,13.48h-3.22l-5.09-3.11Z" transform="translate(-27 -19)"/><polygon class="cls-5" points="15.12 171.16 24 166.16 22.96 170.62 130.6 234.81 127.44 240.22 17.61 174.55 15.12 171.16"/><path class="cls-16" d="M42.12,190.17l108.56,65c.76.44,2.48,1.72,3.41,1.69.51,0,1-.52,1.39-1.34a17.75,17.75,0,0,0,1.53-5.81c.88-7,0-16-1-19-1.52-4.64-3.31-7.23-6.16-9.37a60.27,60.27,0,0,0-5.15-3.13L42.12,156.76v-6.59L147.19,213a74.13,74.13,0,0,1,6.41,4c3.52,2.7,5.7,5.88,7.65,11.84,1.15,3.57,2.21,13.73,1.21,21.57a23,23,0,0,1-2.12,7.77c-1.37,2.63-3.62,5-6.38,5-1.73,0-4.54-2.26-6.28-3.31L42.12,196.75Z" transform="translate(-27 -19)"/><polygon class="cls-17" points="23.63 149.98 109.72 201.24 64.45 177.54 24.91 153.25 23.63 149.98"/><path class="cls-3" d="M146.35,195.24l-93.8-56.08s-5.66-13.34-3.94-25,6-10,6-10L147,160.14Z" transform="translate(-27 -19)"/><path class="cls-5" d="M50,108.36c2-5.21,4.6-4.16,4.6-4.16l91,55.12-1.37,7.15L50.78,110.3Z" transform="translate(-27 -19)"/><path class="cls-18" d="M62.58,145.15l-8.86-5.28c-1.92-6.42-3.54-17.39-3.07-24.5A25.7,25.7,0,0,1,52,108.2a9.35,9.35,0,0,1,2.61-4l8,4.53-.42.57c-1.82-1.4-.07,1.78-.8,2.08-.57.22-4-2-4.84-.16-2.32,6.21-.79,21,2,26.46.79,1.58,0,2.92.51,3.33.13.12.73.58,1.43,1.1,1.11.82,2.37,1.76,2.75,2Z" transform="translate(-27 -19)"/><path class="cls-5" d="M145.31,151s-6.63,8.39-5,22.49S147,196.38,147,196.38l137.43-83.32s-5.7-9.64-5.26-19.53S283,77.69,283,77.69Z" transform="translate(-27 -19)"/><path class="cls-19" d="M191.71,19.56,50.29,104l5.82-.76L147,157.33,288.54,72.62,203.38,21.91c-4.47-2.9-8.31-3.52-11.67-2.35Z" transform="translate(-27 -19)"/><polygon class="cls-20" points="261.54 53.62 119.95 138.33 119.95 143.97 261.54 59.24 261.54 53.62"/><polygon class="cls-20" points="261.54 89.84 119.95 174.57 119.95 180.19 261.54 95.48 261.54 89.84"/><path class="cls-10" d="M118.3,167.75s20.71,14.83,22.92,17,1.86,1.23,1.86,1.23c13.22-8.41,21.77-14.28,33.89-22L142.15,183.7Z" transform="translate(-27 -19)"/><polygon class="cls-4" points="87.53 146.49 115.66 163.28 168.86 132.93 116.01 165.43 87.53 146.49"/><path class="cls-4" d="M181.87,161.19s43-24.95,54.77-32.2,42.24-22.53,42.24-22.53l-42.79,25.48Z" transform="translate(-27 -19)"/><polygon class="cls-18" points="29.33 116.82 120.68 171.58 119.35 176.24 26.45 119.93 29.33 116.82"/><path class="cls-21" d="M54.78,138.43,147,193.57v5.62L54.07,143.64a4.92,4.92,0,0,1-1.32-.69c-.22-.18-.45-.34-.64-.5l-.18-.09v-.05c-.42-.32-.75-.57-.93-.73-2.67-2.4-5.5-16.41-4.86-26.21a25.2,25.2,0,0,1,1.35-7.17c.88-2.38,2.23-4.14,4.17-4.94a6.75,6.75,0,0,1,5.53.41v0l.31.18a13,13,0,0,1,1.63,1L147,157.33V163l-89.76-53.7v0l-.07.1c-1.79-1.4-3-1.81-3.73-1.49s-1.09,1-1.5,2.1a21.37,21.37,0,0,0-1,5.76c-.56,8.62,1.34,20.5,3.25,22.19.06.07.33.27.68.55Z" transform="translate(-27 -19)"/><polygon class="cls-18" points="119.44 171.99 255.75 90.84 254.53 87.85 261.54 89.84 119.95 174.57 119.44 171.99"/><polygon class="cls-4" points="252.12 73.66 206.55 98.52 252.43 70.87 252.12 73.66"/><path class="cls-4" d="M151.64,170.47s43-25,54.77-32.2,42.23-22.53,42.23-22.53l-42.79,25.48Z" transform="translate(-27 -19)"/><path class="cls-22" d="M171.81,205.09a27.93,27.93,0,0,1,9.35,16.82c1.46,10.58.67,18.57-.57,21.84a18.46,18.46,0,0,1-3.78,6.22l26.5-16a17.9,17.9,0,0,0,4.22-6.67c1.26-3.27,2.06-11.27.6-21.87a28.11,28.11,0,0,0-9.35-16.82l0,0L172,204.74Z" transform="translate(-27 -19)"/><path class="cls-22" d="M225.24,172.75a28,28,0,0,1,9.35,16.82c1.45,10.6.66,18.6-.58,21.87a18.71,18.71,0,0,1-3.78,6.22l26.5-16A18.1,18.1,0,0,0,261,195c1.23-3.29,2-11.28.57-21.87a28,28,0,0,0-9.35-16.81l0,0-26.72,16.16Z" transform="translate(-27 -19)"/><polygon class="cls-23" points="165.39 19.27 140.11 34.49 198.28 69.11 223.57 53.89 165.39 19.27"/><path class="cls-10" d="M122.24,160.12s15.45,11.1,17.11,12.7,1.39.91,1.39.91c9.88-6.28,16.27-10.67,25.31-16.43l-26,14.74Z" transform="translate(-27 -19)"/><polygon class="cls-4" points="92.41 139.45 113.43 151.99 153.17 129.32 113.69 153.59 92.41 139.45"/></svg>