<svg id="Layer_1" data-name="Layer 1" xmlns="http://www.w3.org/2000/svg" xmlns:xlink="http://www.w3.org/1999/xlink" viewBox="0 0 1427.65 288"><defs><style>.cls-1{fill:#ffa600;}.cls-2{fill:#a3a3a3;}.cls-3{fill:#ffbdbd;}.cls-4{fill:url(#linear-gradient);}.cls-11,.cls-5,.cls-8{fill:none;}.cls-5{stroke:gray;}.cls-5,.cls-8{stroke-linecap:round;stroke-linejoin:round;stroke-width:0.25px;}.cls-10,.cls-6{fill:#fff;}.cls-7{fill:url(#linear-gradient-2);}.cls-8{stroke:#404040;}.cls-9{fill:#404040;}.cls-10,.cls-11,.cls-12{isolation:isolate;font-size:300px;font-family:BubblegumSans-Regular, Bubblegum Sans;}.cls-11{stroke:#fff;stroke-miterlimit:10;stroke-width:30px;}.cls-12{fill:#fbb03b;}</style><linearGradient id="linear-gradient" x1="197.29" y1="-719.51" x2="197.29" y2="-512.52" gradientTransform="matrix(1, 0, 0, -1, 0, -453)" gradientUnits="userSpaceOnUse"><stop offset="0.11" stop-color="#b3b3b3"/><stop offset="0.22" stop-color="#cacaca"/><stop offset="0.39" stop-color="#e7e7e7"/><stop offset="0.49" stop-color="#f2f2f2"/></linearGradient><linearGradient id="linear-gradient-2" x1="197.31" y1="-617.59" x2="197.31" y2="-649.43" gradientTransform="matrix(1, 0, 0, -1, 0, -453)" gradientUnits="userSpaceOnUse"><stop offset="0.16" stop-color="#575757"/><stop offset="0.65" stop-color="#262626"/><stop offset="1"/></linearGradient></defs><g id="Layer_2" data-name="Layer 2"><path class="cls-1" d="M115.13,121A50.39,50.39,0,0,1,64.3,71.05v-.91a50.81,50.81,0,0,1,101.61-1.43c0,.48,0,1,0,1.43A50.39,50.39,0,0,1,116,121Z"/><path class="cls-2" d="M115.13,22.32c26.89,0,47.81,20.92,47.81,47.82S142,118,115.13,118,67.3,95.55,67.3,70.14s20.93-47.82,47.83-47.82m0-7.47a53.8,53.8,0,1,0,53.79,53.81h0a53.57,53.57,0,0,0-53.34-53.8Z"/><circle class="cls-3" cx="115.13" cy="70.14" r="31.38"/><path class="cls-1" d="M279.5,121a50.39,50.39,0,0,1-50.8-50v-.83a50.81,50.81,0,1,1,101.61-1.42c0,.47,0,1,0,1.42C330.3,98.53,306.4,121,279.5,121Z"/><path class="cls-2" d="M279.5,22.32c26.9,0,47.82,20.92,47.82,47.82S306.4,118,279.5,118s-47.82-21-47.82-47.86,20.93-47.82,47.82-47.82m0-7.47a53.8,53.8,0,1,0,53.8,53.8h0A53.57,53.57,0,0,0,280,14.85Z"/><circle class="cls-3" cx="279.5" cy="70.14" r="31.38"/><path class="cls-4" d="M197.3,265.9c-16.43,0-44.83-7.47-70.23-23.91-14.94-10.46-41.84-32.87-41.84-67.24C83.74,119.46,127.08,59.68,197.3,59.68s112.08,59.78,112.08,116.56c0,32.88-26.9,56.79-41.84,67.25C242.14,258.43,213.75,265.9,197.3,265.9Z"/><path class="cls-2" d="M197.3,62.67c31.39,0,59.78,12,79.2,35.86,19.43,20.93,29.89,49.32,29.89,77.71,0,12-4.48,23.91-12,35.86-7.47,10.47-16.44,19.43-28.4,28.4-23.91,16.44-52.3,23.91-68.74,23.91s-44.83-7.47-68.74-23.91c-12-7.47-22.41-17.93-28.39-28.4-7.47-11.95-12-23.9-12-35.86,0-28.39,10.46-56.78,29.88-77.71A104.15,104.15,0,0,1,197.3,62.67m0-6c-70.23,0-116.55,59.78-116.55,119.55s77.7,94.14,116.55,94.14S313.87,236,313.87,176.24,267.55,56.69,197.3,56.69Z"/><path class="cls-1" d="M88.23,170.26H304.91c4.48,67.25-74.72,94.15-115.07,92.65C148,259.92,79.3,224.06,88.23,170.26Z"/><path class="cls-5" d="M195.82,192.68a18.15,18.15,0,0,1-17.93,17.93c-10.46,0-17.93-7.47-17.93-17.93"/><path class="cls-5" d="M231.68,192.68a17.93,17.93,0,0,1-35.86,0"/><path class="cls-6" d="M209.3,212.1l-10.46-10.46a4.56,4.56,0,0,0-6,0L182.37,212.1c-1.49,1.5-1.49,1.5-1.49,3h0c0,7.48,7.47,15,14.94,15h1.48c7.48,0,13.45-6,13.45-15h0C210.76,213.6,210.76,212.1,209.3,212.1Z"/><ellipse class="cls-7" cx="197.31" cy="179.23" rx="23.91" ry="14.94"/><line class="cls-8" x1="97.19" y1="240.5" x2="127.08" y2="213.6"/><line class="cls-8" x1="124.09" y1="201.64" x2="86.73" y2="216.59"/><line class="cls-8" x1="80.76" y1="189.69" x2="121.1" y2="189.69"/><line class="cls-8" x1="297.44" y1="240.5" x2="267.55" y2="213.6"/><line class="cls-8" x1="270.54" y1="201.64" x2="307.9" y2="216.59"/><line class="cls-8" x1="312.38" y1="189.69" x2="273.53" y2="189.69"/><path class="cls-9" d="M260.08,146.35l-17.94-4.48,17.94-7.47h0c4.48-3,4.48-7.47,1.49-12a7.24,7.24,0,0,0-10.24-.22c-.07.07-.15.14-.22.22-7.47,4.49-23.91,16.44-29.89,20.92-1.49,1.5-1.49,3,0,3l32.88,15h0c4.48,1.49,9-1.5,10.46-6S263.07,147.85,260.08,146.35Z"/><path class="cls-9" d="M133.06,146.35,151,141.87l-17.93-7.47h0c-4.49-3-4.49-7.47-1.5-12a7.24,7.24,0,0,1,10.24-.22l.22.22c7.48,4.49,23.91,16.44,29.89,20.92,1.49,1.5,1.49,3,0,3l-32.88,15h0c-4.48,1.49-9-1.5-10.46-6S130.07,147.85,133.06,146.35Z"/></g><text class="cls-10" transform="translate(393.61 240.32)">Cheddar</text><text class="cls-11" transform="translate(393.61 240.32)">Cheddar</text><g id="_Layer_" data-name=" Layer "><text class="cls-12" transform="translate(394.06 240.32)">Cheddar</text></g></svg>
