<svg id="Layer_1" data-name="Layer 1" xmlns="http://www.w3.org/2000/svg" xmlns:xlink="http://www.w3.org/1999/xlink" viewBox="0 0 259.3 34.75"><defs><style>.cls-1{fill:#ffa600;}.cls-2{fill:#a3a3a3;}.cls-3{fill:#ffbdbd;}.cls-4{fill:url(#linear-gradient);}.cls-5,.cls-8{fill:none;stroke-linecap:round;stroke-linejoin:round;stroke-width:0.25px;}.cls-5{stroke:gray;}.cls-6{fill:#fff;}.cls-7{fill:url(#linear-gradient-2);}.cls-8{stroke:#404040;}.cls-9{fill:#404040;}</style><linearGradient id="linear-gradient" x1="18.49" y1="521.22" x2="18.49" y2="493.07" gradientTransform="translate(0 -487)" gradientUnits="userSpaceOnUse"><stop offset="0.11" stop-color="#b3b3b3"/><stop offset="0.22" stop-color="#cacaca"/><stop offset="0.39" stop-color="#e7e7e7"/><stop offset="0.49" stop-color="#f2f2f2"/></linearGradient><linearGradient id="linear-gradient-2" x1="18.49" y1="507.36" x2="18.49" y2="511.69" gradientTransform="translate(0 -487)" gradientUnits="userSpaceOnUse"><stop offset="0.16" stop-color="#575757"/><stop offset="0.65" stop-color="#262626"/><stop offset="1"/></linearGradient></defs><path d="M59.14,32.11c-3.87,0-6.91-1.22-9-3.46a12.71,12.71,0,0,1-3-8.74,17.66,17.66,0,0,1,2-8.53,14.92,14.92,0,0,1,3-4.06A14,14,0,0,1,57.1,4.47,18.32,18.32,0,0,1,64,3.25a7.78,7.78,0,0,1,2.24.2c.61.21,1,.21,1,.41a36.55,36.55,0,0,1-.2,4.47c-.2,1.63-.2,2.44-.41,2.64a3.09,3.09,0,0,1-1.62.61,17.1,17.1,0,0,1-2.24.41v-.41a4.58,4.58,0,0,0-.61-2.64,2.54,2.54,0,0,0-1.83-.81c-1.82,0-3.65,1-5.28,3a13.13,13.13,0,0,0-2.44,8.33,9.23,9.23,0,0,0,1.42,5.08,4.49,4.49,0,0,0,2,1.83,8.6,8.6,0,0,0,3.25.81c2.64,0,5.08-1.22,7.52-3.45.2,0,.4.2.61.61a8.29,8.29,0,0,1,1,1.42,8.5,8.5,0,0,1,1,2c0,.2-.41.61-1.22,1.42a12.89,12.89,0,0,1-3.86,2A15.94,15.94,0,0,1,59.14,32.11Z"/><path d="M72.14,23l-.2-14c0-2.64,0-4.06.2-4.06a3.4,3.4,0,0,1,1.63-1.22,8.57,8.57,0,0,1,2-.41c.61,0,1,0,1,.2s0,2-.2,5.29-.2,5.48-.2,6.5v.41c0,.2,0,.2.2.2l.81-.81a13.23,13.23,0,0,1,1.83-1.22A6.6,6.6,0,0,1,81.89,13a6.11,6.11,0,0,1,2,.4,3.7,3.7,0,0,1,1.42,1,3.93,3.93,0,0,1,.81,1.62c.21.82.41,1.43.61,2s.21,1.42.41,2.43c0,1.43.2,3.26.2,5.49l-.2,5.49c0,.2-.61.4-1.42.61a8.62,8.62,0,0,1-2,.2l-1.42-.2c.2-2.44.41-4.88.41-7.11a30.29,30.29,0,0,0-.41-5.09c-.41-1.21-1-1.82-2-1.82a2.48,2.48,0,0,0-1.83.81,4.21,4.21,0,0,0-1.22,1.62l-.41.82v6.09c0,2.24,0,3.26-.2,3.46-.81.81-2.23,1-4.47,1-.2,0-.41,0-.41-.2A62.71,62.71,0,0,0,72.14,23Z"/><path d="M103.64,30.89c-1,.61-2.64,1-5.49,1a7.67,7.67,0,0,1-6.09-2.43,9.13,9.13,0,0,1-2.24-6.3,9.48,9.48,0,0,1,2.64-6.91c1.63-2,4.07-3.05,7.32-3.05a6.9,6.9,0,0,1,3.45,1c1,.61,1.63,1.83,1.63,3.66A8,8,0,0,1,102.62,23a14.87,14.87,0,0,1-6.09,3.86c0,.41.4.61,1,.82a7.31,7.31,0,0,0,2,.4,10.87,10.87,0,0,0,4.88-1h.2v.81A6.75,6.75,0,0,1,103.64,30.89Zm-3.46-13A1.08,1.08,0,0,0,99,16.66a3.8,3.8,0,0,0-2.84,1.63,6.89,6.89,0,0,0-1.22,4.06c0,.41,0,.61.2.61,1,0,2-.61,3.46-1.62A3.79,3.79,0,0,0,100.18,17.88Z"/><path d="M118.07,13.41V7.32c0-1.63,0-2.65.2-2.65a4.31,4.31,0,0,1,1.42-.81,4.38,4.38,0,0,1,2.24-.41c.61,0,1,0,1,.21-.2,4.47-.4,9.35-.4,14.43a85.87,85.87,0,0,0,.2,9.14,4.86,4.86,0,0,0,1.42,3.25c0,.21-.61.61-1.62,1.22a6.1,6.1,0,0,1-2.85.81l-.4-.4a5.22,5.22,0,0,1-1-2.85v-.2h-.2A5.91,5.91,0,0,1,113,31.5a5,5,0,0,1-4.27-2.24,8.24,8.24,0,0,1-1.63-4.87,12.23,12.23,0,0,1,2.85-7.93C111.77,14.22,114.61,13.41,118.07,13.41Zm.2,4.27h-.61a5.31,5.31,0,0,0-4.06,1.63,5.68,5.68,0,0,0-1.43,4.26,4.38,4.38,0,0,0,.61,2.44A2.63,2.63,0,0,0,115,27a2.33,2.33,0,0,0,2.23-1.22,3.29,3.29,0,0,0,.82-2A42.07,42.07,0,0,1,118.27,17.68Z"/><path d="M137.78,13.41V7.32c0-1.63,0-2.65.2-2.65a5.61,5.61,0,0,1,1.63-1,4.32,4.32,0,0,1,2.23-.41c.61,0,1,0,1,.2-.2,4.48-.41,9.35-.41,14.43a82,82,0,0,0,.21,9.15,4.86,4.86,0,0,0,1.42,3.25c0,.2-.61.61-1.63,1.22a6.1,6.1,0,0,1-2.84.81l-.41-.41a5.26,5.26,0,0,1-1-2.84v-.2H138a5.91,5.91,0,0,1-5.08,2.43,5,5,0,0,1-4.27-2.23A8.31,8.31,0,0,1,127,24.18a12.18,12.18,0,0,1,2.84-7.92C131.68,14,134.32,13.41,137.78,13.41Zm0,4.27h-.61a5.35,5.35,0,0,0-4.07,1.63,5.72,5.72,0,0,0-1.42,4.26,4.38,4.38,0,0,0,.61,2.44,2.63,2.63,0,0,0,2.24,1,2.33,2.33,0,0,0,2.23-1.22,3.29,3.29,0,0,0,.82-2C137.78,20.52,137.78,18.7,137.78,17.68Z"/><path d="M161.76,21.74a34.15,34.15,0,0,0,.2,5.9,4.86,4.86,0,0,0,1.42,3.25c0,.2-.61.81-1.62,1.42a5.56,5.56,0,0,1-2.85.81c-.2,0-.4-.4-.81-1a9.64,9.64,0,0,1-.41-1.63v-.61h-.2a7.29,7.29,0,0,1-5.08,1.63,6.27,6.27,0,0,1-4.47-1.42,5.09,5.09,0,0,1-1.63-3.66,7.77,7.77,0,0,1,1-3.86,8.65,8.65,0,0,1,2.23-2.44,6.88,6.88,0,0,1,3.05-1.22,11.81,11.81,0,0,1,3.86-.81h0c0-1.43-1.62-2-5.08-2a12.09,12.09,0,0,0-3,.21h0a4.55,4.55,0,0,1,.61-2,9.93,9.93,0,0,1,.81-1.62,6.06,6.06,0,0,1,2.84-.41c3,0,5.29.61,6.91,1.83a6.9,6.9,0,0,1,2.24,5.49Zm-4.47,2.65V22a7.12,7.12,0,0,0-4.68,1.42,2.81,2.81,0,0,0-1.22,2.23A1.89,1.89,0,0,0,152,27a2.52,2.52,0,0,0,1.83.61,3.9,3.9,0,0,0,2.44-.82A2.76,2.76,0,0,0,157.29,24.39Z"/><path d="M166,25.4V16.26c0-1.63,0-2.44.2-2.64a3.84,3.84,0,0,1,1.62-.82,9.2,9.2,0,0,1,2-.4c.61,0,1,0,1,.2,0,.81-.2,1.62-.2,2.44v1.42h.2a.69.69,0,0,0,.21-.41l.81-.81c.4-.41.81-.61,1.22-1A6.57,6.57,0,0,1,176.8,13a3.15,3.15,0,0,1,.4,1.62,6,6,0,0,1-.61,3.25l-.2.41h-.61a5.41,5.41,0,0,0-4.67,2.44,3.5,3.5,0,0,0-.61,1.42v3.66c0,3.25,0,4.88-.21,5.08-.81.81-2.23,1-4.47,1-.2,0-.4,0-.4-.2C165.82,30.69,166,28.65,166,25.4Z"/><path d="M190.21,32.11,189,31.9V19.1a5.57,5.57,0,0,1-1.42-2,6.13,6.13,0,0,1-.61-2.24,16.77,16.77,0,0,0,2-.2V8.53a14.89,14.89,0,0,1-1.22-2.23,9.06,9.06,0,0,1-.61-2.24c.2-.2,5.08-.4,14-.4,2.24,0,3.46,0,3.46.2a6,6,0,0,1-.41,1.83,12.36,12.36,0,0,1-.81,1.63c-.21.4-.41.61-.61.61h-1.43a35.53,35.53,0,0,0-4.06.2c-1.83.2-2.85.2-3,.4s-.2,1.63-.2,4.48v1.62H200c1.42,0,2,0,2,.2a6.76,6.76,0,0,1-1,3.26,2.93,2.93,0,0,1-.41.61h-.41a27.89,27.89,0,0,0-3.65.2c-1.63.2-2.44.2-2.44.41,0,0-.2,1.82-.2,5.08a24.35,24.35,0,0,0,.61,6.7c0,.41-.61.61-1.63.81A12.12,12.12,0,0,1,190.21,32.11Z"/><path d="M218.45,21.74c0,3.46,0,5.29.21,5.9a4.86,4.86,0,0,0,1.42,3.25c0,.2-.61.81-1.63,1.42a5.52,5.52,0,0,1-2.84.81c-.2,0-.41-.4-.81-1a8.74,8.74,0,0,1-.41-1.63v-.61h-.2a7.3,7.3,0,0,1-5.08,1.63,6.25,6.25,0,0,1-4.47-1.42A5.09,5.09,0,0,1,203,26.42a7.77,7.77,0,0,1,1-3.86,8.65,8.65,0,0,1,2.23-2.44,6.83,6.83,0,0,1,3.05-1.22,11.81,11.81,0,0,1,3.86-.81h0c0-1.43-1.63-2-5.08-2a12.18,12.18,0,0,0-3.05.21h0a4.68,4.68,0,0,1,.61-2,12,12,0,0,1,.81-1.62,6.11,6.11,0,0,1,2.85-.41c3.05,0,5.28.61,6.91,1.83a6.89,6.89,0,0,1,2.23,5.49ZM214,24.39V22a7.09,7.09,0,0,0-4.67,1.42,2.81,2.81,0,0,0-1.22,2.23A1.85,1.85,0,0,0,208.7,27a2.52,2.52,0,0,0,1.83.61,3.94,3.94,0,0,0,2.44-.82A2.75,2.75,0,0,0,214,24.39Z"/><path d="M222.72,25.4V16.26c0-1.63,0-2.44.2-2.64a4,4,0,0,1,1.63-.82,9,9,0,0,1,2-.4c.61,0,1,0,1,.2,0,.81-.2,1.62-.2,2.44v1.42h.2a.7.7,0,0,0,.2-.41l.81-.81c.41-.41.82-.61,1.22-1A6.57,6.57,0,0,1,233.49,13a3,3,0,0,1,.41,1.62,6,6,0,0,1-.61,3.25l-.2.41h-.61a5.43,5.43,0,0,0-4.68,2.44,3.65,3.65,0,0,0-.61,1.42v3.66c0,3.25,0,4.88-.2,5.08-.81.81-2.24,1-4.47,1-.2,0-.41,0-.41-.2C222.52,30.69,222.72,28.65,222.72,25.4Z"/><path d="M236.13,25.81l-.2-9.55c0-1.83,0-2.64.2-2.85a9.09,9.09,0,0,1,1.43-.81,7.33,7.33,0,0,1,2-.41c.61,0,1,0,1,.21a14.79,14.79,0,0,0-.2,2.64v1a.2.2,0,0,0,.2-.2l.61-.61a8.3,8.3,0,0,1,1.63-1,4.58,4.58,0,0,1,2-.6,4.48,4.48,0,0,1,4.07,2.43c1.62-2.23,3.25-3.25,5.08-3.25A4,4,0,0,1,257.67,15a14.77,14.77,0,0,1,1.43,4.87c.2,2.24.2,4.68.2,7.32l-.2,4.67c0,.21-.41.41-1.43.61a8.78,8.78,0,0,1-2.23.21l-1.22-.21c.2-2.64.41-4.87.41-6.5V22.35a8.75,8.75,0,0,0-.41-2.23,3.12,3.12,0,0,0-.81-1.63,1.52,1.52,0,0,0-1.22-.4,2.94,2.94,0,0,0-1.42.4c-.41.21-.61.61-.82.82a.73.73,0,0,0-.2.6c0,.82.2,2.85.2,6.1l-.2,3.25c0,.21-.41.41-1.22.61a8.15,8.15,0,0,1-2,.21l-1.22-.21c.2-2.23.4-4.27.4-6.09a10.94,10.94,0,0,0-.4-4.07,1.55,1.55,0,0,0-1.63-1.22,2.81,2.81,0,0,0-2.23,1.22,3.79,3.79,0,0,0-.82,2v4.88c0,2.64,0,4.07-.2,4.27-.61.61-2,1-4.27,1-.2,0-.4,0-.4-.2C236.13,30.69,236.13,28.65,236.13,25.81Z"/><g id="Layer_2" data-name="Layer 2"><path class="cls-1" d="M7.32,14.43A6.85,6.85,0,0,1,.41,7.52,6.85,6.85,0,0,1,7.32.61a6.85,6.85,0,0,1,6.9,6.91A6.85,6.85,0,0,1,7.32,14.43Z"/><path class="cls-2" d="M7.32,1a6.42,6.42,0,0,1,6.5,6.5A6.42,6.42,0,0,1,7.32,14,6.55,6.55,0,0,1,.81,7.52,6.55,6.55,0,0,1,7.32,1m0-1a7.32,7.32,0,1,0,7.31,7.32A7.29,7.29,0,0,0,7.32,0Z"/><circle class="cls-3" cx="7.32" cy="7.52" r="4.27"/><path class="cls-1" d="M29.67,14.43a6.85,6.85,0,0,1-6.91-6.91,6.91,6.91,0,1,1,13.82,0A7,7,0,0,1,29.67,14.43Z"/><path class="cls-2" d="M29.67,1a6.41,6.41,0,0,1,6.5,6.5,6.5,6.5,0,0,1-13,0A6.41,6.41,0,0,1,29.67,1m0-1A7.32,7.32,0,1,0,37,7.32,7.29,7.29,0,0,0,29.67,0Z"/><circle class="cls-3" cx="29.67" cy="7.52" r="4.27"/><path class="cls-4" d="M18.49,34.14a19.73,19.73,0,0,1-9.55-3.25c-2-1.42-5.69-4.47-5.69-9.15A15.27,15.27,0,0,1,18.49,6.1C28,6.1,33.73,14.22,33.73,22c0,4.47-3.65,7.72-5.69,9.14A21.33,21.33,0,0,1,18.49,34.14Z"/><path class="cls-2" d="M18.49,6.5a13.51,13.51,0,0,1,10.77,4.88A15.64,15.64,0,0,1,33.33,22a9.25,9.25,0,0,1-1.63,4.87,17,17,0,0,1-3.86,3.87,18.45,18.45,0,0,1-9.35,3.25,18.51,18.51,0,0,1-9.35-3.25,11.78,11.78,0,0,1-3.86-3.87A9.32,9.32,0,0,1,3.66,22,15.63,15.63,0,0,1,7.72,11.38,14.15,14.15,0,0,1,18.49,6.5m0-.81C8.94,5.69,2.64,13.82,2.64,22s10.57,12.8,15.85,12.8S34.34,30.08,34.34,22,28,5.69,18.49,5.69Z"/><path class="cls-1" d="M3.66,21.13H33.12c.61,9.15-10.16,12.81-15.64,12.6C11.79,33.33,2.44,28.45,3.66,21.13Z"/><path class="cls-5" d="M18.29,24.18a2.47,2.47,0,0,1-2.44,2.44,2.35,2.35,0,0,1-2.44-2.44"/><path class="cls-5" d="M23.17,24.18a2.44,2.44,0,0,1-4.88,0"/><path class="cls-6" d="M20.12,26.82,18.7,25.4a.64.64,0,0,0-.82,0l-1.42,1.42c-.2.21-.2.21-.2.41h0a2.17,2.17,0,0,0,2,2h.2a1.87,1.87,0,0,0,1.83-2h0C20.32,27,20.32,26.82,20.12,26.82Z"/><ellipse class="cls-7" cx="18.49" cy="22.35" rx="3.25" ry="2.03"/><line class="cls-8" x1="4.88" y1="30.69" x2="8.94" y2="27.03"/><line class="cls-8" x1="8.53" y1="25.4" x2="3.45" y2="27.43"/><line class="cls-8" x1="2.64" y1="23.78" x2="8.13" y2="23.78"/><line class="cls-8" x1="32.11" y1="30.69" x2="28.04" y2="27.03"/><line class="cls-8" x1="28.45" y1="25.4" x2="33.53" y2="27.43"/><line class="cls-8" x1="34.14" y1="23.78" x2="28.86" y2="23.78"/><path class="cls-9" d="M27,17.88l-2.44-.61,2.44-1h0a1.06,1.06,0,0,0,.2-1.63,1,1,0,0,0-1.42,0c-1,.61-3.25,2.24-4.07,2.85-.2.2-.2.4,0,.4l4.47,2h0a1.16,1.16,0,0,0,1.43-.81A1,1,0,0,0,27,17.88Z"/><path class="cls-9" d="M9.75,17.88l2.44-.61-2.44-1h0a1.06,1.06,0,0,1-.2-1.63,1,1,0,0,1,1.42,0c1,.61,3.25,2.24,4.07,2.85.2.2.2.4,0,.4l-4.47,2h0a1.16,1.16,0,0,1-1.43-.81A1,1,0,0,1,9.75,17.88Z"/></g></svg>