<svg id="Layer_1" data-name="Layer 1" xmlns="http://www.w3.org/2000/svg" xmlns:xlink="http://www.w3.org/1999/xlink" viewBox="0 0 1366 288"><defs><style>.cls-1{fill:#ffa600;}.cls-2{fill:#a3a3a3;}.cls-3{fill:#ffbdbd;}.cls-4{fill:url(#linear-gradient);}.cls-5,.cls-8{fill:none;stroke-linecap:round;stroke-linejoin:round;stroke-width:0.25px;}.cls-5{stroke:gray;}.cls-10,.cls-6{fill:#fff;}.cls-7{fill:url(#linear-gradient-2);}.cls-8{stroke:#404040;}.cls-9{fill:#404040;}.cls-10,.cls-11{font-size:300px;font-family:BubblegumSans-Regular, Bubblegum Sans;}.cls-10{stroke:#fff;stroke-miterlimit:10;stroke-width:30px;}.cls-11{fill:#fbb03b;}</style><linearGradient id="linear-gradient" x1="166" y1="1009.51" x2="166" y2="802.52" gradientTransform="translate(0 -743)" gradientUnits="userSpaceOnUse"><stop offset="0.11" stop-color="#b3b3b3"/><stop offset="0.22" stop-color="#cacaca"/><stop offset="0.39" stop-color="#e7e7e7"/><stop offset="0.49" stop-color="#f2f2f2"/></linearGradient><linearGradient id="linear-gradient-2" x1="166.01" y1="907.59" x2="166.01" y2="939.43" gradientTransform="translate(0 -743)" gradientUnits="userSpaceOnUse"><stop offset="0.16" stop-color="#575757"/><stop offset="0.65" stop-color="#262626"/><stop offset="1"/></linearGradient></defs><g id="Layer_2" data-name="Layer 2"><path class="cls-1" d="M83.83,121A50.39,50.39,0,0,1,33,70.14a50.81,50.81,0,1,1,101.61,0A50.39,50.39,0,0,1,83.83,121Z"/><path class="cls-2" d="M83.83,22.32c26.89,0,47.81,20.92,47.81,47.82S110.72,118,83.83,118,36,95.55,36,70.14,56.93,22.32,83.83,22.32m0-7.47a53.8,53.8,0,1,0,53.79,53.8,53.57,53.57,0,0,0-53.79-53.8Z"/><circle class="cls-3" cx="83.83" cy="70.14" r="31.38"/><path class="cls-1" d="M248.2,121a50.39,50.39,0,0,1-50.8-50.81,50.81,50.81,0,1,1,101.61,0C299,98.53,275.1,121,248.2,121Z"/><path class="cls-2" d="M248.2,22.32c26.9,0,47.82,20.92,47.82,47.82S275.1,118,248.2,118,200.38,97,200.38,70.14s20.93-47.82,47.82-47.82m0-7.47A53.8,53.8,0,1,0,302,68.65a53.57,53.57,0,0,0-53.8-53.8Z"/><circle class="cls-3" cx="248.2" cy="70.14" r="31.38"/><path class="cls-4" d="M166,265.9c-16.43,0-44.83-7.47-70.23-23.91-14.94-10.46-41.84-32.87-41.84-67.24C52.44,119.46,95.78,59.68,166,59.68s112.08,59.78,112.08,116.56c0,32.88-26.9,56.79-41.84,67.25C210.84,258.43,182.45,265.9,166,265.9Z"/><path class="cls-2" d="M166,62.67c31.39,0,59.78,12,79.2,35.86,19.43,20.93,29.89,49.32,29.89,77.71,0,12-4.48,23.91-12,35.86-7.47,10.47-16.44,19.43-28.4,28.4-23.91,16.44-52.3,23.91-68.74,23.91s-44.83-7.47-68.74-23.91c-12-7.47-22.41-17.93-28.39-28.4-7.47-11.95-11.95-23.9-11.95-35.86,0-28.39,10.46-56.78,29.88-77.71A104.15,104.15,0,0,1,166,62.67m0-6c-70.23,0-116.55,59.78-116.55,119.55s77.7,94.14,116.55,94.14S282.57,236,282.57,176.24,236.25,56.69,166,56.69Z"/><path class="cls-1" d="M56.93,170.26H273.61c4.48,67.25-74.72,94.15-115.07,92.65C116.7,259.92,48,224.06,56.93,170.26Z"/><path class="cls-5" d="M164.52,192.68c0,9-7.47,17.93-17.93,17.93s-17.93-7.47-17.93-17.93"/><path class="cls-5" d="M200.38,192.68c0,9-7.47,17.93-17.93,17.93-9,0-17.93-7.47-17.93-17.93"/><path class="cls-6" d="M178,212.1l-10.46-10.46a4.56,4.56,0,0,0-6,0L151.07,212.1c-1.49,1.5-1.49,1.5-1.49,3h0c0,7.48,7.47,14.95,14.94,14.95H166c7.48,0,13.45-6,13.45-14.95h0C179.46,213.6,179.46,212.1,178,212.1Z"/><ellipse class="cls-7" cx="166.01" cy="179.23" rx="23.91" ry="14.94"/><line class="cls-8" x1="65.89" y1="240.5" x2="95.78" y2="213.6"/><line class="cls-8" x1="92.79" y1="201.64" x2="55.43" y2="216.59"/><line class="cls-8" x1="49.46" y1="189.69" x2="89.8" y2="189.69"/><line class="cls-8" x1="266.14" y1="240.5" x2="236.25" y2="213.6"/><line class="cls-8" x1="239.24" y1="201.64" x2="276.6" y2="216.59"/><line class="cls-8" x1="281.08" y1="189.69" x2="242.23" y2="189.69"/><path class="cls-9" d="M228.78,146.35l-17.94-4.48,17.94-7.47h0c4.48-3,4.48-7.47,1.49-12a7.24,7.24,0,0,0-10.46,0c-7.47,4.49-23.91,16.44-29.89,20.92-1.49,1.5-1.49,3,0,3l32.88,15h0c4.48,1.49,9-1.5,10.46-6S231.77,147.85,228.78,146.35Z"/><path class="cls-9" d="M101.76,146.35l17.93-4.48-17.93-7.47h0c-4.49-3-4.49-7.47-1.5-12a7.24,7.24,0,0,1,10.46,0c7.48,4.49,23.91,16.44,29.89,20.92,1.49,1.5,1.49,3,0,3l-32.88,15h0c-4.48,1.49-9-1.5-10.46-6S98.77,147.85,101.76,146.35Z"/></g><text class="cls-10" transform="translate(362.31 240.32)">Cheddar</text><g id="_Layer_" data-name="&lt;Layer&gt;"><text class="cls-11" transform="translate(362.76 240.32)">Cheddar</text></g></svg>
