<?xml version="1.0" encoding="utf-8"?>
<!-- Generator: Adobe Illustrator 25.2.1, SVG Export Plug-In . SVG Version: 6.00 Build 0)  -->
<svg version="1.1" id="Layer_1" xmlns="http://www.w3.org/2000/svg" xmlns:xlink="http://www.w3.org/1999/xlink" x="0px" y="0px"
	 width="156px" height="25px" viewBox="0 0 156 25" enable-background="new 0 0 156 25" xml:space="preserve">
<g>
	<path d="M36.8,19.8c-1.9,0-3.4-0.6-4.4-1.7s-1.5-2.6-1.5-4.3c0-1.5,0.3-2.9,1-4.2c0.4-0.8,0.9-1.4,1.5-2c0.6-0.6,1.4-1,2.4-1.4
		c1-0.4,2.1-0.6,3.4-0.6c0.4,0,0.8,0,1.1,0.1c0.3,0.1,0.5,0.1,0.5,0.2c0,0.6,0,1.4-0.1,2.2c-0.1,0.8-0.1,1.2-0.2,1.3
		c-0.1,0.1-0.3,0.2-0.8,0.3c-0.5,0.1-0.9,0.2-1.1,0.2V9.7c0-0.6-0.1-1-0.3-1.3c-0.2-0.2-0.5-0.4-0.9-0.4c-0.9,0-1.8,0.5-2.6,1.5
		c-0.8,1-1.2,2.4-1.2,4.1c0,0.9,0.2,1.7,0.7,2.5c0.2,0.4,0.6,0.7,1,0.9c0.5,0.2,1,0.4,1.6,0.4c1.3,0,2.5-0.6,3.7-1.7
		c0.1,0,0.2,0.1,0.3,0.3c0.2,0.2,0.3,0.4,0.5,0.7c0.3,0.5,0.5,0.9,0.5,1s-0.2,0.3-0.6,0.7c-0.4,0.3-1,0.7-1.9,1S37.7,19.8,36.8,19.8
		z"/>
	<path d="M43.2,15.3l-0.1-6.9c0-1.3,0-2,0.1-2C43.4,6.1,43.6,6,44,5.8c0.4-0.1,0.7-0.2,1-0.2c0.3,0,0.5,0,0.5,0.1c0,0.1,0,1-0.1,2.6
		s-0.1,2.7-0.1,3.2v0.2c0,0.1,0,0.1,0.1,0.1l0.4-0.4c0.1-0.1,0.4-0.3,0.9-0.6c0.4-0.2,0.9-0.4,1.3-0.4s0.7,0.1,1,0.2
		c0.3,0.1,0.5,0.3,0.7,0.5c0.2,0.2,0.3,0.5,0.4,0.8c0.1,0.4,0.2,0.7,0.3,1c0.1,0.3,0.1,0.7,0.2,1.2c0,0.7,0.1,1.6,0.1,2.7l-0.1,2.7
		c0,0.1-0.3,0.2-0.7,0.3s-0.8,0.1-1,0.1l-0.7-0.1c0.1-1.2,0.2-2.4,0.2-3.5s-0.1-1.9-0.2-2.5c-0.2-0.6-0.5-0.9-1-0.9
		c-0.3,0-0.6,0.1-0.9,0.4c-0.3,0.3-0.5,0.5-0.6,0.8l-0.2,0.4c0,0.9,0,1.9,0,3c0,1.1,0,1.6-0.1,1.7c-0.4,0.4-1.1,0.5-2.2,0.5
		c-0.1,0-0.2,0-0.2-0.1C43.1,19,43.2,17.6,43.2,15.3z"/>
	<path d="M58.7,19.2c-0.5,0.3-1.3,0.5-2.7,0.5c-1.3,0-2.3-0.4-3-1.2c-0.7-0.8-1.1-1.8-1.1-3.1s0.4-2.5,1.3-3.4c0.8-1,2-1.5,3.6-1.5
		c0.6,0,1.2,0.2,1.7,0.5c0.5,0.3,0.8,0.9,0.8,1.8c0,0.8-0.4,1.7-1.1,2.5c-0.7,0.8-1.7,1.4-3,1.9c0,0.2,0.2,0.3,0.5,0.4
		c0.3,0.1,0.7,0.2,1,0.2c1,0,1.8-0.2,2.4-0.5c0,0,0,0,0.1,0c0,0,0,0.1,0,0.4C59.2,18.1,59,18.7,58.7,19.2z M57,12.8
		c0-0.4-0.2-0.6-0.6-0.6c-0.5,0-1,0.3-1.4,0.8c-0.4,0.6-0.6,1.2-0.6,2c0,0.2,0,0.3,0.1,0.3c0.5,0,1-0.3,1.7-0.8S57,13.4,57,12.8z"/>
	<path d="M65.8,10.6l0-3c0-0.8,0-1.3,0.1-1.3C66,6.2,66.3,6,66.6,5.9c0.4-0.2,0.7-0.2,1.1-0.2c0.3,0,0.5,0,0.5,0.1
		c-0.1,2.2-0.2,4.6-0.2,7.1s0,4,0.1,4.5c0.1,0.7,0.3,1.3,0.7,1.6c0,0.1-0.3,0.3-0.8,0.6c-0.6,0.3-1,0.4-1.4,0.4c0,0-0.1-0.1-0.2-0.2
		c-0.3-0.3-0.4-0.8-0.5-1.4c0,0,0-0.1,0-0.1l-0.1,0c-0.6,0.8-1.4,1.2-2.5,1.2c-0.9,0-1.6-0.4-2.1-1.1c-0.5-0.7-0.8-1.5-0.8-2.4
		c0-1.5,0.5-2.8,1.4-3.9S64.1,10.6,65.8,10.6z M65.9,12.7c0,0-0.1,0-0.2,0h-0.1c-0.9,0-1.5,0.3-2,0.8c-0.5,0.5-0.7,1.2-0.7,2.1
		c0,0.5,0.1,0.9,0.3,1.2s0.6,0.5,1.1,0.5c0.5,0,0.9-0.2,1.1-0.6c0.3-0.4,0.4-0.7,0.4-1C65.8,14.1,65.8,13.2,65.9,12.7z"/>
	<path d="M75.5,10.6l0-3c0-0.8,0-1.3,0.1-1.3c0.2-0.2,0.4-0.3,0.8-0.5c0.4-0.2,0.7-0.2,1.1-0.2c0.3,0,0.5,0,0.5,0.1
		c-0.1,2.2-0.2,4.6-0.2,7.1s0,4,0.1,4.5c0.1,0.7,0.3,1.3,0.7,1.6c0,0.1-0.3,0.3-0.8,0.6c-0.6,0.3-1,0.4-1.4,0.4c0,0-0.1-0.1-0.2-0.2
		c-0.3-0.3-0.4-0.8-0.5-1.4c0,0,0-0.1,0-0.1l-0.1,0c-0.6,0.8-1.4,1.2-2.5,1.2c-0.9,0-1.6-0.4-2.1-1.1c-0.5-0.7-0.8-1.5-0.8-2.4
		c0-1.5,0.5-2.8,1.4-3.9S73.8,10.6,75.5,10.6z M75.5,12.7c0,0-0.1,0-0.2,0h-0.1c-0.9,0-1.5,0.3-2,0.8c-0.5,0.5-0.7,1.2-0.7,2.1
		c0,0.5,0.1,0.9,0.3,1.2s0.6,0.5,1.1,0.5c0.5,0,0.9-0.2,1.1-0.6c0.3-0.4,0.4-0.7,0.4-1C75.5,14.1,75.5,13.2,75.5,12.7z"/>
	<path d="M87.3,14.7c0,1.7,0,2.6,0.1,2.9c0.1,0.7,0.3,1.3,0.7,1.6c0,0.1-0.3,0.4-0.8,0.7c-0.5,0.3-1,0.4-1.4,0.4
		c-0.1,0-0.2-0.2-0.4-0.5c-0.1-0.4-0.2-0.6-0.2-0.8c0-0.2,0-0.3,0-0.3l-0.1,0c-0.7,0.6-1.5,0.8-2.5,0.8c-0.9,0-1.7-0.2-2.2-0.7
		c-0.5-0.5-0.8-1.1-0.8-1.8c0-0.7,0.2-1.4,0.5-1.9c0.3-0.5,0.7-0.9,1.1-1.2c0.4-0.3,0.9-0.5,1.5-0.6c0.8-0.3,1.5-0.4,1.9-0.4l0,0
		c0-0.7-0.8-1-2.5-1c-0.7,0-1.1,0-1.5,0.1h0c0-0.3,0.1-0.6,0.3-1c0.2-0.4,0.3-0.7,0.4-0.8c0.1-0.1,0.6-0.2,1.4-0.2
		c1.5,0,2.6,0.3,3.4,0.9c0.7,0.6,1.1,1.5,1.1,2.7V14.7z M85.1,16v-0.8c0-0.3,0-0.4,0-0.4c-0.9,0-1.7,0.2-2.3,0.7
		c-0.4,0.3-0.6,0.7-0.6,1.1c0,0.3,0.1,0.5,0.3,0.7s0.5,0.3,0.9,0.3c0.4,0,0.8-0.1,1.2-0.4C84.9,17,85.1,16.6,85.1,16z"/>
	<path d="M89.4,16.5l0-4.5c0-0.8,0-1.2,0.1-1.3c0.1-0.1,0.4-0.3,0.8-0.4c0.4-0.1,0.7-0.2,1-0.2s0.5,0,0.5,0.1c0,0.4-0.1,0.8-0.1,1.2
		s0,0.7,0,0.7s0.1,0,0.1,0s0.1-0.1,0.1-0.2c0.1-0.1,0.2-0.2,0.4-0.4c0.2-0.2,0.4-0.3,0.6-0.5c0.6-0.4,1.2-0.6,1.8-0.6
		c0.1,0.2,0.2,0.4,0.2,0.8c0,0.8-0.1,1.3-0.3,1.6l-0.1,0.2l-0.3,0c-1,0-1.7,0.4-2.3,1.2c-0.2,0.3-0.3,0.6-0.3,0.7v1.8
		c0,1.6,0,2.4-0.1,2.5c-0.4,0.4-1.1,0.5-2.2,0.5c-0.1,0-0.2,0-0.2-0.1C89.3,19.1,89.4,18.1,89.4,16.5z"/>
	<path d="M101.3,19.8l-0.6-0.1c0-0.1,0-1,0-2.7s0-2.9,0-3.6c-0.2-0.2-0.5-0.5-0.7-1s-0.3-0.8-0.3-1.1c0,0,0.3,0,1-0.1
		c0-0.6,0-1.2,0-1.9s0-1.1,0-1.1c-0.1-0.1-0.3-0.5-0.6-1.1c-0.2-0.6-0.3-0.9-0.3-1.1c0.1-0.1,2.5-0.2,6.9-0.2c1.1,0,1.7,0,1.7,0.1
		c0,0.3-0.1,0.6-0.2,0.9c-0.1,0.3-0.3,0.6-0.4,0.8c-0.1,0.2-0.2,0.3-0.3,0.3c0,0-0.3,0-0.7,0s-1.1,0-2,0.1s-1.4,0.1-1.5,0.2
		c-0.1,0.1-0.1,0.8-0.1,2.2l0,0.8c1.3,0,2.2,0,2.9,0c0.7,0,1,0,1,0.1c0,0.5-0.2,1.1-0.5,1.6c-0.1,0.2-0.2,0.3-0.2,0.3h-0.2
		c-0.4,0-1,0-1.8,0.1c-0.8,0.1-1.2,0.1-1.2,0.2c0,0-0.1,0.9-0.1,2.5c0,1.6,0.1,2.7,0.3,3.3c0,0.2-0.3,0.3-0.8,0.4
		C102.1,19.8,101.7,19.8,101.3,19.8z"/>
	<path d="M115.2,14.7c0,1.7,0,2.6,0.1,2.9c0.1,0.7,0.3,1.3,0.7,1.6c0,0.1-0.3,0.4-0.8,0.7c-0.5,0.3-1,0.4-1.4,0.4
		c-0.1,0-0.2-0.2-0.4-0.5c-0.1-0.4-0.2-0.6-0.2-0.8c0-0.2,0-0.3,0-0.3l-0.1,0c-0.7,0.6-1.5,0.8-2.5,0.8c-0.9,0-1.7-0.2-2.2-0.7
		c-0.5-0.5-0.8-1.1-0.8-1.8c0-0.7,0.2-1.4,0.5-1.9c0.3-0.5,0.7-0.9,1.1-1.2c0.4-0.3,0.9-0.5,1.5-0.6c0.8-0.3,1.5-0.4,1.9-0.4l0,0
		c0-0.7-0.8-1-2.5-1c-0.7,0-1.1,0-1.5,0.1h0c0-0.3,0.1-0.6,0.3-1c0.2-0.4,0.3-0.7,0.4-0.8c0.1-0.1,0.6-0.2,1.4-0.2
		c1.5,0,2.6,0.3,3.4,0.9c0.7,0.6,1.1,1.5,1.1,2.7V14.7z M113,16v-0.8c0-0.3,0-0.4,0-0.4c-0.9,0-1.7,0.2-2.3,0.7
		c-0.4,0.3-0.6,0.7-0.6,1.1c0,0.3,0.1,0.5,0.3,0.7s0.5,0.3,0.9,0.3c0.4,0,0.8-0.1,1.2-0.4C112.8,17,113,16.6,113,16z"/>
	<path d="M117.3,16.5l0-4.5c0-0.8,0-1.2,0.1-1.3c0.1-0.1,0.4-0.3,0.8-0.4c0.4-0.1,0.7-0.2,1-0.2s0.5,0,0.5,0.1
		c0,0.4-0.1,0.8-0.1,1.2s0,0.7,0,0.7s0.1,0,0.1,0s0.1-0.1,0.1-0.2c0.1-0.1,0.2-0.2,0.4-0.4c0.2-0.2,0.4-0.3,0.6-0.5
		c0.6-0.4,1.2-0.6,1.8-0.6c0.1,0.2,0.2,0.4,0.2,0.8c0,0.8-0.1,1.3-0.3,1.6l-0.1,0.2l-0.3,0c-1,0-1.7,0.4-2.3,1.2
		c-0.2,0.3-0.3,0.6-0.3,0.7v1.8c0,1.6,0,2.4-0.1,2.5c-0.4,0.4-1.1,0.5-2.2,0.5c-0.1,0-0.2,0-0.2-0.1
		C117.2,19.1,117.3,18.1,117.3,16.5z"/>
	<path d="M123.9,16.7l-0.1-4.7c0-0.9,0-1.3,0.1-1.4c0.2-0.1,0.4-0.3,0.7-0.4c0.3-0.1,0.7-0.2,1-0.2s0.5,0,0.5,0.1
		c-0.1,0.6-0.1,1-0.1,1.3c0,0.3,0,0.5,0,0.5s0.1,0,0.1-0.1c0.1-0.1,0.2-0.2,0.3-0.3c0.1-0.1,0.4-0.3,0.8-0.5c0.4-0.2,0.7-0.3,1-0.3
		c0.9,0,1.5,0.4,2,1.2c0.8-1.1,1.6-1.6,2.5-1.6c0.8,0,1.4,0.4,1.8,1.1c0.4,0.8,0.6,1.6,0.7,2.4c0.1,1.1,0.1,2.3,0.1,3.6l-0.1,2.3
		c0,0.1-0.2,0.2-0.7,0.3c-0.4,0.1-0.8,0.1-1.1,0.1l-0.6-0.1c0.1-1.3,0.2-2.4,0.2-3.2c0-0.8,0-1.4,0-1.8c0-0.4-0.1-0.7-0.2-1.1
		s-0.2-0.6-0.4-0.8c-0.2-0.2-0.4-0.2-0.6-0.2c-0.3,0-0.5,0.1-0.7,0.2c-0.2,0.1-0.3,0.3-0.4,0.4c-0.1,0.1-0.1,0.2-0.1,0.3
		c0,0.4,0.1,1.4,0.1,3l-0.1,1.6c0,0.1-0.2,0.2-0.6,0.3s-0.8,0.1-1,0.1l-0.6-0.1c0.1-1.1,0.2-2.1,0.2-3c0-0.9,0-1.6-0.2-2
		c-0.1-0.4-0.4-0.6-0.8-0.6s-0.8,0.2-1.1,0.6s-0.4,0.8-0.4,1V15l0,2.1c0,1.3,0,2-0.1,2.1c-0.3,0.3-1,0.5-2.1,0.5
		c-0.1,0-0.2,0-0.2-0.1C123.9,19.1,123.9,18.1,123.9,16.7z"/>
</g>
<g id="Layer_2_1_">
	<g>
		<g>
			<path fill="#FFA600" d="M11.3,11.1c-1.9,0-3.4-1.5-3.4-3.4s1.5-3.4,3.4-3.4s3.4,1.5,3.4,3.4S13.2,11.1,11.3,11.1z"/>
			<path fill="#A3A3A3" d="M11.3,4.5c1.8,0,3.2,1.4,3.2,3.2s-1.4,3.2-3.2,3.2S8.1,9.4,8.1,7.7S9.5,4.5,11.3,4.5 M11.3,4
				c-2,0-3.6,1.6-3.6,3.6s1.6,3.6,3.6,3.6s3.6-1.6,3.6-3.6S13.3,4,11.3,4L11.3,4z"/>
		</g>
		<circle fill="#FFBDBD" cx="11.3" cy="7.7" r="2.1"/>
	</g>
	<g>
		<g>
			<path fill="#FFA600" d="M22.3,11.1c-1.9,0-3.4-1.5-3.4-3.4s1.5-3.4,3.4-3.4c1.9,0,3.4,1.5,3.4,3.4S24.1,11.1,22.3,11.1z"/>
			<path fill="#A3A3A3" d="M22.3,4.5c1.8,0,3.2,1.4,3.2,3.2s-1.4,3.2-3.2,3.2s-3.2-1.4-3.2-3.2S20.5,4.5,22.3,4.5 M22.3,4
				c-2,0-3.6,1.6-3.6,3.6s1.6,3.6,3.6,3.6s3.6-1.6,3.6-3.6S24.3,4,22.3,4L22.3,4z"/>
		</g>
		<circle fill="#FFBDBD" cx="22.3" cy="7.7" r="2.1"/>
	</g>
	<g>
		
			<linearGradient id="SVGID_1_" gradientUnits="userSpaceOnUse" x1="16.7613" y1="4.1594" x2="16.7613" y2="18.0107" gradientTransform="matrix(1 0 0 -1 0 25)">
			<stop  offset="0.1101" style="stop-color:#B3B3B3"/>
			<stop  offset="0.2228" style="stop-color:#CACACA"/>
			<stop  offset="0.3923" style="stop-color:#E7E7E7"/>
			<stop  offset="0.4892" style="stop-color:#F2F2F2"/>
		</linearGradient>
		<path fill="url(#SVGID_1_)" d="M16.8,20.8c-1.1,0-3-0.5-4.7-1.6c-1-0.7-2.8-2.2-2.8-4.5C9.2,11,12.1,7,16.8,7s7.5,4,7.5,7.8
			c0,2.2-1.8,3.8-2.8,4.5C19.8,20.3,17.9,20.8,16.8,20.8z"/>
		<path fill="#A3A3A3" d="M16.8,7.2c2.1,0,4,0.8,5.3,2.4c1.3,1.4,2,3.3,2,5.2c0,0.8-0.3,1.6-0.8,2.4c-0.5,0.7-1.1,1.3-1.9,1.9
			c-1.6,1.1-3.5,1.6-4.6,1.6s-3-0.5-4.6-1.6c-0.8-0.5-1.5-1.2-1.9-1.9c-0.5-0.8-0.8-1.6-0.8-2.4c0-1.9,0.7-3.8,2-5.2
			C12.8,8.1,14.7,7.2,16.8,7.2 M16.8,6.8c-4.7,0-7.8,4-7.8,8s5.2,6.3,7.8,6.3s7.8-2.3,7.8-6.3S21.5,6.8,16.8,6.8L16.8,6.8z"/>
	</g>
	<g>
		<path fill="#FFA600" d="M9.5,14.4h14.5c0.3,4.5-5,6.3-7.7,6.2C13.5,20.4,8.9,18,9.5,14.4z"/>
	</g>
	
		<path fill="none" stroke="#808080" stroke-width="0.25" stroke-linecap="round" stroke-linejoin="round" stroke-miterlimit="10" d="
		M16.7,15.9c0,0.6-0.5,1.2-1.2,1.2s-1.2-0.5-1.2-1.2"/>
	
		<path fill="none" stroke="#808080" stroke-width="0.25" stroke-linecap="round" stroke-linejoin="round" stroke-miterlimit="10" d="
		M19.1,15.9c0,0.6-0.5,1.2-1.2,1.2c-0.6,0-1.2-0.5-1.2-1.2"/>
	<path fill="#FFFFFF" d="M17.6,17.2l-0.7-0.7c-0.1-0.1-0.3-0.1-0.4,0l-0.7,0.7c-0.1,0.1-0.1,0.1-0.1,0.2v0c0,0.5,0.5,1,1,1h0.1
		c0.5,0,0.9-0.4,0.9-1v0C17.7,17.3,17.7,17.2,17.6,17.2z"/>
	
		<linearGradient id="SVGID_2_" gradientUnits="userSpaceOnUse" x1="16.7613" y1="10.9799" x2="16.7613" y2="8.8488" gradientTransform="matrix(1 0 0 -1 0 25)">
		<stop  offset="0.1628" style="stop-color:#575757"/>
		<stop  offset="0.6453" style="stop-color:#262626"/>
		<stop  offset="1" style="stop-color:#000000"/>
	</linearGradient>
	<ellipse fill="url(#SVGID_2_)" cx="16.8" cy="15" rx="1.6" ry="1"/>
	<g>
		<g>
			
				<line fill="none" stroke="#404040" stroke-width="0.25" stroke-linecap="round" stroke-linejoin="round" stroke-miterlimit="10" x1="10.1" y1="19.1" x2="12.1" y2="17.3"/>
			
				<line fill="none" stroke="#404040" stroke-width="0.25" stroke-linecap="round" stroke-linejoin="round" stroke-miterlimit="10" x1="11.9" y1="16.5" x2="9.4" y2="17.5"/>
			
				<line fill="none" stroke="#404040" stroke-width="0.25" stroke-linecap="round" stroke-linejoin="round" stroke-miterlimit="10" x1="9" y1="15.7" x2="11.7" y2="15.7"/>
		</g>
		<g>
			
				<line fill="none" stroke="#404040" stroke-width="0.25" stroke-linecap="round" stroke-linejoin="round" stroke-miterlimit="10" x1="23.5" y1="19.1" x2="21.5" y2="17.3"/>
			
				<line fill="none" stroke="#404040" stroke-width="0.25" stroke-linecap="round" stroke-linejoin="round" stroke-miterlimit="10" x1="21.7" y1="16.5" x2="24.2" y2="17.5"/>
			
				<line fill="none" stroke="#404040" stroke-width="0.25" stroke-linecap="round" stroke-linejoin="round" stroke-miterlimit="10" x1="24.5" y1="15.7" x2="21.9" y2="15.7"/>
		</g>
	</g>
	<g>
		<path fill="#404040" d="M21,12.8l-1.2-0.3L21,12c0,0,0,0,0,0c0.3-0.2,0.3-0.5,0.1-0.8c-0.2-0.2-0.5-0.2-0.7,0
			c-0.5,0.3-1.6,1.1-2,1.4c-0.1,0.1-0.1,0.2,0,0.2l2.2,1c0,0,0,0,0,0c0.3,0.1,0.6-0.1,0.7-0.4C21.4,13.1,21.2,12.9,21,12.8z"/>
		<path fill="#404040" d="M12.5,12.8l1.2-0.3L12.5,12c0,0,0,0,0,0c-0.3-0.2-0.3-0.5-0.1-0.8c0.2-0.2,0.5-0.2,0.7,0
			c0.5,0.3,1.6,1.1,2,1.4c0.1,0.1,0.1,0.2,0,0.2l-2.2,1c0,0,0,0,0,0c-0.3,0.1-0.6-0.1-0.7-0.4C12.1,13.1,12.3,12.9,12.5,12.8z"/>
	</g>
</g>
<g>
</g>
<g>
</g>
<g>
</g>
<g>
</g>
<g>
</g>
<g>
</g>
</svg>
