<?xml version="1.0" encoding="utf-8"?>
<!-- Generator: Adobe Illustrator 25.2.1, SVG Export Plug-In . SVG Version: 6.00 Build 0)  -->
<svg version="1.1" id="Layer_1" xmlns="http://www.w3.org/2000/svg" xmlns:xlink="http://www.w3.org/1999/xlink" x="0px" y="0px"
	 viewBox="0 0 193 230" style="enable-background:new 0 0 193 230;" xml:space="preserve">
<style type="text/css">
	.st0{opacity:0.15;}
	.st1{fill:url(#XMLID_2_);}
	.st2{fill:#FFE959;}
	.st3{opacity:0.2;}
	.st4{fill:#424242;}
	.st5{opacity:0.9;fill:url(#XMLID_3_);enable-background:new    ;}
	.st6{fill:url(#SVGID_1_);}
	.st7{fill:url(#XMLID_4_);}
	.st8{opacity:0.9;fill:url(#XMLID_5_);enable-background:new    ;}
	.st9{fill:url(#XMLID_6_);}
	.st10{opacity:0.9;fill:url(#XMLID_7_);enable-background:new    ;}
	.st11{fill:url(#SVGID_2_);}
	.st12{opacity:0.9;fill:url(#XMLID_8_);enable-background:new    ;}
</style>
<g id="Layer_1_1_" class="st0">
	
		<linearGradient id="XMLID_2_" gradientUnits="userSpaceOnUse" x1="151.2104" y1="205.9914" x2="151.2104" y2="172.4338" gradientTransform="matrix(1 0 0 -1 0 232)">
		<stop  offset="1.970000e-02" style="stop-color:#F7BC00"/>
		<stop  offset="1" style="stop-color:#FCD73E"/>
	</linearGradient>
	<path id="XMLID_68_" class="st1" d="M125.5,29.3c0,0.1,0,0.3,0,0.4c0,1.6,1.7,2.8,3.7,2.7c2.1-0.2,3.7-1.6,3.7-3.3
		c0-0.5-0.1-0.9-0.4-1.2l29-5.8c0.5,3.1,3.7,5.2,7.5,4.9c4.2-0.3,7.6-3.5,7.6-7c0-0.3,0-0.6-0.1-0.9c0,0,9.4-1.9,9.5-1.9
		c1.4-0.3,3.1-0.9,4.6-0.7c2.1,0.4,2.2,2.3,2.2,3.9c0,8.4-0.2,16.8-0.1,25.2c0,2.5-2.1,4.7-5,5.2l-78.3,13.9V32.9
		C109.5,32.8,125.4,29.3,125.5,29.3z"/>
	<path class="st2" d="M192.2,15.2c-0.5-1.4-1.6-2.3-1.7-2.5c-2.8-2.5-7.3-6-12.1-8c-4.1-1.8-9.5-2.9-13.9-3.6
		c-4.5-0.7-9.4,0.4-13.2,3l-41.8,28.7l15.9-3.6c0.1-1.2,1.7-2.2,3.7-2.4c1.5-0.1,2.8,0.3,3.3,1l0,0l29-5.8c0-0.2,0-0.4,0-0.6
		c0-2.8,3.6-5.4,7.7-5.7c3.6-0.3,6.6,1.1,7.4,3.3l9.5-1.9c7.5-2.3,6.3,1,6.8,3.5C192.9,18.5,192.8,16.7,192.2,15.2z"/>
	<g class="st3">
		<path class="st4" d="M161.8,3c0.8,0,1.6,0.1,2.3,0.2c5.5,0.9,10.1,2.1,13.3,3.4c4.5,1.9,8.7,5.2,11.5,7.6c0.2,0.2,0.9,0.9,1.2,1.8
			c0.4,1,0.5,2.4,0.5,3.6c0,0,0,0.1,0,0.1c0,0.3,0,0.6,0,0.8c0,3.5,0,7.1-0.1,10.6c-0.1,4.8-0.1,9.7,0,14.6c0,1.5-1.4,3-3.2,3.3
			l-75.6,13.4V33.9l41-28.1C155.4,4,158.6,3,161.8,3 M161.8,1c-3.7,0-7.4,1.1-10.5,3.3l-41.8,28.7v31.8l78.3-13.9
			c2.9-0.5,5.1-2.8,5-5.2c-0.1-8.4,0.1-16.8,0.1-25.2c0-0.3,0-0.6,0-0.9c0-1.7-0.2-3.1-0.6-4.2c-0.5-1.4-1.6-2.3-1.7-2.5
			c-2.8-2.5-7.3-6-12.1-8c-4.1-1.8-9.5-2.9-13.9-3.6C163.7,1.1,162.8,1,161.8,1L161.8,1z"/>
	</g>
	
		<radialGradient id="XMLID_3_" cx="154.0648" cy="138.4737" r="7.6442" gradientTransform="matrix(0.7455 0 0 -0.6534 63.9869 129.8893)" gradientUnits="userSpaceOnUse">
		<stop  offset="8.130000e-02" style="stop-color:#DE7F14"/>
		<stop  offset="0.3389" style="stop-color:#DA7D12"/>
		<stop  offset="0.5993" style="stop-color:#CE760D"/>
		<stop  offset="0.8602" style="stop-color:#BA6C05"/>
		<stop  offset="0.987" style="stop-color:#AD6500"/>
	</radialGradient>
	<path id="XMLID_35_" class="st5" d="M181.3,35.7c3.2-0.3,5.8,1.7,5.8,4.4c0,2.7-2.6,5.1-5.8,5.3c-3.2,0.3-5.8-1.7-5.8-4.4
		C175.5,38.3,178.1,35.9,181.3,35.7z"/>
	
		<radialGradient id="SVGID_1_" cx="132.6651" cy="173.5191" r="15.7277" gradientTransform="matrix(0.7455 0 0 -0.6534 63.9869 129.8893)" gradientUnits="userSpaceOnUse">
		<stop  offset="8.130000e-02" style="stop-color:#DE7F14"/>
		<stop  offset="0.3389" style="stop-color:#DA7D12"/>
		<stop  offset="0.5993" style="stop-color:#CE760D"/>
		<stop  offset="0.8602" style="stop-color:#BA6C05"/>
		<stop  offset="0.987" style="stop-color:#AD6500"/>
	</radialGradient>
	<path class="st6" d="M176.6,19c-0.8-2.2-3.8-3.6-7.4-3.3c-4.1,0.3-7.7,2.9-7.7,5.7c0,0.2,0,0.4,0,0.6l0.8-0.2l-0.6,0.1l-0.3,0.1
		c0.5,3.1,3.7,5.2,7.5,4.9c4.2-0.3,7.6-3.5,7.6-7C176.7,19.6,176.7,19.3,176.6,19z"/>
	
		<radialGradient id="XMLID_4_" cx="173.1584" cy="386.9251" r="7.9039" gradientTransform="matrix(0.539 0.4515 0.4217 -0.3868 -95.977 76.685)" gradientUnits="userSpaceOnUse">
		<stop  offset="8.750000e-02" style="stop-color:#D99914"/>
		<stop  offset="0.4098" style="stop-color:#D59612"/>
		<stop  offset="0.735" style="stop-color:#C98D0D"/>
		<stop  offset="0.987" style="stop-color:#BA8207"/>
	</radialGradient>
	<path id="XMLID_32_" class="st7" d="M162.8,5.8c2.1-0.2,3.8,0.8,3.8,2c0,1.3-1.7,2.5-3.8,2.6s-3.8-0.8-3.8-2
		C159,7.2,160.7,6,162.8,5.8z"/>
	
		<radialGradient id="XMLID_5_" cx="115.8317" cy="141.8524" r="17.442" gradientTransform="matrix(0.7455 0 0 -0.6534 63.9869 129.8893)" gradientUnits="userSpaceOnUse">
		<stop  offset="8.130000e-02" style="stop-color:#DE7F14"/>
		<stop  offset="0.3389" style="stop-color:#DA7D12"/>
		<stop  offset="0.5993" style="stop-color:#CE760D"/>
		<stop  offset="0.8602" style="stop-color:#BA6C05"/>
		<stop  offset="0.987" style="stop-color:#AD6500"/>
	</radialGradient>
	<path id="XMLID_30_" class="st8" d="M152.9,31c5.5-0.4,9.9,2.9,9.9,7.5c0,4.6-4.4,8.7-9.9,9.1c-5.5,0.4-9.9-2.9-9.9-7.5
		S147.4,31.4,152.9,31z"/>
	
		<radialGradient id="XMLID_6_" cx="119.3834" cy="178.8524" r="12.1438" gradientTransform="matrix(0.7455 0 0 -0.6534 63.9869 129.8893)" gradientUnits="userSpaceOnUse">
		<stop  offset="8.750000e-02" style="stop-color:#D99914"/>
		<stop  offset="0.4098" style="stop-color:#D59612"/>
		<stop  offset="0.735" style="stop-color:#C98D0D"/>
		<stop  offset="0.987" style="stop-color:#BA8207"/>
	</radialGradient>
	<path id="XMLID_29_" class="st9" d="M147.2,13.1c3.1-0.2,5.6,1,5.6,2.7c0,1.8-2.5,3.4-5.6,3.6c-3.1,0.2-5.6-1-5.6-2.7
		C141.6,15,144.1,13.4,147.2,13.1z"/>
	
		<radialGradient id="XMLID_7_" cx="90.5125" cy="124.7628" r="6.5979" gradientTransform="matrix(0.7455 0 0 -0.6534 63.9869 129.8893)" gradientUnits="userSpaceOnUse">
		<stop  offset="8.130000e-02" style="stop-color:#DE7F14"/>
		<stop  offset="0.3389" style="stop-color:#DA7D12"/>
		<stop  offset="0.5993" style="stop-color:#CE760D"/>
		<stop  offset="0.8602" style="stop-color:#BA6C05"/>
		<stop  offset="0.987" style="stop-color:#AD6500"/>
	</radialGradient>
	<path id="XMLID_28_" class="st10" d="M134,45.3c2.8-0.2,5,1.5,5,3.8c0,2.3-2.2,4.4-5,4.6c-2.8,0.2-5-1.5-5-3.8
		C129,47.6,131.2,45.6,134,45.3z"/>
	
		<radialGradient id="SVGID_2_" cx="85.4985" cy="157.8524" r="9.839" gradientTransform="matrix(0.7455 0 0 -0.6534 63.9869 129.8893)" gradientUnits="userSpaceOnUse">
		<stop  offset="8.600000e-02" style="stop-color:#C77315"/>
		<stop  offset="0.3774" style="stop-color:#C37113"/>
		<stop  offset="0.6718" style="stop-color:#B76C0F"/>
		<stop  offset="0.9669" style="stop-color:#A36407"/>
		<stop  offset="0.987" style="stop-color:#A16306"/>
	</radialGradient>
	<path class="st11" d="M132.5,27.8L132.5,27.8c-0.6-0.7-1.9-1.1-3.4-1c-2,0.2-3.6,1.2-3.7,2.4h0c0,0.1,0,0.3,0,0.4
		c0,1.6,1.7,2.8,3.7,2.7c2.1-0.2,3.7-1.6,3.7-3.3C132.9,28.6,132.8,28.2,132.5,27.8z"/>
	
		<radialGradient id="XMLID_8_" cx="71.6854" cy="136.8567" r="4.8951" gradientTransform="matrix(0.7455 0 0 -0.6534 63.9869 129.8893)" gradientUnits="userSpaceOnUse">
		<stop  offset="8.130000e-02" style="stop-color:#DE7F14"/>
		<stop  offset="0.3389" style="stop-color:#DA7D12"/>
		<stop  offset="0.5993" style="stop-color:#CE760D"/>
		<stop  offset="0.8602" style="stop-color:#BA6C05"/>
		<stop  offset="0.987" style="stop-color:#AD6500"/>
	</radialGradient>
	<path id="XMLID_25_" class="st12" d="M119.2,38.9c1.5-0.1,2.7,0.8,2.7,2c0,1.2-1.2,2.4-2.7,2.5c-1.5,0.1-2.7-0.8-2.7-2
		C116.6,40.2,117.8,39.1,119.2,38.9z"/>
</g>
</svg>
