<?xml version="1.0" encoding="utf-8"?>
<!-- Generator: Adobe Illustrator 25.2.1, SVG Export Plug-In . SVG Version: 6.00 Build 0)  -->
<svg version="1.1" id="Layer_1" xmlns="http://www.w3.org/2000/svg" xmlns:xlink="http://www.w3.org/1999/xlink" x="0px" y="0px"
	 viewBox="0 0 202 134" style="enable-background:new 0 0 202 134;" xml:space="preserve">
<style type="text/css">
	.st0{fill:#FFE959;}
	.st1{fill:url(#XMLID_53_);}
	.st2{opacity:0.2;}
	.st3{fill:#424242;}
	.st4{opacity:0.9;fill:url(#XMLID_54_);enable-background:new    ;}
	.st5{fill:url(#SVGID_1_);}
	.st6{fill:url(#XMLID_55_);}
	.st7{opacity:0.9;fill:url(#XMLID_56_);enable-background:new    ;}
	.st8{fill:url(#XMLID_57_);}
	.st9{opacity:0.9;fill:url(#XMLID_58_);enable-background:new    ;}
	.st10{fill:url(#SVGID_2_);}
	.st11{opacity:0.9;fill:url(#XMLID_59_);enable-background:new    ;}
	.st12{fill:url(#XMLID_60_);}
	.st13{opacity:0.9;fill:url(#XMLID_61_);enable-background:new    ;}
	.st14{fill:url(#SVGID_3_);}
	.st15{fill:url(#XMLID_62_);}
	.st16{opacity:0.9;fill:url(#XMLID_63_);enable-background:new    ;}
	.st17{fill:url(#XMLID_64_);}
	.st18{opacity:0.9;fill:url(#XMLID_65_);enable-background:new    ;}
	.st19{fill:url(#SVGID_4_);}
	.st20{opacity:0.9;fill:url(#XMLID_66_);enable-background:new    ;}
	.st21{fill:url(#XMLID_67_);}
	.st22{opacity:0.9;fill:url(#XMLID_69_);enable-background:new    ;}
	.st23{fill:url(#SVGID_5_);}
	.st24{fill:url(#XMLID_70_);}
	.st25{opacity:0.9;fill:url(#XMLID_71_);enable-background:new    ;}
	.st26{fill:url(#XMLID_72_);}
	.st27{opacity:0.9;fill:url(#XMLID_73_);enable-background:new    ;}
	.st28{fill:url(#SVGID_6_);}
	.st29{opacity:0.9;fill:url(#XMLID_74_);enable-background:new    ;}
	.st30{fill:url(#XMLID_75_);}
	.st31{fill:url(#XMLID_76_);}
	.st32{fill:url(#XMLID_77_);}
	.st33{opacity:0.9;fill:url(#XMLID_78_);enable-background:new    ;}
	.st34{fill:url(#SVGID_7_);}
	.st35{fill:url(#XMLID_79_);}
	.st36{opacity:0.9;fill:url(#XMLID_80_);enable-background:new    ;}
	.st37{fill:url(#XMLID_81_);}
	.st38{opacity:0.9;fill:url(#XMLID_82_);enable-background:new    ;}
	.st39{fill:url(#SVGID_8_);}
	.st40{opacity:0.9;fill:url(#XMLID_83_);enable-background:new    ;}
	.st41{fill:url(#XMLID_84_);}
	.st42{fill:url(#XMLID_85_);}
	.st43{fill:url(#XMLID_86_);}
	.st44{fill:url(#SVGID_9_);}
	.st45{fill:url(#XMLID_87_);}
	.st46{opacity:0.9;fill:url(#XMLID_88_);enable-background:new    ;}
	.st47{fill:url(#XMLID_89_);}
	.st48{opacity:0.9;fill:url(#XMLID_90_);enable-background:new    ;}
	.st49{opacity:0.9;fill:url(#XMLID_91_);enable-background:new    ;}
	.st50{fill:url(#XMLID_92_);}
	.st51{fill:url(#XMLID_93_);}
	.st52{fill:url(#XMLID_94_);}
	.st53{fill:url(#SVGID_10_);}
	.st54{fill:url(#XMLID_95_);}
	.st55{opacity:0.9;fill:url(#XMLID_96_);enable-background:new    ;}
	.st56{opacity:0.9;fill:url(#XMLID_97_);enable-background:new    ;}
	.st57{opacity:0.9;fill:url(#XMLID_98_);enable-background:new    ;}
	.st58{fill:url(#XMLID_99_);}
	.st59{fill:url(#XMLID_100_);}
	.st60{fill:url(#XMLID_101_);}
	.st61{fill:url(#SVGID_11_);}
	.st62{fill:url(#XMLID_102_);}
	.st63{opacity:0.9;fill:url(#XMLID_103_);enable-background:new    ;}
	.st64{opacity:0.9;fill:url(#XMLID_104_);enable-background:new    ;}
	.st65{opacity:0.9;fill:url(#XMLID_105_);enable-background:new    ;}
</style>
<polyline class="st0" points="113.4,82.2 113.4,87.2 99.1,87 99.1,82.2 "/>
<g id="Layer_1_1_">
	
		<linearGradient id="XMLID_53_" gradientUnits="userSpaceOnUse" x1="48.0071" y1="57.0728" x2="48.0071" y2="82.4849" gradientTransform="matrix(-1 0 0 1 89.2571 2)">
		<stop  offset="1.970000e-02" style="stop-color:#F7BC00"/>
		<stop  offset="1" style="stop-color:#FCD73E"/>
	</linearGradient>
	<path id="XMLID_68_" class="st1" d="M77.8,64.3v24.1L9.2,77.8c-2.5-0.4-4.4-2.1-4.4-4c0.1-6.3-0.1-12.7-0.1-19.1
		c0-1.2,0.1-2.6,2-2.9c1.3-0.2,2.8,0.3,4,0.5c0.1,0,8.3,1.4,8.3,1.4c0,0.2-0.1,0.5-0.1,0.7c0,2.7,3,5.1,6.7,5.3
		c3.4,0.2,6.2-1.4,6.6-3.7l25.4,4.4c-0.2,0.3-0.3,0.6-0.3,0.9c0,1.2,1.5,2.4,3.3,2.5s3.3-0.8,3.3-2c0-0.1,0-0.2,0-0.3
		C63.8,61.5,77.8,64.2,77.8,64.3z"/>
	<path class="st0" d="M4.7,55c0.4-1.9-0.6-4.4,6-2.7l8.3,1.4c0.7-1.7,3.4-2.7,6.5-2.5c3.6,0.2,6.8,2.2,6.8,4.3c0,0.2,0,0.3,0,0.5
		l25.4,4.4l0,0c0.5-0.5,1.6-0.8,2.9-0.7c1.8,0.1,3.2,0.9,3.2,1.8l14,2.7L41.2,42.6c-3.3-2-7.6-2.8-11.6-2.3
		c-3.8,0.5-8.5,1.4-12.2,2.7c-4.2,1.5-8.1,4.2-10.6,6.1C6.6,49.2,5.7,50,5.3,51C4.8,52,4.7,53.4,4.7,55z"/>
	<g class="st2">
		<path class="st3" d="M31.9,41.6c2.8,0,5.7,0.8,8,2.1L75.8,65v21.5L9.6,76.4C8,76.1,6.7,75,6.8,73.9c0.1-3.7,0-7.4,0-11
			c0-2.6-0.1-5.4-0.1-8c0-0.2,0-0.4,0-0.6c0,0,0,0,0-0.1c0-0.9,0.1-2,0.4-2.8c0.3-0.6,0.9-1.2,1.1-1.3c2.4-1.8,6.1-4.3,10-5.8
			c2.8-1,6.8-1.9,11.7-2.6C30.6,41.7,31.3,41.6,31.9,41.6 M31.9,40.1c-0.8,0-1.6,0-2.4,0.2c-3.8,0.5-8.5,1.4-12.2,2.7
			c-4.2,1.5-8.1,4.2-10.6,6.1C6.5,49.2,5.6,50,5.2,51c-0.4,0.9-0.5,2-0.5,3.2c0,0.2,0,0.5,0,0.7c0,6.3,0.2,12.7,0.1,19.1
			c0,1.9,1.9,3.6,4.4,4l68.6,10.5V64.3L41.1,42.6C38.4,41,35.2,40.1,31.9,40.1L31.9,40.1z"/>
	</g>
	
		<radialGradient id="XMLID_54_" cx="24.8889" cy="113.2038" r="11.7303" gradientTransform="matrix(-0.4258 0 0 0.3225 27.6454 32.71)" gradientUnits="userSpaceOnUse">
		<stop  offset="8.130000e-02" style="stop-color:#DE7F14"/>
		<stop  offset="0.3389" style="stop-color:#DA7D12"/>
		<stop  offset="0.5993" style="stop-color:#CE760D"/>
		<stop  offset="0.8602" style="stop-color:#BA6C05"/>
		<stop  offset="0.987" style="stop-color:#AD6500"/>
	</radialGradient>
	<path id="XMLID_35_" class="st4" d="M20,70.4c0,2-2.3,3.5-5.1,3.3s-5.1-2-5.1-4s2.3-3.5,5.1-3.3S20,68.4,20,70.4z"/>
	
		<radialGradient id="SVGID_1_" cx="-7.9499" cy="59.4254" r="24.1347" gradientTransform="matrix(-0.4258 0 0 0.3225 27.6454 32.71)" gradientUnits="userSpaceOnUse">
		<stop  offset="8.130000e-02" style="stop-color:#DE7F14"/>
		<stop  offset="0.3389" style="stop-color:#DA7D12"/>
		<stop  offset="0.5993" style="stop-color:#CE760D"/>
		<stop  offset="0.8602" style="stop-color:#BA6C05"/>
		<stop  offset="0.987" style="stop-color:#AD6500"/>
	</radialGradient>
	<path class="st5" d="M18.9,54.5c0,2.7,3,5.1,6.7,5.3c3.4,0.2,6.2-1.4,6.6-3.7L32,56h-0.5l0.7,0.1c0-0.2,0-0.3,0-0.5
		c0-2.1-3.1-4.1-6.8-4.3c-3.1-0.2-5.8,0.9-6.5,2.5C19,54,18.9,54.2,18.9,54.5z"/>
	
		<radialGradient id="XMLID_55_" cx="100.4562" cy="-43.8343" r="12.1288" gradientTransform="matrix(-0.3078 0.2228 0.2409 0.1909 74.5739 29.29)" gradientUnits="userSpaceOnUse">
		<stop  offset="8.750000e-02" style="stop-color:#D99914"/>
		<stop  offset="0.4098" style="stop-color:#D59612"/>
		<stop  offset="0.735" style="stop-color:#C98D0D"/>
		<stop  offset="0.987" style="stop-color:#BA8207"/>
	</radialGradient>
	<path id="XMLID_32_" class="st6" d="M34.5,45.8c0,1-1.5,1.7-3.3,1.5c-1.8-0.1-3.3-1-3.3-2s1.5-1.7,3.3-1.5
		C33,43.9,34.5,44.8,34.5,45.8z"/>
	
		<radialGradient id="XMLID_56_" cx="-33.7812" cy="108.0191" r="26.7654" gradientTransform="matrix(-0.4258 0 0 0.3225 27.6454 32.71)" gradientUnits="userSpaceOnUse">
		<stop  offset="8.130000e-02" style="stop-color:#DE7F14"/>
		<stop  offset="0.3389" style="stop-color:#DA7D12"/>
		<stop  offset="0.5993" style="stop-color:#CE760D"/>
		<stop  offset="0.8602" style="stop-color:#BA6C05"/>
		<stop  offset="0.987" style="stop-color:#AD6500"/>
	</radialGradient>
	<path id="XMLID_30_" class="st7" d="M48.5,69.7c0,3.5-3.9,6-8.7,5.7s-8.7-3.4-8.7-6.9s3.9-6,8.7-5.7C44.6,63.2,48.5,66.3,48.5,69.7
		z"/>
	
		<radialGradient id="XMLID_57_" cx="-28.331" cy="51.2412" r="18.6351" gradientTransform="matrix(-0.4258 0 0 0.3225 27.6454 32.71)" gradientUnits="userSpaceOnUse">
		<stop  offset="8.750000e-02" style="stop-color:#D99914"/>
		<stop  offset="0.4098" style="stop-color:#D59612"/>
		<stop  offset="0.735" style="stop-color:#C98D0D"/>
		<stop  offset="0.987" style="stop-color:#BA8207"/>
	</radialGradient>
	<path id="XMLID_29_" class="st8" d="M49.7,52.1c0,1.3-2.2,2.3-4.9,2.1s-4.9-1.4-4.9-2.7s2.2-2.3,4.9-2.1
		C47.5,49.5,49.7,50.7,49.7,52.1z"/>
	
		<radialGradient id="XMLID_58_" cx="-72.6347" cy="134.2437" r="10.1247" gradientTransform="matrix(-0.4258 0 0 0.3225 27.6454 32.71)" gradientUnits="userSpaceOnUse">
		<stop  offset="8.130000e-02" style="stop-color:#DE7F14"/>
		<stop  offset="0.3389" style="stop-color:#DA7D12"/>
		<stop  offset="0.5993" style="stop-color:#CE760D"/>
		<stop  offset="0.8602" style="stop-color:#BA6C05"/>
		<stop  offset="0.987" style="stop-color:#AD6500"/>
	</radialGradient>
	<path id="XMLID_28_" class="st9" d="M60.8,77.2c0,1.8-2,3.1-4.4,2.9S52,78.4,52,76.6s2-3.1,4.4-2.9C58.8,73.9,60.8,75.4,60.8,77.2z
		"/>
	
		<radialGradient id="SVGID_2_" cx="-80.3288" cy="83.4665" r="15.0983" gradientTransform="matrix(-0.4258 0 0 0.3225 27.6454 32.71)" gradientUnits="userSpaceOnUse">
		<stop  offset="8.600000e-02" style="stop-color:#C77315"/>
		<stop  offset="0.3774" style="stop-color:#C37113"/>
		<stop  offset="0.6718" style="stop-color:#B76C0F"/>
		<stop  offset="0.9669" style="stop-color:#A36407"/>
		<stop  offset="0.987" style="stop-color:#A16306"/>
	</radialGradient>
	<path class="st10" d="M57.3,61.4c0,1.2,1.5,2.4,3.3,2.5s3.3-0.8,3.3-2c0-0.1,0-0.2,0-0.3l0,0c-0.1-0.9-1.5-1.7-3.2-1.8
		c-1.3-0.1-2.4,0.2-2.9,0.7l0,0C57.4,60.7,57.3,61.1,57.3,61.4z"/>
	
		<radialGradient id="XMLID_59_" cx="-101.5254" cy="115.6852" r="7.5117" gradientTransform="matrix(-0.4258 0 0 0.3225 27.6454 32.71)" gradientUnits="userSpaceOnUse">
		<stop  offset="8.130000e-02" style="stop-color:#DE7F14"/>
		<stop  offset="0.3389" style="stop-color:#DA7D12"/>
		<stop  offset="0.5993" style="stop-color:#CE760D"/>
		<stop  offset="0.8602" style="stop-color:#BA6C05"/>
		<stop  offset="0.987" style="stop-color:#AD6500"/>
	</radialGradient>
	<path id="XMLID_25_" class="st11" d="M71.6,70.7c0,0.9-1.1,1.6-2.4,1.5s-2.4-0.9-2.4-1.9s1.1-1.6,2.4-1.5
		C70.6,69,71.6,69.8,71.6,70.7z"/>
</g>
<g id="Layer_1_2_">
	
		<linearGradient id="XMLID_60_" gradientUnits="userSpaceOnUse" x1="26.9981" y1="33.1994" x2="26.9981" y2="57.7526" gradientTransform="matrix(-0.7654 -1.308407e-03 -1.469345e-03 0.8595 60.5273 8.9591)">
		<stop  offset="1.970000e-02" style="stop-color:#F7BC00"/>
		<stop  offset="1" style="stop-color:#FCD73E"/>
	</linearGradient>
	<path id="XMLID_7_" class="st12" d="M68.3,41.5l-0.2,20.3l-53.4-8.5c-2-0.3-3.4-1.8-3.4-3.3c0.1-5.3,0-10.7,0.1-16
		c0-1,0.1-2.2,1.5-2.5c1-0.2,2.2,0.2,3.1,0.4c0.1,0,6.5,1.2,6.5,1.2c0,0.2-0.1,0.4-0.1,0.6c0,2.3,2.3,4.2,5.2,4.4
		c2.6,0.2,4.8-1.2,5.2-3.2l19.8,3.6c-0.2,0.2-0.2,0.5-0.2,0.8c0,1,1.1,2,2.5,2.1s2.6-0.7,2.6-1.7c0-0.1,0-0.2,0-0.3
		C57.4,39.3,68.3,41.5,68.3,41.5z"/>
	<path class="st0" d="M11.4,34.1c0.4-1.6-0.4-3.7,4.7-2.3l6.5,1.2c0.5-1.4,2.7-2.3,5.1-2.1c2.8,0.2,5.2,1.8,5.2,3.6
		c0,0.1,0,0.3,0,0.4l19.8,3.6l0,0c0.4-0.4,1.3-0.7,2.3-0.6c1.4,0.1,2.5,0.8,2.5,1.5l10.9,2.2L39.9,23.4c-2.6-1.7-5.9-2.4-9-1.9
		c-3,0.5-6.7,1.2-9.5,2.3c-3.3,1.3-6.4,3.5-8.3,5.2c-0.1,0.1-0.8,0.7-1.2,1.6C11.5,31.6,11.5,32.7,11.4,34.1z"/>
	<g class="st2">
		<path class="st3" d="M32.8,22.7c2.2,0,4.4,0.6,6.2,1.8l27.8,17.7l-0.2,18.1L15,52.1c-1.3-0.2-2.2-1.1-2.2-2.1
			c0.1-3.1,0.1-6.2,0.1-9.3c0-2.2,0-4.5,0-6.8c0-0.1,0-0.3,0-0.5l0,0c0-0.8,0.1-1.7,0.4-2.3c0.2-0.5,0.7-1,0.8-1.1
			c1.9-1.5,4.8-3.7,7.9-4.9c2.2-0.9,5.3-1.6,9.1-2.2C31.7,22.7,32.2,22.7,32.8,22.7 M32.8,21.4c-0.6,0-1.2,0-1.9,0.1
			c-3,0.5-6.7,1.2-9.5,2.3c-3.3,1.3-6.4,3.5-8.3,5.2c-0.1,0.1-0.8,0.7-1.2,1.6c-0.3,0.7-0.4,1.6-0.5,2.7c0,0.2,0,0.4,0,0.6
			c-0.1,5.3,0,10.7-0.1,16c0,1.6,1.4,3,3.4,3.3l53.4,8.5l0.2-20.3L39.9,23.5C37.8,22.1,35.3,21.4,32.8,21.4L32.8,21.4z"/>
	</g>
	
		<radialGradient id="XMLID_61_" cx="-36.5201" cy="35.9493" r="12.8134" gradientTransform="matrix(-0.3037 1.777686e-03 -2.577691e-03 0.2485 9.9205 37.1229)" gradientUnits="userSpaceOnUse">
		<stop  offset="8.130000e-02" style="stop-color:#DE7F14"/>
		<stop  offset="0.3389" style="stop-color:#DA7D12"/>
		<stop  offset="0.5993" style="stop-color:#CE760D"/>
		<stop  offset="0.8602" style="stop-color:#BA6C05"/>
		<stop  offset="0.987" style="stop-color:#AD6500"/>
	</radialGradient>
	<path id="XMLID_6_" class="st13" d="M23.2,47c0,1.7-1.8,3-4,2.8s-3.9-1.7-3.9-3.4s1.8-3,4-2.8S23.2,45.3,23.2,47z"/>
	
		<radialGradient id="SVGID_3_" cx="-72.391" cy="-22.7948" r="26.3632" gradientTransform="matrix(-0.3037 1.777686e-03 -2.577691e-03 0.2485 9.9205 37.1229)" gradientUnits="userSpaceOnUse">
		<stop  offset="8.130000e-02" style="stop-color:#DE7F14"/>
		<stop  offset="0.3389" style="stop-color:#DA7D12"/>
		<stop  offset="0.5993" style="stop-color:#CE760D"/>
		<stop  offset="0.8602" style="stop-color:#BA6C05"/>
		<stop  offset="0.987" style="stop-color:#AD6500"/>
	</radialGradient>
	<path class="st14" d="M22.5,33.6c0,2.3,2.3,4.2,5.2,4.4c2.6,0.2,4.8-1.2,5.2-3.2h-0.2l-0.4-0.1l0.6,0.1c0-0.1,0-0.3,0-0.4
		c0-1.8-2.4-3.4-5.2-3.6c-2.4-0.2-4.5,0.8-5.1,2.1C22.5,33.2,22.5,33.4,22.5,33.6z"/>
	
		<radialGradient id="XMLID_62_" cx="-4.9538" cy="-63.8476" r="13.2487" gradientTransform="matrix(-0.2214 0.173 0.1703 0.1461 43.4245 34.2878)" gradientUnits="userSpaceOnUse">
		<stop  offset="8.750000e-02" style="stop-color:#D99914"/>
		<stop  offset="0.4098" style="stop-color:#D59612"/>
		<stop  offset="0.735" style="stop-color:#C98D0D"/>
		<stop  offset="0.987" style="stop-color:#BA8207"/>
	</radialGradient>
	<path id="XMLID_5_" class="st15" d="M34.7,26.2c0,0.8-1.2,1.4-2.6,1.3c-1.4-0.1-2.6-0.8-2.6-1.7c0-0.8,1.2-1.4,2.6-1.3
		C33.6,24.6,34.7,25.4,34.7,26.2z"/>
	
		<radialGradient id="XMLID_63_" cx="-100.6075" cy="30.2858" r="29.2368" gradientTransform="matrix(-0.3037 1.777686e-03 -2.577691e-03 0.2485 9.9205 37.1229)" gradientUnits="userSpaceOnUse">
		<stop  offset="8.130000e-02" style="stop-color:#DE7F14"/>
		<stop  offset="0.3389" style="stop-color:#DA7D12"/>
		<stop  offset="0.5993" style="stop-color:#CE760D"/>
		<stop  offset="0.8602" style="stop-color:#BA6C05"/>
		<stop  offset="0.987" style="stop-color:#AD6500"/>
	</radialGradient>
	<path id="XMLID_4_" class="st16" d="M45.4,46.3c0,2.9-3.1,5.1-6.8,4.8s-6.7-2.8-6.7-5.8c0-2.9,3.1-5.1,6.8-4.8S45.4,43.3,45.4,46.3
		z"/>
	
		<radialGradient id="XMLID_64_" cx="-94.654" cy="-31.7347" r="20.3558" gradientTransform="matrix(-0.3037 1.777686e-03 -2.577691e-03 0.2485 9.9205 37.1229)" gradientUnits="userSpaceOnUse">
		<stop  offset="8.750000e-02" style="stop-color:#D99914"/>
		<stop  offset="0.4098" style="stop-color:#D59612"/>
		<stop  offset="0.735" style="stop-color:#C98D0D"/>
		<stop  offset="0.987" style="stop-color:#BA8207"/>
	</radialGradient>
	<path id="XMLID_3_" class="st17" d="M46.5,31.4c0,1.1-1.7,1.9-3.9,1.8c-2.1-0.1-3.8-1.2-3.8-2.3c0-1.1,1.7-1.9,3.9-1.8
		C44.8,29.3,46.5,30.3,46.5,31.4z"/>
	
		<radialGradient id="XMLID_65_" cx="-143.0484" cy="58.9319" r="11.0596" gradientTransform="matrix(-0.3037 1.777686e-03 -2.577691e-03 0.2485 9.9205 37.1229)" gradientUnits="userSpaceOnUse">
		<stop  offset="8.130000e-02" style="stop-color:#DE7F14"/>
		<stop  offset="0.3389" style="stop-color:#DA7D12"/>
		<stop  offset="0.5993" style="stop-color:#CE760D"/>
		<stop  offset="0.8602" style="stop-color:#BA6C05"/>
		<stop  offset="0.987" style="stop-color:#AD6500"/>
	</radialGradient>
	<path id="XMLID_2_" class="st18" d="M54.9,52.5c0,1.5-1.6,2.6-3.4,2.5c-1.9-0.1-3.4-1.4-3.4-2.9s1.6-2.6,3.4-2.5
		C53.4,49.7,54.9,51,54.9,52.5z"/>
	
		<radialGradient id="SVGID_4_" cx="-151.453" cy="3.4661" r="16.4924" gradientTransform="matrix(-0.3037 1.777686e-03 -2.577691e-03 0.2485 9.9205 37.1229)" gradientUnits="userSpaceOnUse">
		<stop  offset="8.600000e-02" style="stop-color:#C77315"/>
		<stop  offset="0.3774" style="stop-color:#C37113"/>
		<stop  offset="0.6718" style="stop-color:#B76C0F"/>
		<stop  offset="0.9669" style="stop-color:#A36407"/>
		<stop  offset="0.987" style="stop-color:#A16306"/>
	</radialGradient>
	<path class="st19" d="M52.4,39.2c0,1,1.1,2,2.5,2.1s2.6-0.7,2.6-1.7c0-0.1,0-0.2,0-0.3l0,0c0-0.7-1.1-1.4-2.5-1.5
		c-1-0.1-1.9,0.2-2.3,0.6l0,0C52.5,38.7,52.4,38.9,52.4,39.2z"/>
	
		<radialGradient id="XMLID_66_" cx="-174.6068" cy="38.6597" r="8.2053" gradientTransform="matrix(-0.3037 1.777686e-03 -2.577691e-03 0.2485 9.9205 37.1229)" gradientUnits="userSpaceOnUse">
		<stop  offset="8.130000e-02" style="stop-color:#DE7F14"/>
		<stop  offset="0.3389" style="stop-color:#DA7D12"/>
		<stop  offset="0.5993" style="stop-color:#CE760D"/>
		<stop  offset="0.8602" style="stop-color:#BA6C05"/>
		<stop  offset="0.987" style="stop-color:#AD6500"/>
	</radialGradient>
	<path id="XMLID_1_" class="st20" d="M63.4,47c0,0.8-0.8,1.4-1.8,1.3c-1-0.1-1.8-0.8-1.8-1.6s0.8-1.4,1.8-1.3
		C62.6,45.5,63.4,46.2,63.4,47z"/>
</g>
<g id="Layer_1_3_">
	
		<linearGradient id="XMLID_67_" gradientUnits="userSpaceOnUse" x1="10.9033" y1="13.5118" x2="10.9033" y2="32.818" gradientTransform="matrix(-0.6298 -1.060244e-02 -1.362214e-02 0.8092 46.2027 10.0607)">
		<stop  offset="1.970000e-02" style="stop-color:#F7BC00"/>
		<stop  offset="1" style="stop-color:#FCD73E"/>
	</linearGradient>
	<path id="XMLID_14_" class="st21" d="M58.3,23.8l-0.6,15.4L22,32.8c-1.3-0.2-2.3-1.3-2.2-2.5c0.2-4.1,0.3-8.1,0.4-12.2
		c0-0.8,0.1-1.7,1.1-1.9c0.7-0.1,1.5,0.2,2.1,0.3l4.3,0.9c0,0.1,0,0.3-0.1,0.4C27.5,19.5,29,21,31,21.2c1.8,0.1,3.3-0.9,3.6-2.4
		l13.2,2.7c-0.1,0.2-0.2,0.4-0.2,0.6c0,0.8,0.7,1.5,1.7,1.6c0.9,0.1,1.7-0.5,1.8-1.3c0-0.1,0-0.1,0-0.2
		C51.1,22.1,58.3,23.8,58.3,23.8z"/>
	<path class="st0" d="M20.3,18.2c0.3-1.2-0.2-2.8,3.2-1.7l4.3,0.9c0.4-1.1,1.8-1.8,3.5-1.6c1.9,0.1,3.5,1.4,3.4,2.7
		c0,0.1,0,0.2,0,0.3l13.2,2.7l0,0c0.3-0.3,0.9-0.5,1.6-0.5c0.9,0.1,1.6,0.6,1.7,1.1l7.2,1.7L39.6,10.1c-1.7-1.3-3.9-1.8-6-1.4
		c-2,0.3-4.5,0.9-6.4,1.8c-2.2,1-4.3,2.7-5.7,3.9c-0.1,0.1-0.6,0.6-0.8,1.2C20.4,16.3,20.3,17.1,20.3,18.2z"/>
	<g class="st2">
		<path class="st3" d="M34.8,9.5c1.5,0,2.9,0.5,4.1,1.3l18.3,13.5l-0.5,13.8l-34.5-6.2c-0.8-0.2-1.5-0.9-1.4-1.6
			c0.1-2.4,0.2-4.7,0.3-7.1c0-1.7,0.1-3.4,0.2-5.1c0-0.1,0-0.2,0-0.4l0,0c0-0.6,0.1-1.3,0.3-1.8c0.2-0.4,0.5-0.8,0.6-0.9
			c1.3-1.2,3.3-2.8,5.4-3.7c1.5-0.7,3.6-1.3,6.2-1.7C34.1,9.5,34.5,9.5,34.8,9.5 M34.9,8.6c-0.4,0-0.8,0-1.2,0.1
			c-2,0.3-4.5,0.9-6.4,1.8c-2.2,1-4.3,2.7-5.7,3.9c-0.1,0.1-0.6,0.6-0.8,1.2c-0.2,0.6-0.3,1.3-0.4,2.1c0,0.1,0,0.3,0,0.4
			c-0.2,4.1-0.2,8.1-0.4,12.2c-0.1,1.2,0.9,2.3,2.2,2.5l35.7,6.4l0.6-15.4L39.6,10.1C38.3,9.1,36.6,8.5,34.9,8.6L34.9,8.6z"/>
	</g>
	
		<radialGradient id="XMLID_69_" cx="-171.8793" cy="-59.8269" r="14.5567" gradientTransform="matrix(-0.1798 1.369939e-03 -6.344529e-03 0.1661 -4.9099 37.3843)" gradientUnits="userSpaceOnUse">
		<stop  offset="8.130000e-02" style="stop-color:#DE7F14"/>
		<stop  offset="0.3389" style="stop-color:#DA7D12"/>
		<stop  offset="0.5993" style="stop-color:#CE760D"/>
		<stop  offset="0.8602" style="stop-color:#BA6C05"/>
		<stop  offset="0.987" style="stop-color:#AD6500"/>
	</radialGradient>
	<path id="XMLID_13_" class="st22" d="M27.9,28c0,1.3-1.3,2.3-2.7,2.2s-2.6-1.3-2.6-2.6s1.3-2.3,2.7-2.2
		C26.8,25.5,27.9,26.7,27.9,28z"/>
	
		<radialGradient id="SVGID_5_" cx="-212.6305" cy="-126.5631" r="29.9499" gradientTransform="matrix(-0.1798 1.369939e-03 -6.344529e-03 0.1661 -4.9099 37.3843)" gradientUnits="userSpaceOnUse">
		<stop  offset="8.130000e-02" style="stop-color:#DE7F14"/>
		<stop  offset="0.3389" style="stop-color:#DA7D12"/>
		<stop  offset="0.5993" style="stop-color:#CE760D"/>
		<stop  offset="0.8602" style="stop-color:#BA6C05"/>
		<stop  offset="0.987" style="stop-color:#AD6500"/>
	</radialGradient>
	<path class="st23" d="M27.7,17.8c-0.1,1.7,1.4,3.2,3.4,3.4c1.8,0.1,3.3-0.9,3.6-2.4h-0.1l-0.3-0.1l0.4,0.1c0-0.1,0-0.2,0-0.3
		c0.1-1.3-1.5-2.6-3.4-2.7c-1.6-0.1-3.1,0.6-3.5,1.6C27.7,17.5,27.7,17.6,27.7,17.8z"/>
	
		<radialGradient id="XMLID_70_" cx="-181.2806" cy="-40.0234" r="15.0512" gradientTransform="matrix(-0.1343 0.1157 9.793334e-02 9.755603e-02 14.9734 35.4689)" gradientUnits="userSpaceOnUse">
		<stop  offset="8.750000e-02" style="stop-color:#D99914"/>
		<stop  offset="0.4098" style="stop-color:#D59612"/>
		<stop  offset="0.735" style="stop-color:#C98D0D"/>
		<stop  offset="0.987" style="stop-color:#BA8207"/>
	</radialGradient>
	<path id="XMLID_12_" class="st24" d="M36.1,12.2c0,0.6-0.8,1.1-1.8,1s-1.7-0.6-1.7-1.3c0-0.6,0.8-1.1,1.8-1
		C35.3,11,36.1,11.5,36.1,12.2z"/>
	
		<radialGradient id="XMLID_71_" cx="-244.6858" cy="-66.2609" r="33.2144" gradientTransform="matrix(-0.1798 1.369939e-03 -6.344529e-03 0.1661 -4.9099 37.3843)" gradientUnits="userSpaceOnUse">
		<stop  offset="8.130000e-02" style="stop-color:#DE7F14"/>
		<stop  offset="0.3389" style="stop-color:#DA7D12"/>
		<stop  offset="0.5993" style="stop-color:#CE760D"/>
		<stop  offset="0.8602" style="stop-color:#BA6C05"/>
		<stop  offset="0.987" style="stop-color:#AD6500"/>
	</radialGradient>
	<path id="XMLID_11_" class="st25" d="M42.8,27.4c-0.1,2.2-2.2,3.9-4.7,3.7c-2.5-0.2-4.5-2.1-4.4-4.4c0.1-2.2,2.2-3.9,4.7-3.7
		C40.9,23.2,42.9,25.2,42.8,27.4z"/>
	
		<radialGradient id="XMLID_72_" cx="-237.9223" cy="-136.7192" r="23.1252" gradientTransform="matrix(-0.1798 1.369939e-03 -6.344529e-03 0.1661 -4.9099 37.3843)" gradientUnits="userSpaceOnUse">
		<stop  offset="8.750000e-02" style="stop-color:#D99914"/>
		<stop  offset="0.4098" style="stop-color:#D59612"/>
		<stop  offset="0.735" style="stop-color:#C98D0D"/>
		<stop  offset="0.987" style="stop-color:#BA8207"/>
	</radialGradient>
	<path id="XMLID_10_" class="st26" d="M43.9,16.1c0,0.9-1.2,1.5-2.6,1.3c-1.4-0.1-2.6-0.9-2.5-1.7c0-0.8,1.2-1.4,2.6-1.3
		C42.8,14.5,43.9,15.3,43.9,16.1z"/>
	
		<radialGradient id="XMLID_73_" cx="-292.9008" cy="-33.7175" r="12.5642" gradientTransform="matrix(-0.1798 1.369939e-03 -6.344529e-03 0.1661 -4.9099 37.3843)" gradientUnits="userSpaceOnUse">
		<stop  offset="8.130000e-02" style="stop-color:#DE7F14"/>
		<stop  offset="0.3389" style="stop-color:#DA7D12"/>
		<stop  offset="0.5993" style="stop-color:#CE760D"/>
		<stop  offset="0.8602" style="stop-color:#BA6C05"/>
		<stop  offset="0.987" style="stop-color:#AD6500"/>
	</radialGradient>
	<path id="XMLID_9_" class="st27" d="M49.1,32.1c0,1.1-1.1,2-2.4,1.9c-1.3-0.1-2.3-1.1-2.2-2.2s1.1-2,2.4-1.9
		C48.1,30,49.1,31,49.1,32.1z"/>
	
		<radialGradient id="SVGID_6_" cx="-302.4489" cy="-96.7294" r="18.7362" gradientTransform="matrix(-0.1798 1.369939e-03 -6.344529e-03 0.1661 -4.9099 37.3843)" gradientUnits="userSpaceOnUse">
		<stop  offset="8.600000e-02" style="stop-color:#C77315"/>
		<stop  offset="0.3774" style="stop-color:#C37113"/>
		<stop  offset="0.6718" style="stop-color:#B76C0F"/>
		<stop  offset="0.9669" style="stop-color:#A36407"/>
		<stop  offset="0.987" style="stop-color:#A16306"/>
	</radialGradient>
	<path class="st28" d="M47.7,22.1c0,0.8,0.7,1.5,1.7,1.6c0.9,0.1,1.7-0.5,1.8-1.3c0-0.1,0-0.1,0-0.2l0,0c0-0.6-0.7-1.1-1.7-1.1
		c-0.7-0.1-1.3,0.1-1.6,0.5l0,0C47.7,21.6,47.7,21.8,47.7,22.1z"/>
	
		<radialGradient id="XMLID_74_" cx="-328.7527" cy="-56.7477" r="9.3216" gradientTransform="matrix(-0.1798 1.369939e-03 -6.344529e-03 0.1661 -4.9099 37.3843)" gradientUnits="userSpaceOnUse">
		<stop  offset="8.130000e-02" style="stop-color:#DE7F14"/>
		<stop  offset="0.3389" style="stop-color:#DA7D12"/>
		<stop  offset="0.5993" style="stop-color:#CE760D"/>
		<stop  offset="0.8602" style="stop-color:#BA6C05"/>
		<stop  offset="0.987" style="stop-color:#AD6500"/>
	</radialGradient>
	<path id="XMLID_8_" class="st29" d="M54.9,28c0,0.6-0.6,1.1-1.3,1s-1.2-0.6-1.2-1.2s0.6-1.1,1.3-1C54.4,26.8,54.9,27.4,54.9,28z"/>
</g>
<g id="Layer_1_4_">
	
		<linearGradient id="XMLID_75_" gradientUnits="userSpaceOnUse" x1="-102.8874" y1="99.5674" x2="-102.8874" y2="99.5674" gradientTransform="matrix(-0.6298 -1.060244e-02 -1.362214e-02 0.8092 46.2027 10.0607)">
		<stop  offset="1.970000e-02" style="stop-color:#F7BC00"/>
		<stop  offset="1" style="stop-color:#FCD73E"/>
	</linearGradient>
	<path id="XMLID_24_" class="st30" d="M109.6,91.7"/>
	
		<linearGradient id="XMLID_76_" gradientUnits="userSpaceOnUse" x1="-94.0348" y1="104.7811" x2="-94.0348" y2="111.659" gradientTransform="matrix(-0.6537 -1.100369e-02 -1.473561e-02 0.8753 46.4613 -3.9955)">
		<stop  offset="1.970000e-02" style="stop-color:#F7BC00"/>
		<stop  offset="1" style="stop-color:#FCD73E"/>
	</linearGradient>
	<path id="XMLID_21_" class="st31" d="M113.4,87.2l0.2,8.6l-13.9-0.6c-0.5-0.1-0.5-0.3-0.5-1c0.1-2.4-0.3-4.7-0.2-7.1
		c0-0.4,0.1,0,0.5-0.1"/>
	
		<linearGradient id="XMLID_77_" gradientUnits="userSpaceOnUse" x1="-104.9536" y1="99.6639" x2="-104.9536" y2="99.6639" gradientTransform="matrix(-0.6298 -1.060244e-02 -1.362214e-02 0.8092 46.2027 10.0607)">
		<stop  offset="1.970000e-02" style="stop-color:#F7BC00"/>
		<stop  offset="1" style="stop-color:#FCD73E"/>
	</linearGradient>
	<path id="XMLID_22_" class="st32" d="M110.9,91.8"/>
	<path class="st0" d="M111.5,88.6"/>
	<path class="st0" d="M106.2,88.6"/>
	<path class="st0" d="M102.9,91.2"/>
	
		<radialGradient id="XMLID_78_" cx="-456.3693" cy="298.5991" r="14.5567" gradientTransform="matrix(-7.170374e-02 7.376364e-04 -2.530766e-03 8.943549e-02 69.4556 65.3932)" gradientUnits="userSpaceOnUse">
		<stop  offset="8.130000e-02" style="stop-color:#DE7F14"/>
		<stop  offset="0.3389" style="stop-color:#DA7D12"/>
		<stop  offset="0.5993" style="stop-color:#CE760D"/>
		<stop  offset="0.8602" style="stop-color:#BA6C05"/>
		<stop  offset="0.987" style="stop-color:#AD6500"/>
	</radialGradient>
	<path id="XMLID_20_" class="st33" d="M102,92.2c0,0.7-0.5,1.2-1.1,1.2c-0.6-0.1-1-0.7-1-1.4c0-0.7,0.5-1.2,1.1-1.2
		S102,91.4,102,92.2z"/>
	
		<radialGradient id="SVGID_7_" cx="-485.9913" cy="231.7711" r="29.9499" gradientTransform="matrix(-7.170374e-02 7.376364e-04 -2.530766e-03 8.943549e-02 69.4556 65.3932)" gradientUnits="userSpaceOnUse">
		<stop  offset="8.130000e-02" style="stop-color:#DE7F14"/>
		<stop  offset="0.3389" style="stop-color:#DA7D12"/>
		<stop  offset="0.5993" style="stop-color:#CE760D"/>
		<stop  offset="0.8602" style="stop-color:#BA6C05"/>
		<stop  offset="0.987" style="stop-color:#AD6500"/>
	</radialGradient>
	<path class="st34" d="M101.1,86.7c0,0.9,0.6,1.7,1.3,1.8c0.7,0.1,1.3-0.5,1.4-1.3l0,0h-0.1h0.2c0-0.1,0-0.1,0-0.2
		c0-0.7-0.6-1.4-1.4-1.5c-0.7-0.1-1.2,0.3-1.4,0.9C101.1,86.5,101.1,86.6,101.1,86.7z"/>
	
		<radialGradient id="XMLID_79_" cx="-131.3573" cy="507.0074" r="15.0512" gradientTransform="matrix(-5.359031e-02 6.232429e-02 3.906459e-02 5.252853e-02 77.3869 64.3619)" gradientUnits="userSpaceOnUse">
		<stop  offset="8.750000e-02" style="stop-color:#D99914"/>
		<stop  offset="0.4098" style="stop-color:#D59612"/>
		<stop  offset="0.735" style="stop-color:#C98D0D"/>
		<stop  offset="0.987" style="stop-color:#BA8207"/>
	</radialGradient>
	<path id="XMLID_19_" class="st35" d="M104.4,83.6c0,0.3-0.3,0.6-0.7,0.5s-0.7-0.3-0.7-0.7c0-0.3,0.3-0.6,0.7-0.5
		C104.2,83,104.5,83.3,104.4,83.6z"/>
	
		<radialGradient id="XMLID_80_" cx="-518.0466" cy="292.0733" r="33.2144" gradientTransform="matrix(-7.170374e-02 7.376364e-04 -2.530766e-03 8.943549e-02 69.4556 65.3932)" gradientUnits="userSpaceOnUse">
		<stop  offset="8.130000e-02" style="stop-color:#DE7F14"/>
		<stop  offset="0.3389" style="stop-color:#DA7D12"/>
		<stop  offset="0.5993" style="stop-color:#CE760D"/>
		<stop  offset="0.8602" style="stop-color:#BA6C05"/>
		<stop  offset="0.987" style="stop-color:#AD6500"/>
	</radialGradient>
	<path id="XMLID_18_" class="st36" d="M107.1,91.8c0,1.2-0.9,2.1-1.9,2s-1.8-1.2-1.7-2.4c0-1.2,0.9-2.1,1.9-2
		C106.4,89.6,107.2,90.7,107.1,91.8z"/>
	
		<radialGradient id="XMLID_81_" cx="-511.2833" cy="221.615" r="23.1252" gradientTransform="matrix(-7.170374e-02 7.376364e-04 -2.530766e-03 8.943549e-02 69.4556 65.3932)" gradientUnits="userSpaceOnUse">
		<stop  offset="8.750000e-02" style="stop-color:#D99914"/>
		<stop  offset="0.4098" style="stop-color:#D59612"/>
		<stop  offset="0.735" style="stop-color:#C98D0D"/>
		<stop  offset="0.987" style="stop-color:#BA8207"/>
	</radialGradient>
	<path id="XMLID_17_" class="st37" d="M107.6,85.8c0,0.5-0.5,0.8-1.1,0.7s-1-0.5-1-0.9c0-0.5,0.5-0.8,1.1-0.7S107.6,85.3,107.6,85.8
		z"/>
	
		<radialGradient id="XMLID_82_" cx="-605.0422" cy="309.4997" r="12.5642" gradientTransform="matrix(-7.170374e-02 7.376364e-04 -2.530766e-03 8.943549e-02 69.4556 65.3932)" gradientUnits="userSpaceOnUse">
		<stop  offset="8.130000e-02" style="stop-color:#DE7F14"/>
		<stop  offset="0.3389" style="stop-color:#DA7D12"/>
		<stop  offset="0.5993" style="stop-color:#CE760D"/>
		<stop  offset="0.8602" style="stop-color:#BA6C05"/>
		<stop  offset="0.987" style="stop-color:#AD6500"/>
	</radialGradient>
	<path id="XMLID_16_" class="st38" d="M112.5,93c0,0.6-0.4,1.1-0.9,1c-0.5-0.1-0.9-0.6-0.9-1.2s0.4-1.1,0.9-1
		C112.1,91.9,112.5,92.4,112.5,93z"/>
	
		<radialGradient id="SVGID_8_" cx="-575.8096" cy="261.6048" r="18.7362" gradientTransform="matrix(-7.170374e-02 7.376364e-04 -2.530766e-03 8.943549e-02 69.4556 65.3932)" gradientUnits="userSpaceOnUse">
		<stop  offset="8.600000e-02" style="stop-color:#C77315"/>
		<stop  offset="0.3774" style="stop-color:#C37113"/>
		<stop  offset="0.6718" style="stop-color:#B76C0F"/>
		<stop  offset="0.9669" style="stop-color:#A36407"/>
		<stop  offset="0.987" style="stop-color:#A16306"/>
	</radialGradient>
	<path class="st39" d="M109.1,89c0,0.4,0.3,0.8,0.7,0.8c0.4,0,0.7-0.3,0.7-0.7V89l0,0c0-0.3-0.3-0.6-0.7-0.6c-0.3,0-0.5,0.1-0.6,0.3
		l0,0C109.1,88.7,109.1,88.8,109.1,89z"/>
	
		<radialGradient id="XMLID_83_" cx="-599.7963" cy="213.057" r="9.3216" gradientTransform="matrix(-7.170374e-02 7.376364e-04 -2.530766e-03 8.943549e-02 69.4556 65.3932)" gradientUnits="userSpaceOnUse">
		<stop  offset="8.130000e-02" style="stop-color:#DE7F14"/>
		<stop  offset="0.3389" style="stop-color:#DA7D12"/>
		<stop  offset="0.5993" style="stop-color:#CE760D"/>
		<stop  offset="0.8602" style="stop-color:#BA6C05"/>
		<stop  offset="0.987" style="stop-color:#AD6500"/>
	</radialGradient>
	<path id="XMLID_15_" class="st40" d="M112,84.2c0,0.3-0.2,0.6-0.5,0.5s-0.5-0.3-0.5-0.6c0-0.3,0.2-0.6,0.5-0.5
		C111.8,83.6,112,83.9,112,84.2z"/>
</g>
<g class="st2">
	<path class="st3" d="M105,82.7l7.9,0.1l0.5,12.6l-13.3-0.8c-0.3,0-0.6-0.4-0.6-0.9c0-1.5-0.1-3.1-0.2-4.6c0-1.1,0-5.2,0-6.3
		 M98.9,82.2c-0.1,0.4-0.1,2.9-0.1,3.4c0,0.1,0,0.2,0,0.3c0.1,2.6,0.2,5.3,0.3,7.9c0,0.8,0.4,1.4,0.9,1.4l13.7,0.8l-0.2-13.8"/>
</g>
<polyline class="st0" points="176.7,13.2 177.1,18.1 162.8,18.9 162.4,14.2 "/>
<g id="Layer_1_5_">
	
		<linearGradient id="XMLID_84_" gradientUnits="userSpaceOnUse" x1="-207.3775" y1="19.7554" x2="-207.3775" y2="19.7554" gradientTransform="matrix(-0.629 3.356506e-02 4.312376e-02 0.8081 42.3023 13.9091)">
		<stop  offset="1.970000e-02" style="stop-color:#F7BC00"/>
		<stop  offset="1" style="stop-color:#FCD73E"/>
	</linearGradient>
	<path id="XMLID_38_" class="st41" d="M173.6,22.9"/>
	
		<linearGradient id="XMLID_85_" gradientUnits="userSpaceOnUse" x1="-194.8254" y1="30.9849" x2="-194.8254" y2="37.8628" gradientTransform="matrix(-0.6528 3.483554e-02 4.664839e-02 0.8742 41.5748 -0.142)">
		<stop  offset="1.970000e-02" style="stop-color:#F7BC00"/>
		<stop  offset="1" style="stop-color:#FCD73E"/>
	</linearGradient>
	<path id="XMLID_37_" class="st42" d="M177.1,18.1l0.8,8.5L164.1,27c-0.6-0.1-0.5-0.2-0.6-0.9c-0.1-2.4-0.6-4.7-0.7-7.1
		c0-0.4,0.1,0,0.4-0.2"/>
	
		<linearGradient id="XMLID_86_" gradientUnits="userSpaceOnUse" x1="-209.4384" y1="19.841" x2="-209.4384" y2="19.841" gradientTransform="matrix(-0.629 3.356506e-02 4.312376e-02 0.8081 42.3023 13.9091)">
		<stop  offset="1.970000e-02" style="stop-color:#F7BC00"/>
		<stop  offset="1" style="stop-color:#FCD73E"/>
	</linearGradient>
	<path id="XMLID_36_" class="st43" d="M174.9,22.9"/>
	<path class="st0" d="M175.3,19.7"/>
	<path class="st0" d="M170.1,20"/>
	<path class="st0" d="M166.9,22.8"/>
	
		<radialGradient id="SVGID_9_" cx="-1394.4028" cy="-470.6049" r="29.9499" gradientTransform="matrix(-7.147571e-02 5.761270e-03 3.743657e-03 8.939293e-02 69.3761 67.4671)" gradientUnits="userSpaceOnUse">
		<stop  offset="8.130000e-02" style="stop-color:#DE7F14"/>
		<stop  offset="0.3389" style="stop-color:#DA7D12"/>
		<stop  offset="0.5993" style="stop-color:#CE760D"/>
		<stop  offset="0.8602" style="stop-color:#BA6C05"/>
		<stop  offset="0.987" style="stop-color:#AD6500"/>
	</radialGradient>
	<path class="st44" d="M164.8,18.5c0,0.9,0.7,1.7,1.5,1.7c0.7,0,1.3-0.6,1.3-1.4l0,0h-0.1h0.2c0-0.1,0-0.1,0-0.2
		c0-0.7-0.7-1.3-1.5-1.4c-0.7,0-1.2,0.4-1.3,1C164.8,18.3,164.8,18.4,164.8,18.5z"/>
	
		<radialGradient id="XMLID_87_" cx="-1273.3301" cy="653.3132" r="15.0512" gradientTransform="matrix(-4.909045e-02 6.592698e-02 4.265006e-02 4.966146e-02 77.2155 65.8825)" gradientUnits="userSpaceOnUse">
		<stop  offset="8.750000e-02" style="stop-color:#D99914"/>
		<stop  offset="0.4098" style="stop-color:#D59612"/>
		<stop  offset="0.735" style="stop-color:#C98D0D"/>
		<stop  offset="0.987" style="stop-color:#BA8207"/>
	</radialGradient>
	<path id="XMLID_33_" class="st45" d="M167.9,15.2c0,0.3-0.3,0.6-0.7,0.6s-0.7-0.3-0.7-0.6s0.3-0.6,0.7-0.6
		C167.6,14.6,167.9,14.9,167.9,15.2z"/>
	
		<radialGradient id="XMLID_88_" cx="-1426.4581" cy="-410.3026" r="33.2144" gradientTransform="matrix(-7.147571e-02 5.761270e-03 3.743657e-03 8.939293e-02 69.3761 67.4671)" gradientUnits="userSpaceOnUse">
		<stop  offset="8.130000e-02" style="stop-color:#DE7F14"/>
		<stop  offset="0.3389" style="stop-color:#DA7D12"/>
		<stop  offset="0.5993" style="stop-color:#CE760D"/>
		<stop  offset="0.8602" style="stop-color:#BA6C05"/>
		<stop  offset="0.987" style="stop-color:#AD6500"/>
	</radialGradient>
	<path id="XMLID_31_" class="st46" d="M171.2,23.2c0.1,1.2-0.7,2.1-1.7,2.1s-1.9-1-1.9-2.2c-0.1-1.2,0.7-2.1,1.7-2.1
		S171.1,22,171.2,23.2z"/>
	
		<radialGradient id="XMLID_89_" cx="-1419.6947" cy="-480.761" r="23.1252" gradientTransform="matrix(-7.147571e-02 5.761270e-03 3.743657e-03 8.939293e-02 69.3761 67.4671)" gradientUnits="userSpaceOnUse">
		<stop  offset="8.750000e-02" style="stop-color:#D99914"/>
		<stop  offset="0.4098" style="stop-color:#D59612"/>
		<stop  offset="0.735" style="stop-color:#C98D0D"/>
		<stop  offset="0.987" style="stop-color:#BA8207"/>
	</radialGradient>
	<path id="XMLID_27_" class="st47" d="M171.2,17.1c0,0.5-0.4,0.8-1,0.8c-0.6,0-1.1-0.4-1.1-0.9s0.4-0.8,1-0.8
		C170.7,16.3,171.2,16.6,171.2,17.1z"/>
	
		<radialGradient id="XMLID_90_" cx="-1513.4536" cy="-392.8763" r="12.5642" gradientTransform="matrix(-7.147571e-02 5.761270e-03 3.743657e-03 8.939293e-02 69.3761 67.4671)" gradientUnits="userSpaceOnUse">
		<stop  offset="8.130000e-02" style="stop-color:#DE7F14"/>
		<stop  offset="0.3389" style="stop-color:#DA7D12"/>
		<stop  offset="0.5993" style="stop-color:#CE760D"/>
		<stop  offset="0.8602" style="stop-color:#BA6C05"/>
		<stop  offset="0.987" style="stop-color:#AD6500"/>
	</radialGradient>
	<path id="XMLID_26_" class="st48" d="M176.6,24c0,0.6-0.4,1.1-0.9,1.1s-0.9-0.5-1-1.1c0-0.6,0.4-1.1,0.9-1.1S176.5,23.4,176.6,24z"
		/>
	
		<radialGradient id="XMLID_91_" cx="-1508.2079" cy="-489.319" r="9.3216" gradientTransform="matrix(-7.147571e-02 5.761270e-03 3.743657e-03 8.939293e-02 69.3761 67.4671)" gradientUnits="userSpaceOnUse">
		<stop  offset="8.130000e-02" style="stop-color:#DE7F14"/>
		<stop  offset="0.3389" style="stop-color:#DA7D12"/>
		<stop  offset="0.5993" style="stop-color:#CE760D"/>
		<stop  offset="0.8602" style="stop-color:#BA6C05"/>
		<stop  offset="0.987" style="stop-color:#AD6500"/>
	</radialGradient>
	<path id="XMLID_23_" class="st49" d="M175.5,15.3c0,0.3-0.2,0.6-0.5,0.6s-0.5-0.3-0.5-0.6s0.2-0.6,0.5-0.6S175.5,14.9,175.5,15.3z"
		/>
</g>
<g class="st2">
	<path class="st3" d="M168.4,14.2l7.9-0.5l1.4,12.6l-13.3,0.1c-0.3,0-0.6-0.4-0.7-0.8c-0.2-1.5-0.3-3.1-0.5-4.5
		c-0.1-1.1-0.3-5.2-0.5-6.3 M162.3,14.2c0,0.4,0.1,2.9,0.1,3.4c0,0.1,0,0.2,0,0.3c0.3,2.6,0.6,5.2,0.9,7.9c0.1,0.8,0.5,1.4,1,1.4
		l13.8-0.1l-1.2-13.8"/>
</g>
<polyline class="st0" points="97.3,81.7 97.3,86.7 83,86.6 83,81.8 "/>
<g id="Layer_1_6_">
	
		<linearGradient id="XMLID_92_" gradientUnits="userSpaceOnUse" x1="-74.9637" y1="98.4495" x2="-74.9637" y2="98.4495" gradientTransform="matrix(-0.6298 -7.704486e-03 -9.896782e-03 0.8092 47.278 10.9186)">
		<stop  offset="1.970000e-02" style="stop-color:#F7BC00"/>
		<stop  offset="1" style="stop-color:#FCD73E"/>
	</linearGradient>
	<path id="XMLID_45_" class="st50" d="M93.5,91.2"/>
	
		<linearGradient id="XMLID_93_" gradientUnits="userSpaceOnUse" x1="-67.3119" y1="103.7911" x2="-67.3119" y2="110.669" gradientTransform="matrix(-0.6537 -7.995558e-03 -1.070906e-02 0.8754 47.4723 -3.15)">
		<stop  offset="1.970000e-02" style="stop-color:#F7BC00"/>
		<stop  offset="1" style="stop-color:#FCD73E"/>
	</linearGradient>
	<path id="XMLID_44_" class="st51" d="M97.4,86.7l0.2,8.5l-13.9-0.6c-0.6-0.1-0.5-0.2-0.5-0.9c0.1-2.4-0.3-4.7-0.2-7.1
		c0-0.4,0.1,0,0.4-0.2"/>
	
		<linearGradient id="XMLID_94_" gradientUnits="userSpaceOnUse" x1="-77.1747" y1="98.6651" x2="-77.1747" y2="98.6651" gradientTransform="matrix(-0.6298 -7.704486e-03 -9.896782e-03 0.8092 47.278 10.9186)">
		<stop  offset="1.970000e-02" style="stop-color:#F7BC00"/>
		<stop  offset="1" style="stop-color:#FCD73E"/>
	</linearGradient>
	<path id="XMLID_43_" class="st52" d="M94.9,91.4"/>
	<path class="st0" d="M95.5,88.1"/>
	<path class="st0" d="M90.2,88.1"/>
	<path class="st0" d="M86.9,90.7"/>
	
		<radialGradient id="SVGID_10_" cx="-315.5729" cy="221.5598" r="29.9499" gradientTransform="matrix(-7.169957e-02 1.067471e-03 -2.119330e-03 8.944618e-02 70.7857 66.1349)" gradientUnits="userSpaceOnUse">
		<stop  offset="8.130000e-02" style="stop-color:#DE7F14"/>
		<stop  offset="0.3389" style="stop-color:#DA7D12"/>
		<stop  offset="0.5993" style="stop-color:#CE760D"/>
		<stop  offset="0.8602" style="stop-color:#BA6C05"/>
		<stop  offset="0.987" style="stop-color:#AD6500"/>
	</radialGradient>
	<path class="st53" d="M90.4,86.5c-0.1,0.9,0.6,1.7,1.4,1.8c0.7,0,1.3-0.5,1.4-1.3l0,0l-0.1,0l0.2,0c0-0.1,0-0.1,0-0.2
		c0-0.7-0.6-1.3-1.4-1.5c-0.7,0-1.2,0.3-1.4,0.9C90.4,86.3,90.4,86.4,90.4,86.5z"/>
	
		<radialGradient id="XMLID_95_" cx="35.333" cy="287.111" r="15.0512" gradientTransform="matrix(-5.330304e-02 6.257015e-02 3.930581e-02 5.234827e-02 78.7121 65.0671)" gradientUnits="userSpaceOnUse">
		<stop  offset="8.750000e-02" style="stop-color:#D99914"/>
		<stop  offset="0.4098" style="stop-color:#D59612"/>
		<stop  offset="0.735" style="stop-color:#C98D0D"/>
		<stop  offset="0.987" style="stop-color:#BA8207"/>
	</radialGradient>
	<path id="XMLID_42_" class="st54" d="M88.3,83.1c0,0.3-0.3,0.6-0.7,0.6c-0.4,0-0.7-0.3-0.7-0.6c0-0.3,0.3-0.6,0.7-0.6
		C88.1,82.5,88.4,82.8,88.3,83.1z"/>
	
		<radialGradient id="XMLID_96_" cx="-360.1296" cy="294.4874" r="12.5642" gradientTransform="matrix(-7.169957e-02 1.067471e-03 -2.119330e-03 8.944618e-02 70.7857 66.1349)" gradientUnits="userSpaceOnUse">
		<stop  offset="8.130000e-02" style="stop-color:#DE7F14"/>
		<stop  offset="0.3389" style="stop-color:#DA7D12"/>
		<stop  offset="0.5993" style="stop-color:#CE760D"/>
		<stop  offset="0.8602" style="stop-color:#BA6C05"/>
		<stop  offset="0.987" style="stop-color:#AD6500"/>
	</radialGradient>
	<path id="XMLID_39_" class="st55" d="M96.4,92.5c0,0.6-0.5,1.1-1,1c-0.5,0-0.9-0.6-0.9-1.2c0-0.6,0.5-1.1,1-1
		C96,91.3,96.5,91.9,96.4,92.5z"/>
	
		<radialGradient id="XMLID_97_" cx="-354.8839" cy="198.0447" r="9.3216" gradientTransform="matrix(-7.169957e-02 1.067471e-03 -2.119330e-03 8.944618e-02 70.7857 66.1349)" gradientUnits="userSpaceOnUse">
		<stop  offset="8.130000e-02" style="stop-color:#DE7F14"/>
		<stop  offset="0.3389" style="stop-color:#DA7D12"/>
		<stop  offset="0.5993" style="stop-color:#CE760D"/>
		<stop  offset="0.8602" style="stop-color:#BA6C05"/>
		<stop  offset="0.987" style="stop-color:#AD6500"/>
	</radialGradient>
	<path id="XMLID_34_" class="st56" d="M96,83.7c0,0.3-0.2,0.6-0.5,0.6c-0.3,0-0.5-0.3-0.5-0.6c0-0.3,0.2-0.6,0.5-0.6
		C95.8,83.1,95.9,83.4,96,83.7z"/>
</g>
<g class="st2">
	<path class="st3" d="M89,82.2l7.9,0l0.6,12.7l-13.3-0.8c-0.3,0-0.6-0.4-0.6-0.8c-0.1-1.5-0.1-3.1-0.2-4.5c0-1.1,0-5.2-0.1-6.3
		 M82.9,81.8c0,0.4-0.1,2.9-0.1,3.4c0,0.1,0,0.2,0,0.3c0.1,2.6,0.3,5.2,0.4,7.9c0,0.8,0.4,1.4,0.9,1.5l13.8,0.8l-0.3-14"/>
</g>
<radialGradient id="XMLID_98_" cx="-239.2086" cy="277.3917" r="33.2144" gradientTransform="matrix(-7.169957e-02 1.067471e-03 -2.119330e-03 8.944618e-02 70.7857 66.1349)" gradientUnits="userSpaceOnUse">
	<stop  offset="8.130000e-02" style="stop-color:#DE7F14"/>
	<stop  offset="0.3389" style="stop-color:#DA7D12"/>
	<stop  offset="0.5993" style="stop-color:#CE760D"/>
	<stop  offset="0.8602" style="stop-color:#BA6C05"/>
	<stop  offset="0.987" style="stop-color:#AD6500"/>
</radialGradient>
<path id="XMLID_41_" class="st57" d="M88.7,91.4c0,1.2-0.8,2-1.8,2s-1.8-1.1-1.8-2.3c0-1.2,0.8-2,1.8-2
	C87.9,89.2,88.7,90.2,88.7,91.4z"/>
<polyline class="st0" points="106.4,68.2 106.3,73.2 92,72.9 92.1,68.1 "/>
<g id="Layer_1_7_">
	
		<linearGradient id="XMLID_99_" gradientUnits="userSpaceOnUse" x1="-91.3947" y1="83.3877" x2="-91.3947" y2="83.3877" gradientTransform="matrix(-0.6298 -1.213647e-02 -1.559072e-02 0.8091 46.2477 9.0401)">
		<stop  offset="1.970000e-02" style="stop-color:#F7BC00"/>
		<stop  offset="1" style="stop-color:#FCD73E"/>
	</linearGradient>
	<path id="XMLID_51_" class="st58" d="M102.5,77.6"/>
	
		<linearGradient id="XMLID_100_" gradientUnits="userSpaceOnUse" x1="-83.1438" y1="89.8682" x2="-83.1438" y2="96.7461" gradientTransform="matrix(-0.6536 -1.259524e-02 -1.686874e-02 0.8753 46.5411 -5.0268)">
		<stop  offset="1.970000e-02" style="stop-color:#F7BC00"/>
		<stop  offset="1" style="stop-color:#FCD73E"/>
	</linearGradient>
	<path id="XMLID_50_" class="st59" d="M106.4,73.2l0.2,8.5L92.7,81c-0.6-0.1-0.5-0.2-0.5-0.9c0.1-2.4-0.3-4.7-0.2-7.1
		c0-0.4,0.1,0,0.4-0.2"/>
	
		<linearGradient id="XMLID_101_" gradientUnits="userSpaceOnUse" x1="-93.6057" y1="83.6033" x2="-93.6057" y2="83.6033" gradientTransform="matrix(-0.6298 -1.213647e-02 -1.559072e-02 0.8091 46.2477 9.0401)">
		<stop  offset="1.970000e-02" style="stop-color:#F7BC00"/>
		<stop  offset="1" style="stop-color:#FCD73E"/>
	</linearGradient>
	<path id="XMLID_49_" class="st60" d="M103.9,77.8"/>
	<path class="st0" d="M104.5,74.6"/>
	<path class="st0" d="M99.2,74.6"/>
	<path class="st0" d="M95.9,77.1"/>
	
		<radialGradient id="SVGID_11_" cx="-458.055" cy="88.4163" r="29.9499" gradientTransform="matrix(-7.170531e-02 5.629018e-04 -2.748701e-03 8.942905e-02 69.3663 64.4204)" gradientUnits="userSpaceOnUse">
		<stop  offset="8.130000e-02" style="stop-color:#DE7F14"/>
		<stop  offset="0.3389" style="stop-color:#DA7D12"/>
		<stop  offset="0.5993" style="stop-color:#CE760D"/>
		<stop  offset="0.8602" style="stop-color:#BA6C05"/>
		<stop  offset="0.987" style="stop-color:#AD6500"/>
	</radialGradient>
	<path class="st61" d="M99.4,73c-0.1,0.9,0.6,1.7,1.4,1.8c0.7,0.1,1.3-0.5,1.4-1.3l0,0l-0.1,0l0.2,0c0-0.1,0-0.1,0-0.2
		c0.1-0.7-0.6-1.3-1.4-1.5c-0.7-0.1-1.2,0.3-1.4,0.9C99.4,72.8,99.4,72.9,99.4,73z"/>
	
		<radialGradient id="XMLID_102_" cx="-159.6565" cy="289.771" r="15.0512" gradientTransform="matrix(-5.374203e-02 6.219351e-02 3.893647e-02 5.262356e-02 77.3 63.4084)" gradientUnits="userSpaceOnUse">
		<stop  offset="8.750000e-02" style="stop-color:#D99914"/>
		<stop  offset="0.4098" style="stop-color:#D59612"/>
		<stop  offset="0.735" style="stop-color:#C98D0D"/>
		<stop  offset="0.987" style="stop-color:#BA8207"/>
	</radialGradient>
	<path id="XMLID_48_" class="st62" d="M97.4,69.5c0,0.3-0.3,0.6-0.7,0.5c-0.4,0-0.7-0.3-0.7-0.6c0-0.3,0.3-0.6,0.7-0.5
		S97.4,69.2,97.4,69.5z"/>
	
		<radialGradient id="XMLID_103_" cx="-502.6117" cy="161.3439" r="12.5642" gradientTransform="matrix(-7.170531e-02 5.629018e-04 -2.748701e-03 8.942905e-02 69.3663 64.4204)" gradientUnits="userSpaceOnUse">
		<stop  offset="8.130000e-02" style="stop-color:#DE7F14"/>
		<stop  offset="0.3389" style="stop-color:#DA7D12"/>
		<stop  offset="0.5993" style="stop-color:#CE760D"/>
		<stop  offset="0.8602" style="stop-color:#BA6C05"/>
		<stop  offset="0.987" style="stop-color:#AD6500"/>
	</radialGradient>
	<path id="XMLID_47_" class="st63" d="M105.4,78.9c0,0.6-0.5,1.1-1,1c-0.5,0-0.9-0.6-0.9-1.2c0-0.6,0.5-1.1,1-1
		C105,77.8,105.5,78.3,105.4,78.9z"/>
	
		<radialGradient id="XMLID_104_" cx="-497.366" cy="64.9012" r="9.3216" gradientTransform="matrix(-7.170531e-02 5.629018e-04 -2.748701e-03 8.942905e-02 69.3663 64.4204)" gradientUnits="userSpaceOnUse">
		<stop  offset="8.130000e-02" style="stop-color:#DE7F14"/>
		<stop  offset="0.3389" style="stop-color:#DA7D12"/>
		<stop  offset="0.5993" style="stop-color:#CE760D"/>
		<stop  offset="0.8602" style="stop-color:#BA6C05"/>
		<stop  offset="0.987" style="stop-color:#AD6500"/>
	</radialGradient>
	<path id="XMLID_46_" class="st64" d="M105.1,70.2c0,0.3-0.2,0.6-0.5,0.6c-0.3,0-0.5-0.3-0.5-0.6c0-0.3,0.2-0.6,0.5-0.6
		C104.8,69.6,105,69.9,105.1,70.2z"/>
</g>
<g class="st2">
	<path class="st3" d="M98,68.7l7.9,0.1l0.5,12.7l-13.3-0.9c-0.3,0-0.6-0.4-0.6-0.8c-0.1-1.5-0.1-3.1-0.2-4.5c0-1.1,0.1-5.2,0-6.3
		 M92,68.2c0,0.4-0.1,2.9-0.1,3.4c0,0.1,0,0.2,0,0.3c0.1,2.6,0.2,5.2,0.3,7.9c0,0.8,0.4,1.4,0.9,1.5l13.8,0.9l-0.2-14.1"/>
</g>
<radialGradient id="XMLID_105_" cx="-381.6907" cy="144.2482" r="33.2144" gradientTransform="matrix(-7.170531e-02 5.629018e-04 -2.748701e-03 8.942905e-02 69.3663 64.4204)" gradientUnits="userSpaceOnUse">
	<stop  offset="8.130000e-02" style="stop-color:#DE7F14"/>
	<stop  offset="0.3389" style="stop-color:#DA7D12"/>
	<stop  offset="0.5993" style="stop-color:#CE760D"/>
	<stop  offset="0.8602" style="stop-color:#BA6C05"/>
	<stop  offset="0.987" style="stop-color:#AD6500"/>
</radialGradient>
<path id="XMLID_40_" class="st65" d="M97.7,77.9c0,1.2-0.9,2-1.8,2c-1-0.1-1.8-1.1-1.7-2.3c0-1.2,0.9-2,1.8-2S97.7,76.7,97.7,77.9z"
	/>
</svg>
