<svg id="Layer_1" data-name="Layer 1" xmlns="http://www.w3.org/2000/svg" xmlns:xlink="http://www.w3.org/1999/xlink" viewBox="0 0 312 312"><defs><style>.cls-1{fill:url(#linear-gradient);}.cls-2{fill:url(#linear-gradient-2);}.cls-3{fill:url(#linear-gradient-3);}.cls-4{fill:url(#linear-gradient-4);}.cls-5{fill:url(#linear-gradient-5);}.cls-6{fill:url(#linear-gradient-6);}.cls-7{fill:url(#linear-gradient-7);}.cls-8{fill:url(#linear-gradient-8);}.cls-9{fill:url(#linear-gradient-9);}.cls-10{fill:url(#linear-gradient-10);}.cls-11{fill:url(#linear-gradient-11);}.cls-12{fill:url(#linear-gradient-12);}.cls-13{fill:url(#linear-gradient-13);}.cls-14{fill:url(#linear-gradient-14);}.cls-15{fill:url(#linear-gradient-15);}.cls-16{fill:url(#linear-gradient-16);}.cls-17{fill:url(#linear-gradient-17);}.cls-18{fill:url(#linear-gradient-18);}.cls-19{fill:url(#linear-gradient-19);}.cls-20{fill:url(#radial-gradient);}.cls-21{fill:url(#linear-gradient-20);}.cls-22{fill:url(#linear-gradient-21);}</style><linearGradient id="linear-gradient" x1="-233.01" y1="486.1" x2="-207.22" y2="460.31" gradientTransform="matrix(1, 0, 0, -1, 302.5, 673)" gradientUnits="userSpaceOnUse"><stop offset="0" stop-color="#ffb5b0"/><stop offset="1" stop-color="#ff70ac"/></linearGradient><linearGradient id="linear-gradient-2" x1="-74.87" y1="602.58" x2="-49.08" y2="576.79" xlink:href="#linear-gradient"/><linearGradient id="linear-gradient-3" x1="-15.21" y1="620.33" x2="23.35" y2="581.78" xlink:href="#linear-gradient"/><linearGradient id="linear-gradient-4" x1="-51.79" y1="499.53" x2="-51.79" y2="460.31" gradientTransform="matrix(1, 0, 0, -1, 302.5, 673)" gradientUnits="userSpaceOnUse"><stop offset="0" stop-color="#ffc738"/><stop offset="0.23" stop-color="#fec33a"/><stop offset="0.45" stop-color="#fbb840"/><stop offset="0.65" stop-color="#f6a649"/><stop offset="0.84" stop-color="#f08d56"/><stop offset="1" stop-color="#e97264"/></linearGradient><linearGradient id="linear-gradient-5" x1="-47.84" y1="531.62" x2="-60.71" y2="389.34" gradientTransform="matrix(1, 0, 0, -1, 302.5, 673)" gradientUnits="userSpaceOnUse"><stop offset="0" stop-color="#fca17a" stop-opacity="0"/><stop offset="0.15" stop-color="#f69373" stop-opacity="0.15"/><stop offset="0.42" stop-color="#ef816b" stop-opacity="0.42"/><stop offset="0.69" stop-color="#ea7666" stop-opacity="0.69"/><stop offset="1" stop-color="#e97264"/></linearGradient><linearGradient id="linear-gradient-6" x1="-48.32" y1="526.28" x2="-59.62" y2="401.4" xlink:href="#linear-gradient-5"/><linearGradient id="linear-gradient-7" x1="-51.79" y1="457.82" x2="-51.79" y2="418.59" xlink:href="#linear-gradient-4"/><linearGradient id="linear-gradient-8" x1="-47.84" y1="489.9" x2="-60.71" y2="347.63" xlink:href="#linear-gradient-5"/><linearGradient id="linear-gradient-9" x1="-48.32" y1="484.57" x2="-59.62" y2="359.69" xlink:href="#linear-gradient-5"/><linearGradient id="linear-gradient-10" x1="-51.79" y1="416.1" x2="-51.79" y2="376.87" xlink:href="#linear-gradient-4"/><linearGradient id="linear-gradient-11" x1="-47.84" y1="448.19" x2="-60.71" y2="305.91" xlink:href="#linear-gradient-5"/><linearGradient id="linear-gradient-12" x1="-48.32" y1="442.85" x2="-59.62" y2="317.97" xlink:href="#linear-gradient-5"/><linearGradient id="linear-gradient-13" x1="-51.79" y1="374.38" x2="-51.79" y2="335.16" xlink:href="#linear-gradient-4"/><linearGradient id="linear-gradient-14" x1="-47.84" y1="406.47" x2="-60.71" y2="264.2" xlink:href="#linear-gradient-5"/><linearGradient id="linear-gradient-15" x1="-48.32" y1="401.14" x2="-59.62" y2="276.26" xlink:href="#linear-gradient-5"/><linearGradient id="linear-gradient-16" x1="-552.2" y1="887.79" x2="-536.96" y2="863.67" gradientTransform="matrix(0.71, 0.71, 0.71, -0.71, -0.89, 1123.7)" gradientUnits="userSpaceOnUse"><stop offset="0" stop-color="#f9f7fc"/><stop offset="1" stop-color="#f0ddfc"/></linearGradient><linearGradient id="linear-gradient-17" x1="-551.25" y1="712.72" x2="-495.78" y2="712.72" gradientTransform="matrix(0.71, 0.71, 0.71, -0.71, -0.89, 1123.7)" gradientUnits="userSpaceOnUse"><stop offset="0" stop-color="#00e7b2"/><stop offset="0.41" stop-color="#1fa999"/><stop offset="1" stop-color="#4f4a72"/></linearGradient><linearGradient id="linear-gradient-18" x1="-593.62" y1="836.94" x2="-313.1" y2="836.94" xlink:href="#linear-gradient-16"/><linearGradient id="linear-gradient-19" x1="-485.2" y1="818.1" x2="-557.19" y2="864.56" gradientTransform="matrix(0.71, 0.71, 0.71, -0.71, -0.89, 1123.7)" gradientUnits="userSpaceOnUse"><stop offset="0" stop-color="#f0ddfc" stop-opacity="0"/><stop offset="0.29" stop-color="#c8b7e0" stop-opacity="0.29"/><stop offset="0.59" stop-color="#a595c8" stop-opacity="0.59"/><stop offset="0.84" stop-color="#8f81b8" stop-opacity="0.84"/><stop offset="1" stop-color="#8779b3"/></linearGradient><radialGradient id="radial-gradient" cx="-599.3" cy="1223.84" r="21.59" gradientTransform="matrix(5.08, 5.08, 5.08, -5.08, -3047.86, 9491.4)" gradientUnits="userSpaceOnUse"><stop offset="0" stop-color="#f0ddfc" stop-opacity="0"/><stop offset="0.45" stop-color="#eedbfb" stop-opacity="0.45"/><stop offset="0.61" stop-color="#e7d5f6" stop-opacity="0.6"/><stop offset="0.72" stop-color="#dcc9ee" stop-opacity="0.72"/><stop offset="0.81" stop-color="#cbb9e2" stop-opacity="0.81"/><stop offset="0.89" stop-color="#b5a4d3" stop-opacity="0.89"/><stop offset="0.96" stop-color="#9a8bc0" stop-opacity="0.96"/><stop offset="1" stop-color="#8779b3"/></radialGradient><linearGradient id="linear-gradient-20" x1="-518.87" y1="808.44" x2="-579.09" y2="868.65" gradientTransform="matrix(0.71, 0.71, 0.71, -0.71, -0.89, 1123.7)" gradientUnits="userSpaceOnUse"><stop offset="0" stop-color="#3b395f" stop-opacity="0"/><stop offset="1" stop-color="#3b395f"/></linearGradient><linearGradient id="linear-gradient-21" x1="-85.85" y1="555.51" x2="-85.85" y2="523.58" gradientTransform="matrix(1, 0, 0, -1, 302.5, 673)" xlink:href="#linear-gradient-16"/></defs><path class="cls-1" d="M100.38,192.08c-11-3.68-19.7-13.81-22.89-26.68a1.34,1.34,0,0,0-1.29-1h-.07a1.34,1.34,0,0,0-1.29,1C71.65,178.27,63,188.4,52,192.08a1.31,1.31,0,0,0-.89,1.25v.48a1.29,1.29,0,0,0,.89,1.25c11,3.68,19.7,13.82,22.89,26.69a1.33,1.33,0,0,0,1.29,1h.07a1.33,1.33,0,0,0,1.29-1c3.19-12.87,11.88-23,22.89-26.69a1.29,1.29,0,0,0,.89-1.25v-.48A1.31,1.31,0,0,0,100.38,192.08Z" transform="translate(-24 -19)"/><path class="cls-2" d="M258.53,75.6c-11-3.67-19.71-13.81-22.9-26.68a1.33,1.33,0,0,0-1.29-1h-.06a1.32,1.32,0,0,0-1.29,1c-3.2,12.87-11.89,23-22.9,26.68a1.31,1.31,0,0,0-.89,1.25v.49a1.31,1.31,0,0,0,.89,1.25c11,3.68,19.7,13.81,22.9,26.68a1.33,1.33,0,0,0,1.29,1h.06a1.33,1.33,0,0,0,1.29-1c3.19-12.87,11.88-23,22.9-26.68a1.33,1.33,0,0,0,.89-1.25v-.49A1.33,1.33,0,0,0,258.53,75.6Z" transform="translate(-24 -19)"/><path class="cls-3" d="M333.48,60.42C317,54.92,304,39.77,299.25,20.53A2,2,0,0,0,297.32,19h-.09a2,2,0,0,0-1.93,1.53c-4.78,19.24-17.77,34.39-34.23,39.89a2,2,0,0,0-1.33,1.87V63a2,2,0,0,0,1.33,1.87c16.46,5.49,29.45,20.64,34.23,39.88a2,2,0,0,0,1.93,1.53h.09a2,2,0,0,0,1.93-1.53C304,85.52,317,70.37,333.48,64.88A2,2,0,0,0,334.81,63v-.72A2,2,0,0,0,333.48,60.42Z" transform="translate(-24 -19)"/><path class="cls-4" d="M327.12,205.85H174.31a8.89,8.89,0,0,1-8.88-8.88V173a8.88,8.88,0,0,1,8.88-8.88H327.12A8.88,8.88,0,0,1,336,173V197A8.89,8.89,0,0,1,327.12,205.85Z" transform="translate(-24 -19)"/><path class="cls-5" d="M303.08,205.85H198.35a7.44,7.44,0,0,1-7.44-7.44V171.57a7.44,7.44,0,0,1,7.44-7.43H303.08a7.44,7.44,0,0,1,7.44,7.43v26.84A7.44,7.44,0,0,1,303.08,205.85Z" transform="translate(-24 -19)"/><path class="cls-6" d="M268.58,205.85H232.85a4.56,4.56,0,0,1-4.56-4.55V168.69a4.56,4.56,0,0,1,4.56-4.55h35.73a4.56,4.56,0,0,1,4.56,4.55V201.3A4.56,4.56,0,0,1,268.58,205.85Z" transform="translate(-24 -19)"/><path class="cls-7" d="M327.12,247.57H174.31a8.89,8.89,0,0,1-8.88-8.89V214.74a8.89,8.89,0,0,1,8.88-8.89H327.12a8.89,8.89,0,0,1,8.88,8.89v23.94A8.89,8.89,0,0,1,327.12,247.57Z" transform="translate(-24 -19)"/><path class="cls-8" d="M303.08,247.57H198.35a7.44,7.44,0,0,1-7.44-7.44V213.29a7.44,7.44,0,0,1,7.44-7.44H303.08a7.44,7.44,0,0,1,7.44,7.44v26.84A7.44,7.44,0,0,1,303.08,247.57Z" transform="translate(-24 -19)"/><path class="cls-9" d="M268.58,247.57H232.85a4.56,4.56,0,0,1-4.56-4.56v-32.6a4.56,4.56,0,0,1,4.56-4.56h35.73a4.56,4.56,0,0,1,4.56,4.56V243A4.56,4.56,0,0,1,268.58,247.57Z" transform="translate(-24 -19)"/><path class="cls-10" d="M327.12,289.28H174.31a8.88,8.88,0,0,1-8.88-8.88V256.45a8.89,8.89,0,0,1,8.88-8.88H327.12a8.89,8.89,0,0,1,8.88,8.88V280.4A8.88,8.88,0,0,1,327.12,289.28Z" transform="translate(-24 -19)"/><path class="cls-11" d="M303.08,289.28H198.35a7.44,7.44,0,0,1-7.44-7.43V255a7.44,7.44,0,0,1,7.44-7.44H303.08a7.44,7.44,0,0,1,7.44,7.44v26.84A7.44,7.44,0,0,1,303.08,289.28Z" transform="translate(-24 -19)"/><path class="cls-12" d="M268.58,289.28H232.85a4.56,4.56,0,0,1-4.56-4.55V252.12a4.56,4.56,0,0,1,4.56-4.55h35.73a4.56,4.56,0,0,1,4.56,4.55v32.61A4.56,4.56,0,0,1,268.58,289.28Z" transform="translate(-24 -19)"/><path class="cls-13" d="M327.12,331H174.31a8.89,8.89,0,0,1-8.88-8.88V298.17a8.89,8.89,0,0,1,8.88-8.89H327.12a8.89,8.89,0,0,1,8.88,8.89v23.95A8.89,8.89,0,0,1,327.12,331Z" transform="translate(-24 -19)"/><path class="cls-14" d="M303.08,331H198.35a7.44,7.44,0,0,1-7.44-7.44V296.72a7.44,7.44,0,0,1,7.44-7.44H303.08a7.44,7.44,0,0,1,7.44,7.44v26.84A7.44,7.44,0,0,1,303.08,331Z" transform="translate(-24 -19)"/><path class="cls-15" d="M268.58,331H232.85a4.56,4.56,0,0,1-4.56-4.56v-32.6a4.56,4.56,0,0,1,4.56-4.56h35.73a4.56,4.56,0,0,1,4.56,4.56v32.6A4.56,4.56,0,0,1,268.58,331Z" transform="translate(-24 -19)"/><text x="-24" y="-19"/><path class="cls-16" d="M254.24,122.38a21.62,21.62,0,1,1-21.62-21.63A21.61,21.61,0,0,1,254.24,122.38Z" transform="translate(-24 -19)"/><path class="cls-17" d="M35.77,327.25l-8-8c-6.27-6.27-4.48-18.07,3.93-25.88L199.85,133.79l21.35,21.36L61.65,323.32C53.83,331.73,42,333.52,35.77,327.25Z" transform="translate(-24 -19)"/><path class="cls-18" d="M269.15,235.72A6.19,6.19,0,0,1,257.22,237c-10.2-27.91-29.11-57.41-55.45-83.76S145.92,108,118,97.78a6.18,6.18,0,0,1,1.27-11.93A132.94,132.94,0,0,1,269.15,235.72Z" transform="translate(-24 -19)"/><path class="cls-19" d="M231.09,123.18,201.4,152.87l.37.36c19.59,19.6,35.07,40.94,45.92,62.08v-72.1a133.48,133.48,0,0,0-16.23-19.67C231.34,123.41,231.21,123.3,231.09,123.18Z" transform="translate(-24 -19)"/><path class="cls-20" d="M205.46,157l2,2.06c.31.33.62.65.92,1,.68.73,1.35,1.45,2,2.18l.71.78c.89,1,1.76,1.95,2.63,2.94l.51.59c.7.79,1.39,1.59,2.07,2.39l.84,1,1.75,2.09.81,1q1,1.25,2,2.49l.43.53c.8,1,1.58,2,2.36,3l.64.84c.57.74,1.13,1.49,1.69,2.23l.77,1,1.59,2.18.66.91c.73,1,1.46,2,2.16,3.06l.12.17c.67,1,1.33,1.93,2,2.9.22.32.43.64.64,1,.48.73,1,1.45,1.43,2.18.23.34.45.69.67,1l1.48,2.33c.16.26.32.52.49.78.63,1,1.26,2.05,1.87,3.08.14.22.27.45.4.67.48.81,1,1.62,1.43,2.44l.59,1L244.3,209c.18.33.37.66.55,1,.49.88,1,1.76,1.43,2.64.08.15.17.3.25.46.54,1,1.07,2,1.59,3.08.15.29.29.58.44.88l1.11,2.24.5,1c.36.74.7,1.48,1,2.21.14.31.29.61.43.91.47,1,.93,2.05,1.37,3.07l.13.3c.4.92.79,1.85,1.18,2.77.13.32.26.65.4,1,.29.72.58,1.43.86,2.15.14.34.27.68.4,1,.31.77.6,1.55.89,2.33l.27.73a1.8,1.8,0,0,1,.08.21,6.11,6.11,0,0,0,7.73,3.75c-.09-37.36-15.22-75.86-45-105.67s-68.3-44.94-105.66-45A6.12,6.12,0,0,0,118,97.78l.21.08.73.27,2.33.88,1,.41c.72.28,1.43.56,2.14.86l1,.4q1.38.57,2.76,1.17l.31.13,3.06,1.38.91.42,2.21,1,1.05.51c.75.36,1.49.73,2.24,1.11l.88.44,3.08,1.59.46.25,2.64,1.42,1,.56,2.17,1.22,1,.59,2.43,1.42.68.4,3.08,1.88.77.49c.78.49,1.56,1,2.33,1.48l1,.67c.72.47,1.45.94,2.17,1.43l1,.64q1.46,1,2.91,2l.16.11c1,.71,2,1.44,3.06,2.17l.92.66,2.17,1.59,1,.77,2.22,1.68.84.65c1,.78,2,1.56,3,2.36l.53.43c.83.66,1.66,1.33,2.48,2l1,.81,2.1,1.75,1,.84c.8.68,1.59,1.37,2.39,2.07l.59.51c1,.87,2,1.74,2.94,2.63l.78.71c.73.66,1.45,1.33,2.17,2l1,.92,2.06,2,.89.86c1,.94,1.92,1.88,2.87,2.83s1.9,1.92,2.84,2.88Z" transform="translate(-24 -19)"/><path class="cls-21" d="M188.2,145.5v44.61l33-35-21.35-21.36-11.74,11.08Z" transform="translate(-24 -19)"/><path class="cls-22" d="M209.5,166.8l-21.3-21.3a11.13,11.13,0,0,1,0-15.76L208,109.9a11.15,11.15,0,0,1,15.76,0l21.31,21.31a11.15,11.15,0,0,1,0,15.76L225.26,166.8A11.13,11.13,0,0,1,209.5,166.8Z" transform="translate(-24 -19)"/></svg>