<svg width="32" height="32" viewBox="0 0 32 32" fill="none" xmlns="http://www.w3.org/2000/svg">
<path d="M16.7861 7.48569C18.9548 7.48569 20.7129 5.80996 20.7129 3.74285C20.7129 1.67573 18.9548 0 16.7861 0C14.6174 0 12.8594 1.67573 12.8594 3.74285C12.8594 5.80996 14.6174 7.48569 16.7861 7.48569Z" fill="#4BC7EF"/>
<path d="M16.7861 32C18.0872 32 19.1419 30.9947 19.1419 29.7545C19.1419 28.5144 18.0872 27.5091 16.7861 27.5091C15.485 27.5091 14.4303 28.5144 14.4303 29.7545C14.4303 30.9947 15.485 32 16.7861 32Z" fill="#4BC7EF"/>
<path d="M7.13741 10.9201C9.08936 10.9201 10.6717 9.41181 10.6717 7.55127C10.6717 5.69073 9.08936 4.18246 7.13741 4.18246C5.18546 4.18246 3.60309 5.69073 3.60309 7.55127C3.60309 9.41181 5.18546 10.9201 7.13741 10.9201Z" fill="#4BC7EF"/>
<path d="M26.4348 27.8151C27.5191 27.8151 28.3982 26.9772 28.3982 25.9437C28.3982 24.9101 27.5191 24.0723 26.4348 24.0723C25.3505 24.0723 24.4714 24.9101 24.4714 25.9437C24.4714 26.9772 25.3505 27.8151 26.4348 27.8151Z" fill="#4BC7EF"/>
<path d="M3.14063 19.7428C4.87515 19.7428 6.28125 18.4026 6.28125 16.7493C6.28125 15.096 4.87515 13.7557 3.14063 13.7557C1.40611 13.7557 0 15.096 0 16.7493C0 18.4026 1.40611 19.7428 3.14063 19.7428Z" fill="#4BC7EF"/>
<path d="M30.4303 18.2443C31.2972 18.2443 32 17.5744 32 16.7481C32 15.9218 31.2972 15.2519 30.4303 15.2519C29.5634 15.2519 28.8607 15.9218 28.8607 16.7481C28.8607 17.5744 29.5634 18.2443 30.4303 18.2443Z" fill="#4BC7EF"/>
<path d="M5.19452 24.0941C4.12046 25.1179 4.12046 26.7743 5.19452 27.7981C6.2673 28.8219 8.00771 28.8219 9.08049 27.7981C10.1545 26.7743 10.1545 25.1179 9.08049 24.0941C8.00771 23.0692 6.26858 23.0594 5.19452 24.0941Z" fill="#4BC7EF"/>
<path d="M26.4335 8.67342C27.0837 8.67342 27.6107 8.17103 27.6107 7.55129C27.6107 6.93156 27.0837 6.42917 26.4335 6.42917C25.7833 6.42917 25.2562 6.93156 25.2562 7.55129C25.2562 8.17103 25.7833 8.67342 26.4335 8.67342Z" fill="#4BC7EF"/>
</svg>
