<?xml version="1.0" encoding="utf-8"?>
<!-- Generator: Adobe Illustrator 25.2.1, SVG Export Plug-In . SVG Version: 6.00 Build 0)  -->
<svg version="1.1" id="Layer_1" xmlns="http://www.w3.org/2000/svg" xmlns:xlink="http://www.w3.org/1999/xlink" x="0px" y="0px"
	 viewBox="0 0 64 64" style="enable-background:new 0 0 64 64;" xml:space="preserve">
<style type="text/css">
	.st0{fill:url(#XMLID_16_);}
	.st1{fill:#FFE959;}
	.st2{opacity:0.2;}
	.st3{fill:#424242;}
	.st4{opacity:0.9;fill:url(#XMLID_17_);enable-background:new    ;}
	.st5{fill:url(#SVGID_1_);}
	.st6{fill:url(#XMLID_18_);}
	.st7{opacity:0.9;fill:url(#XMLID_19_);enable-background:new    ;}
	.st8{fill:url(#XMLID_20_);}
	.st9{opacity:0.9;fill:url(#XMLID_21_);enable-background:new    ;}
	.st10{fill:url(#SVGID_2_);}
	.st11{opacity:0.9;fill:url(#XMLID_22_);enable-background:new    ;}
	.st12{fill:url(#XMLID_23_);}
	.st13{opacity:0.9;fill:url(#XMLID_24_);enable-background:new    ;}
	.st14{fill:url(#SVGID_3_);}
	.st15{fill:url(#XMLID_26_);}
	.st16{opacity:0.9;fill:url(#XMLID_27_);enable-background:new    ;}
	.st17{fill:url(#XMLID_31_);}
	.st18{opacity:0.9;fill:url(#XMLID_33_);enable-background:new    ;}
	.st19{fill:url(#SVGID_4_);}
	.st20{opacity:0.9;fill:url(#XMLID_34_);enable-background:new    ;}
	.st21{fill:url(#XMLID_36_);}
	.st22{opacity:0.9;fill:url(#XMLID_37_);enable-background:new    ;}
	.st23{fill:url(#SVGID_5_);}
	.st24{fill:url(#XMLID_38_);}
	.st25{opacity:0.9;fill:url(#XMLID_39_);enable-background:new    ;}
	.st26{fill:url(#XMLID_40_);}
	.st27{opacity:0.9;fill:url(#XMLID_41_);enable-background:new    ;}
	.st28{fill:url(#SVGID_6_);}
	.st29{opacity:0.9;fill:url(#XMLID_42_);enable-background:new    ;}
</style>
<g id="Layer_1_1_">
	
		<linearGradient id="XMLID_16_" gradientUnits="userSpaceOnUse" x1="31.856" y1="95.3678" x2="31.856" y2="78.8077" gradientTransform="matrix(-1 0 0 -1 63.7247 134)">
		<stop  offset="1.970000e-02" style="stop-color:#F7BC00"/>
		<stop  offset="1" style="stop-color:#FCD73E"/>
	</linearGradient>
	<path id="XMLID_68_" class="st0" d="M55.7,42v15.7L11,50.9c-1.7-0.3-2.9-1.4-2.9-2.6C8.2,44.1,8,40,8.1,35.9c0-0.8,0.1-1.7,1.3-1.9
		c0.8-0.1,1.8,0.2,2.6,0.3c0,0,5.4,0.9,5.4,0.9c0,0.1,0,0.3,0,0.4c0,1.8,1.9,3.3,4.4,3.5c2.2,0.1,4-0.9,4.3-2.4l16.6,2.9
		c-0.1,0.2-0.2,0.4-0.2,0.6c0,0.8,1,1.5,2.1,1.6c1.2,0.1,2.1-0.5,2.1-1.3c0-0.1,0-0.1,0-0.2C46.6,40.2,55.7,42,55.7,42z"/>
	<path class="st1" d="M8.1,36c0.3-1.3-0.4-2.9,3.9-1.7l5.4,0.9c0.4-1.1,2.2-1.8,4.2-1.6C24,33.7,26,35,26,36.4c0,0.1,0,0.2,0,0.3
		l16.6,2.9l0,0c0.3-0.3,1.1-0.5,1.9-0.5c1.1,0.1,2.1,0.6,2.1,1.2l9.1,1.8L31.8,27.9c-2.2-1.3-5-1.9-7.5-1.5
		c-2.5,0.3-5.6,0.9-7.9,1.8c-2.8,1-5.3,2.7-6.9,4c-0.1,0.1-0.7,0.6-1,1.2C8.1,34,8.1,34.9,8.1,36z"/>
	<g class="st2">
		<path class="st3" d="M25.8,27.3c1.8,0,3.7,0.5,5.2,1.4l23.4,13.9v14l-43.2-6.6c-1-0.2-1.9-0.9-1.8-1.6c0-2.4,0-4.8,0-7.2
			c0-1.7,0-3.5,0-5.2c0-0.1,0-0.2,0-0.4c0,0,0,0,0,0c0-0.6,0.1-1.3,0.3-1.8c0.2-0.4,0.6-0.8,0.7-0.9c1.6-1.2,4-2.8,6.5-3.8
			c1.8-0.7,4.4-1.2,7.6-1.7C24.9,27.3,25.3,27.3,25.8,27.3 M25.8,26.3c-0.5,0-1,0-1.5,0.1c-2.5,0.3-5.6,0.9-7.9,1.8
			c-2.8,1-5.3,2.7-6.9,4c-0.1,0.1-0.7,0.6-1,1.2c-0.3,0.6-0.3,1.3-0.4,2.1c0,0.2,0,0.3,0,0.4c0,4.1,0.1,8.3,0.1,12.4
			c0,1.2,1.2,2.3,2.9,2.6l44.7,6.8V42L31.8,27.9C30,26.9,27.9,26.3,25.8,26.3L25.8,26.3z"/>
	</g>
	
		<radialGradient id="XMLID_17_" cx="60.2353" cy="91.0468" r="7.6442" gradientTransform="matrix(-0.4258 0 0 -0.3225 41.7353 74.6026)" gradientUnits="userSpaceOnUse">
		<stop  offset="8.130000e-02" style="stop-color:#DE7F14"/>
		<stop  offset="0.3389" style="stop-color:#DA7D12"/>
		<stop  offset="0.5993" style="stop-color:#CE760D"/>
		<stop  offset="0.8602" style="stop-color:#BA6C05"/>
		<stop  offset="0.987" style="stop-color:#AD6500"/>
	</radialGradient>
	<path id="XMLID_35_" class="st4" d="M18,46c0,1.3-1.5,2.3-3.3,2.2s-3.3-1.3-3.3-2.6c0-1.3,1.5-2.3,3.3-2.2C16.5,43.5,18,44.7,18,46
		z"/>
	
		<radialGradient id="SVGID_1_" cx="38.8355" cy="126.0922" r="15.7277" gradientTransform="matrix(-0.4258 0 0 -0.3225 41.7353 74.6026)" gradientUnits="userSpaceOnUse">
		<stop  offset="8.130000e-02" style="stop-color:#DE7F14"/>
		<stop  offset="0.3389" style="stop-color:#DA7D12"/>
		<stop  offset="0.5993" style="stop-color:#CE760D"/>
		<stop  offset="0.8602" style="stop-color:#BA6C05"/>
		<stop  offset="0.987" style="stop-color:#AD6500"/>
	</radialGradient>
	<path class="st5" d="M17.3,35.6c0,1.8,1.9,3.3,4.4,3.5c2.2,0.1,4-0.9,4.3-2.4l-0.1,0l-0.3-0.1l0.5,0.1c0-0.1,0-0.2,0-0.3
		c0-1.4-2-2.7-4.4-2.8c-2-0.1-3.8,0.6-4.2,1.6C17.3,35.3,17.3,35.5,17.3,35.6z"/>
	
		<radialGradient id="XMLID_18_" cx="86.5062" cy="314.1457" r="7.9039" gradientTransform="matrix(-0.3078 0.2228 -0.2409 -0.1909 128.8412 69.0517)" gradientUnits="userSpaceOnUse">
		<stop  offset="8.750000e-02" style="stop-color:#D99914"/>
		<stop  offset="0.4098" style="stop-color:#D59612"/>
		<stop  offset="0.735" style="stop-color:#C98D0D"/>
		<stop  offset="0.987" style="stop-color:#BA8207"/>
	</radialGradient>
	<path id="XMLID_32_" class="st6" d="M27.4,30c0,0.6-1,1.1-2.2,1c-1.2-0.1-2.2-0.7-2.2-1.3c0-0.6,1-1.1,2.2-1
		C26.5,28.7,27.4,29.3,27.4,30z"/>
	
		<radialGradient id="XMLID_19_" cx="22.0022" cy="94.4255" r="17.442" gradientTransform="matrix(-0.4258 0 0 -0.3225 41.7353 74.6026)" gradientUnits="userSpaceOnUse">
		<stop  offset="8.130000e-02" style="stop-color:#DE7F14"/>
		<stop  offset="0.3389" style="stop-color:#DA7D12"/>
		<stop  offset="0.5993" style="stop-color:#CE760D"/>
		<stop  offset="0.8602" style="stop-color:#BA6C05"/>
		<stop  offset="0.987" style="stop-color:#AD6500"/>
	</radialGradient>
	<path id="XMLID_30_" class="st7" d="M36.6,45.6c0,2.3-2.5,3.9-5.6,3.7c-3.1-0.2-5.6-2.2-5.6-4.5c0-2.3,2.5-3.9,5.6-3.7
		C34,41.3,36.6,43.3,36.6,45.6z"/>
	
		<radialGradient id="XMLID_20_" cx="25.5539" cy="131.4255" r="12.1438" gradientTransform="matrix(-0.4258 0 0 -0.3225 41.7353 74.6026)" gradientUnits="userSpaceOnUse">
		<stop  offset="8.750000e-02" style="stop-color:#D99914"/>
		<stop  offset="0.4098" style="stop-color:#D59612"/>
		<stop  offset="0.735" style="stop-color:#C98D0D"/>
		<stop  offset="0.987" style="stop-color:#BA8207"/>
	</radialGradient>
	<path id="XMLID_29_" class="st8" d="M37.4,34.1c0,0.9-1.4,1.5-3.2,1.3s-3.2-0.9-3.2-1.8c0-0.9,1.4-1.5,3.2-1.3S37.4,33.2,37.4,34.1
		z"/>
	
		<radialGradient id="XMLID_21_" cx="-3.3171" cy="77.3359" r="6.5979" gradientTransform="matrix(-0.4258 0 0 -0.3225 41.7353 74.6026)" gradientUnits="userSpaceOnUse">
		<stop  offset="8.130000e-02" style="stop-color:#DE7F14"/>
		<stop  offset="0.3389" style="stop-color:#DA7D12"/>
		<stop  offset="0.5993" style="stop-color:#CE760D"/>
		<stop  offset="0.8602" style="stop-color:#BA6C05"/>
		<stop  offset="0.987" style="stop-color:#AD6500"/>
	</radialGradient>
	<path id="XMLID_28_" class="st9" d="M44.6,50.4c0,1.1-1.3,2-2.9,1.9c-1.6-0.1-2.9-1.1-2.9-2.3s1.3-2,2.9-1.9
		C43.3,48.3,44.6,49.3,44.6,50.4z"/>
	
		<radialGradient id="SVGID_2_" cx="-8.3311" cy="110.4255" r="9.839" gradientTransform="matrix(-0.4258 0 0 -0.3225 41.7353 74.6026)" gradientUnits="userSpaceOnUse">
		<stop  offset="8.600000e-02" style="stop-color:#C77315"/>
		<stop  offset="0.3774" style="stop-color:#C37113"/>
		<stop  offset="0.6718" style="stop-color:#B76C0F"/>
		<stop  offset="0.9669" style="stop-color:#A36407"/>
		<stop  offset="0.987" style="stop-color:#A16306"/>
	</radialGradient>
	<path class="st10" d="M42.3,40.1c0,0.8,1,1.5,2.1,1.6c1.2,0.1,2.1-0.5,2.1-1.3c0-0.1,0-0.1,0-0.2h0c0-0.6-1-1.1-2.1-1.2
		c-0.8-0.1-1.6,0.1-1.9,0.5l0,0C42.4,39.7,42.3,39.9,42.3,40.1z"/>
	
		<radialGradient id="XMLID_22_" cx="-22.1441" cy="89.4298" r="4.8951" gradientTransform="matrix(-0.4258 0 0 -0.3225 41.7353 74.6026)" gradientUnits="userSpaceOnUse">
		<stop  offset="8.130000e-02" style="stop-color:#DE7F14"/>
		<stop  offset="0.3389" style="stop-color:#DA7D12"/>
		<stop  offset="0.5993" style="stop-color:#CE760D"/>
		<stop  offset="0.8602" style="stop-color:#BA6C05"/>
		<stop  offset="0.987" style="stop-color:#AD6500"/>
	</radialGradient>
	<path id="XMLID_25_" class="st11" d="M51.7,46.2c0,0.6-0.7,1.1-1.5,1c-0.8-0.1-1.5-0.6-1.5-1.2c0-0.6,0.7-1.1,1.5-1
		C51,45.1,51.7,45.6,51.7,46.2z"/>
</g>
<g id="Layer_1_2_">
	
		<linearGradient id="XMLID_23_" gradientUnits="userSpaceOnUse" x1="24.3543" y1="112.3633" x2="24.3543" y2="97.7154" gradientTransform="matrix(-0.7652 -1.674123e-02 1.879947e-02 -0.8593 49.3526 121.4895)">
		<stop  offset="1.970000e-02" style="stop-color:#F7BC00"/>
		<stop  offset="1" style="stop-color:#FCD73E"/>
	</linearGradient>
	<path id="XMLID_7_" class="st12" d="M49.8,27.3l-0.4,12.1l-31.7-5.7c-1.2-0.2-2-1.1-2-2c0.2-3.2,0.1-6.4,0.3-9.6
		c0-0.6,0.1-1.3,1-1.5c0.6-0.1,1.3,0.2,1.9,0.3c0,0,3.8,0.8,3.8,0.8c0,0.1,0,0.2,0,0.3c0,1.3,1.3,2.6,3,2.7c1.6,0.1,2.9-0.7,3.1-1.8
		l11.7,2.4c-0.1,0.1-0.2,0.3-0.2,0.5c0,0.6,0.6,1.2,1.5,1.3c0.8,0.1,1.5-0.4,1.5-1c0-0.1,0-0.1,0-0.2C43.3,25.8,49.8,27.3,49.8,27.3
		z"/>
	<path class="st1" d="M15.9,22.2c0.2-1-0.2-2.2,2.8-1.3l3.8,0.8c0.3-0.8,1.6-1.3,3.1-1.2c1.7,0.1,3.1,1.2,3.1,2.2c0,0.1,0,0.2,0,0.2
		l11.7,2.4l0,0c0.2-0.3,0.8-0.4,1.4-0.4c0.8,0.1,1.5,0.5,1.5,0.9l6.4,1.5L33.1,16.2c-1.5-1-3.5-1.5-5.3-1.2c-1.8,0.2-4,0.6-5.7,1.3
		c-2,0.7-3.8,2-5,3c-0.1,0.1-0.5,0.4-0.7,0.9C16,20.7,16,21.4,15.9,22.2z"/>
	<g class="st2">
		<path class="st3" d="M28.8,15.6c1.3,0,2.6,0.4,3.7,1.1l16.4,10.9l-0.3,10.8L17.9,33c-0.7-0.1-1.3-0.7-1.3-1.3
			c0.1-1.8,0.1-3.7,0.2-5.5c0-1.3,0.1-2.7,0.1-4c0-0.1,0-0.2,0-0.3c0,0,0,0,0,0c0-0.5,0.1-1,0.2-1.4c0.1-0.3,0.4-0.6,0.5-0.7
			c1.1-0.9,2.9-2.1,4.8-2.8c1.3-0.5,3.2-0.9,5.5-1.2C28.1,15.6,28.5,15.6,28.8,15.6 M28.8,14.9c-0.4,0-0.7,0-1.1,0.1
			c-1.8,0.2-4,0.6-5.7,1.3c-2,0.7-3.8,2-5,3c-0.1,0.1-0.5,0.4-0.7,0.9c-0.2,0.4-0.3,1-0.3,1.6c0,0.1,0,0.2,0,0.3
			c-0.1,3.2-0.1,6.4-0.3,9.6c0,0.9,0.8,1.8,2,2l31.7,5.7l0.4-12.1L33,16.2C31.8,15.4,30.3,14.9,28.8,14.9L28.8,14.9z"/>
	</g>
	
		<radialGradient id="XMLID_24_" cx="37.0991" cy="155.7275" r="7.6442" gradientTransform="matrix(-0.3037 -4.346208e-03 7.587721e-03 -0.2484 31.5273 68.2331)" gradientUnits="userSpaceOnUse">
		<stop  offset="8.130000e-02" style="stop-color:#DE7F14"/>
		<stop  offset="0.3389" style="stop-color:#DA7D12"/>
		<stop  offset="0.5993" style="stop-color:#CE760D"/>
		<stop  offset="0.8602" style="stop-color:#BA6C05"/>
		<stop  offset="0.987" style="stop-color:#AD6500"/>
	</radialGradient>
	<path id="XMLID_6_" class="st13" d="M22.8,30c0,1-1.1,1.8-2.4,1.6s-2.3-1-2.3-2.1s1.1-1.8,2.4-1.6C21.8,28.1,22.8,29,22.8,30z"/>
	
		<radialGradient id="SVGID_3_" cx="15.6993" cy="190.7729" r="15.7277" gradientTransform="matrix(-0.3037 -4.346208e-03 7.587721e-03 -0.2484 31.5273 68.2331)" gradientUnits="userSpaceOnUse">
		<stop  offset="8.130000e-02" style="stop-color:#DE7F14"/>
		<stop  offset="0.3389" style="stop-color:#DA7D12"/>
		<stop  offset="0.5993" style="stop-color:#CE760D"/>
		<stop  offset="0.8602" style="stop-color:#BA6C05"/>
		<stop  offset="0.987" style="stop-color:#AD6500"/>
	</radialGradient>
	<path class="st14" d="M22.5,22c0,1.3,1.3,2.6,3,2.7c1.6,0.1,2.9-0.7,3.1-1.8l-0.1,0l-0.2,0l0.3,0.1c0-0.1,0-0.2,0-0.2
		c0-1.1-1.4-2.1-3.1-2.2c-1.4-0.1-2.7,0.4-3.1,1.2C22.6,21.8,22.5,21.9,22.5,22z"/>
	
		<radialGradient id="XMLID_26_" cx="25.0957" cy="351.7339" r="7.9039" gradientTransform="matrix(-0.2248 0.1685 -0.1673 -0.1495 93.7869 64.8462)" gradientUnits="userSpaceOnUse">
		<stop  offset="8.750000e-02" style="stop-color:#D99914"/>
		<stop  offset="0.4098" style="stop-color:#D59612"/>
		<stop  offset="0.735" style="stop-color:#C98D0D"/>
		<stop  offset="0.987" style="stop-color:#BA8207"/>
	</radialGradient>
	<path id="XMLID_5_" class="st15" d="M29.9,17.7c0,0.5-0.7,0.8-1.6,0.8c-0.8-0.1-1.5-0.5-1.5-1c0-0.5,0.7-0.8,1.6-0.8
		C29.2,16.8,29.9,17.2,29.9,17.7z"/>
	
		<radialGradient id="XMLID_27_" cx="-1.134" cy="159.1062" r="17.442" gradientTransform="matrix(-0.3037 -4.346208e-03 7.587721e-03 -0.2484 31.5273 68.2331)" gradientUnits="userSpaceOnUse">
		<stop  offset="8.130000e-02" style="stop-color:#DE7F14"/>
		<stop  offset="0.3389" style="stop-color:#DA7D12"/>
		<stop  offset="0.5993" style="stop-color:#CE760D"/>
		<stop  offset="0.8602" style="stop-color:#BA6C05"/>
		<stop  offset="0.987" style="stop-color:#AD6500"/>
	</radialGradient>
	<path id="XMLID_4_" class="st16" d="M36,29.9c-0.1,1.7-1.9,3-4.1,2.8c-2.2-0.2-4-1.8-3.9-3.5c0.1-1.7,1.9-3,4.1-2.8
		C34.3,26.5,36.1,28.1,36,29.9z"/>
	
		<radialGradient id="XMLID_31_" cx="2.4177" cy="196.1062" r="12.1438" gradientTransform="matrix(-0.3037 -4.346208e-03 7.587721e-03 -0.2484 31.5273 68.2331)" gradientUnits="userSpaceOnUse">
		<stop  offset="8.750000e-02" style="stop-color:#D99914"/>
		<stop  offset="0.4098" style="stop-color:#D59612"/>
		<stop  offset="0.735" style="stop-color:#C98D0D"/>
		<stop  offset="0.987" style="stop-color:#BA8207"/>
	</radialGradient>
	<path id="XMLID_3_" class="st17" d="M36.9,21c0,0.7-1.1,1.1-2.3,1s-2.3-0.7-2.3-1.4c0-0.7,1.1-1.1,2.3-1
		C35.9,19.7,36.9,20.3,36.9,21z"/>
	
		<radialGradient id="XMLID_33_" cx="-26.4533" cy="142.0166" r="6.5979" gradientTransform="matrix(-0.3037 -4.346208e-03 7.587721e-03 -0.2484 31.5273 68.2331)" gradientUnits="userSpaceOnUse">
		<stop  offset="8.130000e-02" style="stop-color:#DE7F14"/>
		<stop  offset="0.3389" style="stop-color:#DA7D12"/>
		<stop  offset="0.5993" style="stop-color:#CE760D"/>
		<stop  offset="0.8602" style="stop-color:#BA6C05"/>
		<stop  offset="0.987" style="stop-color:#AD6500"/>
	</radialGradient>
	<path id="XMLID_2_" class="st18" d="M41.6,33.7c0,0.9-1,1.5-2.1,1.4s-2-0.9-2-1.8s1-1.5,2.1-1.4C40.8,32,41.7,32.8,41.6,33.7z"/>
	
		<radialGradient id="SVGID_4_" cx="-31.4673" cy="175.1062" r="9.839" gradientTransform="matrix(-0.3037 -4.346208e-03 7.587721e-03 -0.2484 31.5273 68.2331)" gradientUnits="userSpaceOnUse">
		<stop  offset="8.600000e-02" style="stop-color:#C77315"/>
		<stop  offset="0.3774" style="stop-color:#C37113"/>
		<stop  offset="0.6718" style="stop-color:#B76C0F"/>
		<stop  offset="0.9669" style="stop-color:#A36407"/>
		<stop  offset="0.987" style="stop-color:#A16306"/>
	</radialGradient>
	<path class="st19" d="M40.3,25.7c0,0.6,0.6,1.2,1.5,1.3c0.8,0.1,1.5-0.4,1.5-1c0-0.1,0-0.1,0-0.2l0,0c0-0.4-0.7-0.9-1.5-0.9
		c-0.6-0.1-1.1,0.1-1.4,0.4l0,0C40.3,25.4,40.3,25.6,40.3,25.7z"/>
	
		<radialGradient id="XMLID_34_" cx="-45.2803" cy="154.1105" r="4.8951" gradientTransform="matrix(-0.3037 -4.346208e-03 7.587721e-03 -0.2484 31.5273 68.2331)" gradientUnits="userSpaceOnUse">
		<stop  offset="8.130000e-02" style="stop-color:#DE7F14"/>
		<stop  offset="0.3389" style="stop-color:#DA7D12"/>
		<stop  offset="0.5993" style="stop-color:#CE760D"/>
		<stop  offset="0.8602" style="stop-color:#BA6C05"/>
		<stop  offset="0.987" style="stop-color:#AD6500"/>
	</radialGradient>
	<path id="XMLID_1_" class="st20" d="M46.8,30.5c0,0.5-0.5,0.8-1.1,0.8s-1.1-0.5-1.1-1c0-0.5,0.5-0.8,1.1-0.8
		C46.3,29.6,46.8,30,46.8,30.5z"/>
</g>
<g id="Layer_1_3_">
	
		<linearGradient id="XMLID_36_" gradientUnits="userSpaceOnUse" x1="21.7379" y1="122.4852" x2="21.7379" y2="112.3469" gradientTransform="matrix(-0.6287 -3.929030e-02 5.047998e-02 -0.8077 40.1984 114.1829)">
		<stop  offset="1.970000e-02" style="stop-color:#F7BC00"/>
		<stop  offset="1" style="stop-color:#FCD73E"/>
	</linearGradient>
	<path id="XMLID_14_" class="st21" d="M42.7,16.4L42,24.4l-18.6-4.2c-0.7-0.2-1.2-0.8-1.1-1.4c0.2-2.1,0.3-4.3,0.5-6.4
		c0-0.4,0.1-0.9,0.6-1c0.4-0.1,0.8,0.1,1.1,0.2c0,0,2.2,0.6,2.2,0.6c0,0.1,0,0.2,0,0.2c-0.1,0.9,0.7,1.7,1.7,1.8
		c0.9,0.1,1.7-0.4,1.9-1.2l6.9,1.7c-0.1,0.1-0.1,0.2-0.1,0.3c0,0.4,0.3,0.8,0.8,0.9c0.5,0.1,0.9-0.2,1-0.6c0,0,0-0.1,0-0.1
		C38.9,15.3,42.7,16.4,42.7,16.4z"/>
	<path class="st1" d="M22.9,12.5c0.2-0.6,0-1.5,1.7-0.8l2.2,0.6c0.2-0.5,1-0.9,1.9-0.8c1,0.1,1.8,0.8,1.7,1.5c0,0.1,0,0.1,0,0.2
		l6.9,1.7l0,0c0.2-0.2,0.5-0.3,0.8-0.2c0.5,0.1,0.8,0.3,0.8,0.6l3.8,1.1l-9.5-7.7c-0.9-0.7-2-1-3.1-0.9C29,8,27.7,8.2,26.7,8.6
		c-1.2,0.5-2.3,1.3-3.1,1.9c0,0-0.3,0.3-0.5,0.6C23,11.5,22.9,12,22.9,12.5z"/>
	<g class="st2">
		<path class="st3" d="M30.7,8.3c0.8,0,1.5,0.3,2.1,0.8l9.3,7.5l-0.6,7.2l-17.9-4.1c-0.4-0.1-0.7-0.5-0.7-0.9
			c0.1-1.2,0.2-2.5,0.3-3.7c0.1-0.9,0.1-1.8,0.2-2.7c0-0.1,0-0.1,0-0.2c0,0,0,0,0,0c0-0.3,0.1-0.7,0.2-0.9c0.1-0.2,0.3-0.4,0.3-0.4
			c0.7-0.6,1.8-1.4,2.9-1.8c0.8-0.3,1.9-0.6,3.3-0.7C30.3,8.3,30.5,8.3,30.7,8.3 M30.8,7.8c-0.2,0-0.4,0-0.7,0
			C29,8,27.7,8.2,26.7,8.6c-1.2,0.5-2.3,1.3-3.1,1.9c0,0-0.3,0.3-0.5,0.6c-0.1,0.3-0.2,0.6-0.2,1.1c0,0.1,0,0.2,0,0.2
			c-0.2,2.1-0.3,4.3-0.5,6.4c-0.1,0.6,0.4,1.2,1.1,1.4L42,24.5l0.7-8.1l-9.5-7.7C32.5,8.2,31.6,7.9,30.8,7.8L30.8,7.8z"/>
	</g>
	
		<radialGradient id="XMLID_37_" cx="6.3288" cy="232.6618" r="7.6442" gradientTransform="matrix(-0.1796 -6.822554e-03 1.390662e-02 -0.1656 23.7422 55.99)" gradientUnits="userSpaceOnUse">
		<stop  offset="8.130000e-02" style="stop-color:#DE7F14"/>
		<stop  offset="0.3389" style="stop-color:#DA7D12"/>
		<stop  offset="0.5993" style="stop-color:#CE760D"/>
		<stop  offset="0.8602" style="stop-color:#BA6C05"/>
		<stop  offset="0.987" style="stop-color:#AD6500"/>
	</radialGradient>
	<path id="XMLID_13_" class="st22" d="M26.6,17.8c-0.1,0.7-0.7,1.2-1.5,1.1c-0.8-0.1-1.3-0.7-1.3-1.4c0.1-0.7,0.7-1.2,1.5-1.1
		C26.1,16.5,26.7,17.2,26.6,17.8z"/>
	
		<radialGradient id="SVGID_5_" cx="-15.071" cy="267.7072" r="15.7277" gradientTransform="matrix(-0.1796 -6.822554e-03 1.390662e-02 -0.1656 23.7422 55.99)" gradientUnits="userSpaceOnUse">
		<stop  offset="8.130000e-02" style="stop-color:#DE7F14"/>
		<stop  offset="0.3389" style="stop-color:#DA7D12"/>
		<stop  offset="0.5993" style="stop-color:#CE760D"/>
		<stop  offset="0.8602" style="stop-color:#BA6C05"/>
		<stop  offset="0.987" style="stop-color:#AD6500"/>
	</radialGradient>
	<path class="st23" d="M26.8,12.5c-0.1,0.9,0.7,1.7,1.7,1.8c0.9,0.1,1.7-0.4,1.9-1.2l-0.1,0l-0.1,0l0.2,0c0-0.1,0-0.1,0-0.2
		c0.1-0.7-0.7-1.4-1.7-1.5c-0.9-0.1-1.6,0.2-1.9,0.8C26.8,12.3,26.8,12.4,26.8,12.5z"/>
	
		<radialGradient id="XMLID_38_" cx="-50.2993" cy="393.7" r="7.9039" gradientTransform="matrix(-0.1395 0.1095 -9.338627e-02 -0.1019 60.7326 54.5344)" gradientUnits="userSpaceOnUse">
		<stop  offset="8.750000e-02" style="stop-color:#D99914"/>
		<stop  offset="0.4098" style="stop-color:#D59612"/>
		<stop  offset="0.735" style="stop-color:#C98D0D"/>
		<stop  offset="0.987" style="stop-color:#BA8207"/>
	</radialGradient>
	<path id="XMLID_12_" class="st24" d="M31.3,9.7c0,0.3-0.5,0.5-1,0.5s-0.9-0.4-0.9-0.7c0-0.3,0.5-0.5,1-0.5
		C30.9,9.1,31.3,9.4,31.3,9.7z"/>
	
		<radialGradient id="XMLID_39_" cx="-31.9043" cy="236.0405" r="17.442" gradientTransform="matrix(-0.1796 -6.822554e-03 1.390662e-02 -0.1656 23.7422 55.99)" gradientUnits="userSpaceOnUse">
		<stop  offset="8.130000e-02" style="stop-color:#DE7F14"/>
		<stop  offset="0.3389" style="stop-color:#DA7D12"/>
		<stop  offset="0.5993" style="stop-color:#CE760D"/>
		<stop  offset="0.8602" style="stop-color:#BA6C05"/>
		<stop  offset="0.987" style="stop-color:#AD6500"/>
	</radialGradient>
	<path id="XMLID_11_" class="st25" d="M34.5,17.9c-0.1,1.2-1.2,2-2.5,1.8c-1.3-0.2-2.3-1.2-2.2-2.4c0.1-1.2,1.2-2,2.5-1.8
		C33.6,15.7,34.6,16.7,34.5,17.9z"/>
	
		<radialGradient id="XMLID_40_" cx="-28.3526" cy="273.0405" r="12.1438" gradientTransform="matrix(-0.1796 -6.822554e-03 1.390662e-02 -0.1656 23.7422 55.99)" gradientUnits="userSpaceOnUse">
		<stop  offset="8.750000e-02" style="stop-color:#D99914"/>
		<stop  offset="0.4098" style="stop-color:#D59612"/>
		<stop  offset="0.735" style="stop-color:#C98D0D"/>
		<stop  offset="0.987" style="stop-color:#BA8207"/>
	</radialGradient>
	<path id="XMLID_10_" class="st26" d="M35.3,12c0,0.4-0.7,0.7-1.4,0.6c-0.7-0.1-1.3-0.5-1.3-1c0-0.4,0.7-0.7,1.4-0.6
		S35.3,11.6,35.3,12z"/>
	
		<radialGradient id="XMLID_41_" cx="-57.2236" cy="218.9509" r="6.5979" gradientTransform="matrix(-0.1796 -6.822554e-03 1.390662e-02 -0.1656 23.7422 55.99)" gradientUnits="userSpaceOnUse">
		<stop  offset="8.130000e-02" style="stop-color:#DE7F14"/>
		<stop  offset="0.3389" style="stop-color:#DA7D12"/>
		<stop  offset="0.5993" style="stop-color:#CE760D"/>
		<stop  offset="0.8602" style="stop-color:#BA6C05"/>
		<stop  offset="0.987" style="stop-color:#AD6500"/>
	</radialGradient>
	<path id="XMLID_9_" class="st27" d="M37.6,20.5c0,0.6-0.6,1-1.3,0.9c-0.7-0.1-1.2-0.6-1.1-1.2c0-0.6,0.6-1,1.3-0.9
		C37.2,19.4,37.7,19.9,37.6,20.5z"/>
	
		<radialGradient id="SVGID_6_" cx="-62.2376" cy="252.0405" r="9.839" gradientTransform="matrix(-0.1796 -6.822554e-03 1.390662e-02 -0.1656 23.7422 55.99)" gradientUnits="userSpaceOnUse">
		<stop  offset="8.600000e-02" style="stop-color:#C77315"/>
		<stop  offset="0.3774" style="stop-color:#C37113"/>
		<stop  offset="0.6718" style="stop-color:#B76C0F"/>
		<stop  offset="0.9669" style="stop-color:#A36407"/>
		<stop  offset="0.987" style="stop-color:#A16306"/>
	</radialGradient>
	<path class="st28" d="M37.1,15.2c0,0.4,0.3,0.8,0.8,0.9c0.5,0.1,0.9-0.2,1-0.6c0,0,0-0.1,0-0.1l0,0c0-0.3-0.4-0.6-0.8-0.6
		c-0.4,0-0.7,0-0.8,0.2l0,0C37.2,15,37.1,15.1,37.1,15.2z"/>
	
		<radialGradient id="XMLID_42_" cx="-76.0506" cy="231.0448" r="4.8951" gradientTransform="matrix(-0.1796 -6.822554e-03 1.390662e-02 -0.1656 23.7422 55.99)" gradientUnits="userSpaceOnUse">
		<stop  offset="8.130000e-02" style="stop-color:#DE7F14"/>
		<stop  offset="0.3389" style="stop-color:#DA7D12"/>
		<stop  offset="0.5993" style="stop-color:#CE760D"/>
		<stop  offset="0.8602" style="stop-color:#BA6C05"/>
		<stop  offset="0.987" style="stop-color:#AD6500"/>
	</radialGradient>
	<path id="XMLID_8_" class="st29" d="M40.8,18.5c0,0.3-0.3,0.5-0.7,0.5c-0.4,0-0.6-0.3-0.6-0.7s0.3-0.5,0.7-0.5
		C40.6,17.9,40.8,18.2,40.8,18.5z"/>
</g>
</svg>
